<?xml version="1.0" encoding="UTF-8" standalone="no"?>
<!-- Created with Inkscape (http://www.inkscape.org/) -->

<svg
   width="300"
   height="300"
   viewBox="0 0 300 300"
   version="1.1"
   id="svg5"
   inkscape:version="1.1.1 (3bf5ae0, 2021-09-20)"
   sodipodi:docname="decentralization-icons.svg"
   xmlns:inkscape="http://www.inkscape.org/namespaces/inkscape"
   xmlns:sodipodi="http://sodipodi.sourceforge.net/DTD/sodipodi-0.dtd"
   xmlns:xlink="http://www.w3.org/1999/xlink"
   xmlns="http://www.w3.org/2000/svg"
   xmlns:svg="http://www.w3.org/2000/svg">
  <sodipodi:namedview
     id="namedview7"
     pagecolor="#ffffff"
     bordercolor="#666666"
     borderopacity="1.0"
     inkscape:pageshadow="2"
     inkscape:pageopacity="0.0"
     inkscape:pagecheckerboard="0"
     inkscape:document-units="px"
     showgrid="false"
     inkscape:zoom="0.92866692"
     inkscape:cx="454.95321"
     inkscape:cy="123.83342"
     inkscape:window-width="1024"
     inkscape:window-height="545"
     inkscape:window-x="0"
     inkscape:window-y="27"
     inkscape:window-maximized="1"
     inkscape:current-layer="layer1" />
  <defs
     id="defs2">
    <linearGradient
       inkscape:collect="always"
       id="linearGradient22171">
      <stop
         style="stop-color:#1066dc;stop-opacity:1"
         offset="0"
         id="stop22167" />
      <stop
         style="stop-color:#00ff5f;stop-opacity:1"
         offset="1"
         id="stop22169" />
    </linearGradient>
    <inkscape:path-effect
       effect="spiro"
       id="path-effect21104"
       is_visible="true"
       lpeversion="1" />
    <inkscape:path-effect
       effect="spiro"
       id="path-effect20619"
       is_visible="true"
       lpeversion="1" />
    <inkscape:path-effect
       effect="spiro"
       id="path-effect20362"
       is_visible="true"
       lpeversion="1" />
    <inkscape:path-effect
       effect="spiro"
       id="path-effect19953"
       is_visible="true"
       lpeversion="1" />
    <inkscape:path-effect
       effect="spiro"
       id="path-effect19620"
       is_visible="true"
       lpeversion="1" />
    <inkscape:path-effect
       effect="spiro"
       id="path-effect18223"
       is_visible="true"
       lpeversion="1" />
    <inkscape:path-effect
       effect="spiro"
       id="path-effect17206"
       is_visible="true"
       lpeversion="1" />
    <inkscape:path-effect
       effect="spiro"
       id="path-effect15459"
       is_visible="true"
       lpeversion="1" />
    <inkscape:path-effect
       effect="spiro"
       id="path-effect15126"
       is_visible="true"
       lpeversion="1" />
    <inkscape:path-effect
       effect="spiro"
       id="path-effect14561"
       is_visible="true"
       lpeversion="1" />
    <inkscape:path-effect
       effect="spiro"
       id="path-effect14152"
       is_visible="true"
       lpeversion="1" />
    <inkscape:path-effect
       effect="spiro"
       id="path-effect13264"
       is_visible="true"
       lpeversion="1" />
    <inkscape:path-effect
       effect="spiro"
       id="path-effect12399"
       is_visible="true"
       lpeversion="1" />
    <inkscape:path-effect
       effect="spiro"
       id="path-effect11011"
       is_visible="true"
       lpeversion="1" />
    <inkscape:path-effect
       effect="spiro"
       id="path-effect9885"
       is_visible="true"
       lpeversion="1" />
    <inkscape:path-effect
       effect="spiro"
       id="path-effect9324"
       is_visible="true"
       lpeversion="1" />
    <inkscape:path-effect
       effect="spiro"
       id="path-effect8379"
       is_visible="true"
       lpeversion="1" />
    <inkscape:path-effect
       effect="spiro"
       id="path-effect7081"
       is_visible="true"
       lpeversion="1" />
    <inkscape:path-effect
       effect="spiro"
       id="path-effect6391"
       is_visible="true"
       lpeversion="1" />
    <inkscape:path-effect
       effect="spiro"
       id="path-effect6138"
       is_visible="true"
       lpeversion="1" />
    <inkscape:path-effect
       effect="spiro"
       id="path-effect5729"
       is_visible="true"
       lpeversion="1" />
    <inkscape:path-effect
       effect="spiro"
       id="path-effect5411"
       is_visible="true"
       lpeversion="1" />
    <inkscape:path-effect
       effect="spiro"
       id="path-effect2304"
       is_visible="true"
       lpeversion="1" />
    <inkscape:path-effect
       effect="spiro"
       id="path-effect1929"
       is_visible="true"
       lpeversion="1" />
    <inkscape:path-effect
       effect="spiro"
       id="path-effect1669"
       is_visible="true"
       lpeversion="1" />
    <inkscape:path-effect
       effect="spiro"
       id="path-effect1470"
       is_visible="true"
       lpeversion="1" />
    <linearGradient
       inkscape:collect="always"
       xlink:href="#linearGradient22171"
       id="linearGradient22173"
       x1="5.2491195"
       y1="152.21582"
       x2="297.83095"
       y2="152.21582"
       gradientUnits="userSpaceOnUse" />
  </defs>
  <g
     inkscape:label="Capa 1"
     inkscape:groupmode="layer"
     id="layer1">
    <path
       id="path4233"
       style="opacity:1;fill:url(#linearGradient22173);stroke-width:2.51898;stop-color:#000000;fill-opacity:1"
       d="M 39.924738,7.8624199 A 33.794981,33.794981 0 0 0 6.130372,41.656787 33.794981,33.794981 0 0 0 32.462923,74.530781 l -2.724057,53.223089 a 26.806632,26.806632 0 0 0 -24.4897465,26.6414 26.806632,26.806632 0 0 0 26.8061215,26.80613 26.806632,26.806632 0 0 0 0.127657,-0.008 l 16.539948,65.81182 A 26.806632,26.806632 0 0 0 36.03117,269.7631 26.806632,26.806632 0 0 0 62.837291,296.56922 26.806632,26.806632 0 0 0 89.23367,274.20848 l 92.11966,-6.80087 a 33.794981,33.794981 0 0 0 33.27344,28.15888 33.794981,33.794981 0 0 0 33.79436,-33.79232 33.794981,33.794981 0 0 0 -15.91195,-28.66744 l 17.67241,-42.7572 a 33.794981,33.794981 0 0 0 5.68078,0.53328 33.794981,33.794981 0 0 0 33.79436,-33.79437 33.794981,33.794981 0 0 0 -25.22687,-32.68457 l 6.64646,-59.951894 a 26.806632,26.806632 0 0 0 26.75463,-26.802003 26.806632,26.806632 0 0 0 -26.80611,-26.80818 26.806632,26.806632 0 0 0 -26.39227,22.34015 l -37.07435,5.00337 A 33.794981,33.794981 0 0 0 175.12073,13.841756 33.794981,33.794981 0 0 0 141.89465,41.788563 L 73.507028,37.946469 A 33.794981,33.794981 0 0 0 39.924738,7.8624199 Z m 0,10.7006231 A 23.094928,23.094928 0 0 1 63.020542,41.656787 23.094928,23.094928 0 0 1 39.924738,64.75259 23.094928,23.094928 0 0 1 16.830994,41.656787 23.094928,23.094928 0 0 1 39.924738,18.563043 Z m 231.100102,1.916929 a 17.168917,17.168917 0 0 1 17.17,17.170001 17.168917,17.168917 0 0 1 -17.17,17.167942 17.168917,17.168917 0 0 1 -17.16795,-17.167942 17.168917,17.168917 0 0 1 17.16795,-17.170001 z m -95.90411,4.062407 a 23.094928,23.094928 0 0 1 23.09581,23.095803 23.094928,23.094928 0 0 1 -23.09581,23.093744 23.094928,23.094928 0 0 1 -23.0958,-23.093744 23.094928,23.094928 0 0 1 23.0958,-23.095803 z M 244.9929,43.77138 a 26.806632,26.806632 0 0 0 15.71017,18.563943 l -6.77411,61.096707 a 33.794981,33.794981 0 0 0 -15.8543,4.96219 L 200.03875,70.390131 a 33.794981,33.794981 0 0 0 8.80428,-21.740981 z m -172.054155,4.700697 68.721185,3.862684 a 33.794981,33.794981 0 0 0 20.5097,26.447855 l -19.75199,66.351274 a 26.806632,26.806632 0 0 0 -6.45291,-0.7886 26.806632,26.806632 0 0 0 -10.77268,2.28549 L 65.487223,63.756034 A 33.794981,33.794981 0 0 0 72.938745,48.472077 Z M 57.378881,70.534262 116.58542,152.71719 a 26.806632,26.806632 0 0 0 -5.35546,8.23806 L 58.752235,152.02124 A 26.806632,26.806632 0 0 0 40.239766,128.87602 l 2.742587,-53.643121 a 33.794981,33.794981 0 0 0 14.396528,-4.698637 z m 134.364159,6.432316 38.28505,58.385002 a 33.794981,33.794981 0 0 0 -7.90656,20.98738 l -60.8311,6.04318 a 26.806632,26.806632 0 0 0 -9.23667,-12.66903 l 20.3841,-68.472048 a 33.794981,33.794981 0 0 0 2.68287,0.191487 33.794981,33.794981 0 0 0 16.62231,-4.465971 z m 64.11933,57.028122 a 23.094928,23.094928 0 0 1 23.09579,23.09374 23.094928,23.094928 0 0 1 -23.09579,23.0958 23.094928,23.094928 0 0 1 -23.09375,-23.0958 23.094928,23.094928 0 0 1 23.09375,-23.09374 z m -223.807129,3.23057 a 17.168917,17.168917 0 0 1 17.17,17.17 17.168917,17.168917 0 0 1 -17.17,17.16794 17.168917,17.168917 0 0 1 -17.167943,-17.16794 17.168917,17.168917 0 0 1 17.167943,-17.17 z m 103.909489,16.7582 a 17.168917,17.168917 0 0 1 17.17,17.17001 17.168917,17.168917 0 0 1 -17.17,17.16793 17.168917,17.168917 0 0 1 -17.16794,-17.16793 17.168917,17.168917 0 0 1 17.16794,-17.17001 z m -78.398479,8.52838 51.602659,8.78781 a 26.806632,26.806632 0 0 0 6.12759,16.8591 l -42.567774,56.69662 a 26.806632,26.806632 0 0 0 -9.891435,-1.90046 26.806632,26.806632 0 0 0 -4.175653,0.35209 L 42.510843,179.03327 a 26.806632,26.806632 0 0 0 15.055408,-16.52142 z m 165.940989,4.28272 a 33.794981,33.794981 0 0 0 16.67996,20.14114 l -17.38002,42.0489 a 33.794981,33.794981 0 0 0 -8.18041,-1.00686 33.794981,33.794981 0 0 0 -18.00596,5.21957 l -40.55612,-44.33233 a 26.806632,26.806632 0 0 0 6.58468,-16.02314 z M 123.48925,194.8052 a 26.806632,26.806632 0 0 0 12.47548,3.15439 26.806632,26.806632 0 0 0 11.65601,-2.70758 l 41.0791,44.90473 a 33.794981,33.794981 0 0 0 -7.50093,16.69231 l -92.265854,6.81118 A 26.806632,26.806632 0 0 0 81.588603,250.6144 Z m 91.13752,43.87318 a 23.094928,23.094928 0 0 1 23.09374,23.09579 23.094928,23.094928 0 0 1 -23.09374,23.09376 23.094928,23.094928 0 0 1 -23.0958,-23.09376 23.094928,23.094928 0 0 1 23.0958,-23.09579 z M 62.837291,252.5931 a 17.168917,17.168917 0 0 1 17.17,17.17 17.168917,17.168917 0 0 1 -17.17,17.16795 17.168917,17.168917 0 0 1 -17.167943,-17.16795 17.168917,17.168917 0 0 1 17.167943,-17.17 z" />
  </g>
</svg>
