<?xml version="1.0" encoding="UTF-8" standalone="no"?>
<!-- Created with Inkscape (http://www.inkscape.org/) -->

<svg
   width="300"
   height="300"
   viewBox="0 0 300 300"
   version="1.1"
   id="svg5"
   inkscape:version="1.1.1 (3bf5ae0, 2021-09-20)"
   sodipodi:docname="global-icons.svg"
   xmlns:inkscape="http://www.inkscape.org/namespaces/inkscape"
   xmlns:sodipodi="http://sodipodi.sourceforge.net/DTD/sodipodi-0.dtd"
   xmlns:xlink="http://www.w3.org/1999/xlink"
   xmlns="http://www.w3.org/2000/svg"
   xmlns:svg="http://www.w3.org/2000/svg">
  <sodipodi:namedview
     id="namedview7"
     pagecolor="#ffffff"
     bordercolor="#666666"
     borderopacity="1.0"
     inkscape:pageshadow="2"
     inkscape:pageopacity="0.0"
     inkscape:pagecheckerboard="0"
     inkscape:document-units="px"
     showgrid="false"
     inkscape:zoom="0.46433346"
     inkscape:cx="-76.453676"
     inkscape:cy="243.35959"
     inkscape:window-width="1024"
     inkscape:window-height="545"
     inkscape:window-x="0"
     inkscape:window-y="27"
     inkscape:window-maximized="1"
     inkscape:current-layer="layer1" />
  <defs
     id="defs2">
    <linearGradient
       inkscape:collect="always"
       id="linearGradient3816">
      <stop
         style="stop-color:#1066dc;stop-opacity:1"
         offset="0"
         id="stop3812" />
      <stop
         style="stop-color:#00ff5f;stop-opacity:1"
         offset="1"
         id="stop3814" />
    </linearGradient>
    <inkscape:path-effect
       effect="spiro"
       id="path-effect2304"
       is_visible="true"
       lpeversion="1" />
    <inkscape:path-effect
       effect="spiro"
       id="path-effect1929"
       is_visible="true"
       lpeversion="1" />
    <inkscape:path-effect
       effect="spiro"
       id="path-effect1669"
       is_visible="true"
       lpeversion="1" />
    <inkscape:path-effect
       effect="spiro"
       id="path-effect1470"
       is_visible="true"
       lpeversion="1" />
    <linearGradient
       inkscape:collect="always"
       xlink:href="#linearGradient3816"
       id="linearGradient3818"
       x1="0"
       y1="8"
       x2="16"
       y2="8"
       gradientUnits="userSpaceOnUse" />
  </defs>
  <g
     inkscape:label="Capa 1"
     inkscape:groupmode="layer"
     id="layer1">
    <g
       style="fill:url(#linearGradient3818);fill-opacity:1"
       id="g6106"
       transform="matrix(16.45928,0,0,16.45928,18.325759,18.325759)">
      <path
         d="M 0,8 A 8,8 0 1 1 16,8 8,8 0 0 1 0,8 Z M 7.5,1.077 C 6.83,1.281 6.165,1.897 5.613,2.932 A 7.97,7.97 0 0 0 5.145,4 H 7.5 Z M 4.09,4 A 9.267,9.267 0 0 1 4.73,2.461 6.7,6.7 0 0 1 5.327,1.528 7.025,7.025 0 0 0 2.255,4 Z M 3.508,7.5 C 3.538,6.623 3.646,5.782 3.82,5 H 1.674 A 6.958,6.958 0 0 0 1.018,7.5 Z M 4.847,5 A 12.5,12.5 0 0 0 4.509,7.5 H 7.5 V 5 Z M 8.5,5 v 2.5 h 2.99 A 12.495,12.495 0 0 0 11.153,5 Z M 4.51,8.5 A 12.5,12.5 0 0 0 4.847,11 H 7.5 V 8.5 Z m 3.99,0 V 11 h 2.653 C 11.34,10.235 11.459,9.392 11.491,8.5 Z M 5.145,12 c 0.138,0.386 0.295,0.744 0.468,1.068 0.552,1.035 1.218,1.65 1.887,1.855 V 12 Z m 0.182,2.472 A 6.696,6.696 0 0 1 4.73,13.539 9.268,9.268 0 0 1 4.09,12 H 2.255 a 7.024,7.024 0 0 0 3.072,2.472 z M 3.82,11 A 13.652,13.652 0 0 1 3.508,8.5 H 1.018 C 1.08,9.39 1.309,10.233 1.674,11 Z m 6.853,3.472 A 7.024,7.024 0 0 0 13.745,12 H 11.91 a 9.27,9.27 0 0 1 -0.64,1.539 6.688,6.688 0 0 1 -0.597,0.933 z M 8.5,12 v 2.923 c 0.67,-0.204 1.335,-0.82 1.887,-1.855 0.173,-0.324 0.33,-0.682 0.468,-1.068 z m 3.68,-1 h 2.146 c 0.365,-0.767 0.594,-1.61 0.656,-2.5 h -2.49 A 13.65,13.65 0 0 1 12.18,11 Z M 14.982,7.5 A 6.959,6.959 0 0 0 14.326,5 H 12.18 c 0.174,0.782 0.282,1.623 0.312,2.5 z M 11.27,2.461 c 0.247,0.464 0.462,0.98 0.64,1.539 h 1.835 A 7.024,7.024 0 0 0 10.673,1.528 c 0.218,0.284 0.418,0.598 0.597,0.933 z M 10.855,4 A 7.966,7.966 0 0 0 10.387,2.932 C 9.835,1.897 9.17,1.282 8.5,1.077 V 4 Z"
         id="path6097"
         style="fill-opacity:1;fill:url(#linearGradient3818)" />
    </g>
  </g>
</svg>
