<?xml version="1.0" encoding="UTF-8" standalone="no"?>
<!-- Created with Inkscape (http://www.inkscape.org/) -->

<svg
   width="1080"
   height="230"
   viewBox="0 0 1080 230"
   version="1.1"
   id="svg5"
   inkscape:version="1.1.1 (3bf5ae0, 2021-09-20)"
   sodipodi:docname="bolicoin-imagotipo-black.svg"
   xmlns:inkscape="http://www.inkscape.org/namespaces/inkscape"
   xmlns:sodipodi="http://sodipodi.sourceforge.net/DTD/sodipodi-0.dtd"
   xmlns:xlink="http://www.w3.org/1999/xlink"
   xmlns="http://www.w3.org/2000/svg"
   xmlns:svg="http://www.w3.org/2000/svg"
   xmlns:rdf="http://www.w3.org/1999/02/22-rdf-syntax-ns#"
   xmlns:cc="http://creativecommons.org/ns#"
   xmlns:dc="http://purl.org/dc/elements/1.1/">
  <sodipodi:namedview
     id="namedview7"
     pagecolor="#ffffff"
     bordercolor="#666666"
     borderopacity="1.0"
     inkscape:pageshadow="2"
     inkscape:pageopacity="0.0"
     inkscape:pagecheckerboard="0"
     inkscape:document-units="px"
     showgrid="false"
     inkscape:zoom="0.72962962"
     inkscape:cx="542.05585"
     inkscape:cy="111.01523"
     inkscape:window-width="1024"
     inkscape:window-height="545"
     inkscape:window-x="0"
     inkscape:window-y="27"
     inkscape:window-maximized="1"
     inkscape:current-layer="g46228" />
  <defs
     id="defs2">
    <linearGradient
       inkscape:collect="always"
       id="linearGradient63042">
      <stop
         style="stop-color:#00ff5f;stop-opacity:1"
         offset="0"
         id="stop63036" />
      <stop
         style="stop-color:#00a4b9;stop-opacity:1"
         offset="0.63172817"
         id="stop63038" />
      <stop
         style="stop-color:#1066dc;stop-opacity:1"
         offset="1"
         id="stop63040" />
    </linearGradient>
    <linearGradient
       inkscape:collect="always"
       id="linearGradient1080">
      <stop
         style="stop-color:#ff0000;stop-opacity:0"
         offset="0"
         id="stop1076" />
      <stop
         style="stop-color:#000000;stop-opacity:0.8"
         offset="1"
         id="stop1078" />
    </linearGradient>
    <linearGradient
       inkscape:collect="always"
       id="linearGradient5005">
      <stop
         style="stop-color:#ff0000;stop-opacity:0"
         offset="0"
         id="stop5001" />
      <stop
         style="stop-color:#000000;stop-opacity:0.302"
         offset="1"
         id="stop5003" />
    </linearGradient>
    <linearGradient
       inkscape:collect="always"
       xlink:href="#linearGradient1080"
       id="linearGradient209"
       gradientUnits="userSpaceOnUse"
       gradientTransform="matrix(0.30916821,0,0,0.30916821,142.28171,396.19404)"
       x1="481.9119"
       y1="412.84576"
       x2="531.29987"
       y2="363.45779" />
    <linearGradient
       inkscape:collect="always"
       xlink:href="#linearGradient1080"
       id="linearGradient211"
       gradientUnits="userSpaceOnUse"
       gradientTransform="matrix(0,-0.30916821,0.30916821,0,131.75674,597.22165)"
       x1="481.9119"
       y1="412.84576"
       x2="531.29987"
       y2="363.45779" />
    <linearGradient
       inkscape:collect="always"
       xlink:href="#linearGradient5005"
       id="linearGradient213"
       gradientUnits="userSpaceOnUse"
       gradientTransform="matrix(0.30916821,0,0,0.30916821,142.28174,396.19405)"
       x1="481.9119"
       y1="412.84576"
       x2="531.29987"
       y2="363.45779" />
    <linearGradient
       inkscape:collect="always"
       xlink:href="#linearGradient1080"
       id="linearGradient215"
       gradientUnits="userSpaceOnUse"
       gradientTransform="matrix(0.30916821,0,0,0.30916821,142.28234,263.768)"
       x1="481.9119"
       y1="412.84576"
       x2="531.29987"
       y2="363.45779" />
    <linearGradient
       inkscape:collect="always"
       xlink:href="#linearGradient63042"
       id="linearGradient63034"
       gradientUnits="userSpaceOnUse"
       gradientTransform="matrix(0.30916821,0,0,0.30916821,125.72907,263.7681)"
       x1="432.38007"
       y1="334.54413"
       x2="432.38007"
       y2="787.92328" />
    <linearGradient
       inkscape:collect="always"
       xlink:href="#linearGradient63042"
       id="linearGradient65"
       gradientUnits="userSpaceOnUse"
       gradientTransform="matrix(0.30916821,0,0,0.30916821,125.72907,263.7681)"
       x1="432.38007"
       y1="334.54413"
       x2="432.38007"
       y2="787.92328" />
  </defs>
  <g
     inkscape:label="Capa 1"
     inkscape:groupmode="layer"
     id="layer1">
    <g
       id="g63581"
       transform="matrix(0.30624256,0,0,0.30624256,-576.86346,120.27063)" />
    <g
       id="g46228"
       transform="matrix(0.71415875,0,0,0.71415947,-120.55958,-196.2)">
      <path
         id="path197"
         style="font-variation-settings:normal;vector-effect:none;fill:url(#linearGradient65);fill-opacity:1;stroke:none;stroke-width:0.267055;stroke-linecap:butt;stroke-linejoin:miter;stroke-miterlimit:4;stroke-dasharray:none;stroke-dashoffset:0;stroke-opacity:1;-inkscape-stroke:none;stop-color:#000000"
         d="m 171.32059,278.5012 v 16.55318 16.55318 16.55317 16.55319 16.55318 16.55378 16.55318 16.55318 16.55318 16.55318 16.55317 16.55321 16.55317 16.55378 16.55317 16.55318 16.5532 16.55317 16.55318 h 16.5532 16.55318 V 576.45965 559.90648 543.35328 526.8001 510.24693 493.69315 477.13998 460.58677 444.0336 427.48042 410.92724 394.37406 377.82088 361.2671 344.71392 328.16073 311.60756 295.05438 278.5012 h -16.55318 z" />
      <path
         id="path199"
         style="font-variation-settings:normal;vector-effect:none;fill:url(#linearGradient63034);fill-opacity:1;stroke:none;stroke-width:0.267055;stroke-linecap:butt;stroke-linejoin:miter;stroke-miterlimit:4;stroke-dasharray:none;stroke-dashoffset:0;stroke-opacity:1;-inkscape-stroke:none;stop-color:#000000"
         inkscape:transform-center-x="-7.6469331"
         inkscape:transform-center-y="-7.4461392e-06"
         d="m 237.53332,278.5012 v 16.55318 16.55318 16.55317 l 16.5532,16.55319 16.55318,16.55318 8.27749,8.27749 -8.27629,8.27629 v 6e-4 16.55258 16.55318 0 -16.55317 -16.55318 l -16.55318,16.55318 -16.55317,16.55318 v 0 16.55317 16.55321 16.55317 l 16.55317,16.55318 16.55318,16.55317 8.27749,8.27689 -8.27689,8.27689 -16.55317,16.5532 -16.55318,16.55318 v 16.55317 16.55317 16.55318 l 16.55318,-16.55318 16.55317,-16.55317 16.55378,-16.55317 16.55257,-16.55318 v 0 -16.5526 -16.55378 -16.55317 L 287.19468,460.5874 270.6415,444.03423 v 16.55317 0 -16.55317 l -8.27629,-8.27629 8.27689,-8.27692 v 0 l 16.55318,-16.55316 16.55257,-16.55318 v -6e-4 -16.55258 -16.55378 -16.55319 L 287.19468,328.16135 270.6415,311.60818 v 16.55317 0 -16.55321 l -16.55323,-16.55318 z" />
      <path
         id="path201"
         style="fill:url(#linearGradient215);fill-opacity:1;stroke-width:0.267055;stop-color:#000000"
         inkscape:transform-center-x="-9.3446385"
         d="m 278.91719,369.54459 -8.27689,8.27629 8.27689,8.27689 8.27628,8.27629 8.27689,8.27689 8.27629,-8.27689 -8.27689,-8.27689 z" />
      <path
         id="path203"
         style="fill:url(#linearGradient213);fill-opacity:1;stroke-width:0.267055;stop-color:#000000"
         inkscape:transform-center-x="-9.3446385"
         d="m 278.91658,501.97064 -8.27688,8.27629 8.27688,8.27688 8.27629,8.27629 8.27689,8.27689 8.27629,-8.27689 -8.27689,-8.27689 z" />
      <path
         id="path205"
         style="fill:url(#linearGradient211);fill-opacity:1;stroke-width:0.267055;stop-color:#000000"
         inkscape:transform-center-x="-3.4999999e-06"
         d="m 237.53335,460.5868 8.27628,8.27689 8.27689,-8.27689 8.27629,-8.27629 8.27689,-8.27688 -8.27689,-8.27629 -8.27689,8.27689 z"
         inkscape:transform-center-y="-9.344635" />
      <path
         id="path207"
         style="fill:url(#linearGradient209);fill-opacity:1;stroke-width:0.267055;stop-color:#000000"
         inkscape:transform-center-x="-9.3446385"
         d="m 278.91658,501.97064 -8.27688,8.27629 8.27688,8.27688 8.27629,8.27629 8.27689,8.27689 8.27629,-8.27689 -8.27689,-8.27689 z" />
      <g
         aria-label="bolicoin"
         id="text553"
         style="font-size:326.746px;font-family:Orbitron;-inkscape-font-specification:Orbitron;letter-spacing:0px;word-spacing:0px;stroke-width:6.80722">
        <path
           d="m 369.96063,561.55426 v 0 -251.59442 h 26.79317 v 62.08174 h 126.77745 q 10.78262,0 19.60476,5.55468 9.14889,5.22794 14.37682,14.37683 5.55469,8.82214 5.55469,19.60476 v 110.44014 q 0,10.78262 -5.55469,19.93151 -5.22793,8.82214 -14.37682,14.37682 -8.82214,5.22794 -19.60476,5.22794 z m 39.86301,-26.79317 h 113.70761 q 5.22794,0 8.82214,-3.59421 3.92095,-3.92095 3.92095,-9.14889 V 411.57785 q 0,-5.22794 -3.92095,-8.82215 -3.5942,-3.92095 -8.82214,-3.92095 H 409.82364 q -5.22793,0 -9.14889,3.92095 -3.92095,3.59421 -3.92095,8.82215 v 110.44014 q 0,5.22794 3.92095,9.14889 3.92096,3.59421 9.14889,3.59421 z"
           id="path536" />
        <path
           d="m 626.45619,561.55426 q -10.78262,0 -19.93151,-5.22794 -8.82214,-5.55468 -14.37682,-14.37682 -5.22794,-9.14889 -5.22794,-19.93151 V 411.57785 q 0,-10.78262 5.22794,-19.60476 5.55468,-9.14889 14.37682,-14.37683 9.14889,-5.55468 19.93151,-5.55468 H 740.1638 q 11.10936,0 19.9315,5.55468 9.14889,5.22794 14.37683,14.37683 5.55468,8.82214 5.55468,19.60476 v 110.44014 q 0,10.78262 -5.55468,19.93151 -5.22794,8.82214 -14.37683,14.37682 -8.82214,5.22794 -19.9315,5.22794 H 626.45619 Z m 0,-26.79317 H 740.1638 q 5.22793,0 8.82214,-3.59421 3.92095,-3.92095 3.92095,-9.14889 V 411.57785 q 0,-5.22794 -3.92095,-8.82215 -3.59421,-3.92095 -8.82214,-3.92095 H 626.45619 q -5.22794,0 -9.14889,3.92095 -3.59421,3.59421 -3.59421,8.82215 v 110.44014 q 0,5.22794 3.59421,9.14889 3.92095,3.59421 9.14889,3.59421 z"
           id="path538" />
        <path
           d="m 846.35592,561.55426 q -10.78262,0 -19.93151,-5.22794 -8.82214,-5.55468 -14.37682,-14.37682 -5.22794,-9.14889 -5.22794,-19.93151 V 309.95984 h 26.79317 v 212.05815 q 0,5.22794 3.59421,9.14889 3.92095,3.59421 9.14889,3.59421 h 32.0211 v 26.79317 h -32.0211 z"
           id="path540" />
        <path
           d="m 905.49635,561.55426 v 0 -189.51268 h 26.79317 v 189.51268 z m 0,-224.80125 v 0 -26.79317 h 26.79317 v 26.79317 z"
           id="path542" />
        <path
           d="m 1007.7668,561.55426 q -10.78258,0 -19.93147,-5.22794 -8.82214,-5.55468 -14.37682,-14.37682 -5.22794,-9.14889 -5.22794,-19.93151 V 411.57785 q 0,-10.78262 5.22794,-19.60476 5.55468,-9.14889 14.37682,-14.37683 9.14889,-5.55468 19.93147,-5.55468 h 152.9172 v 26.79317 h -152.9172 q -5.2279,0 -9.14885,3.92095 -3.5942,3.59421 -3.5942,8.82215 v 110.44014 q 0,5.22794 3.5942,9.14889 3.92095,3.59421 9.14885,3.59421 h 153.5707 v 26.79317 h -153.5707 z"
           id="path544" />
        <path
           d="m 1234.8552,561.55426 q -10.7826,0 -19.9315,-5.22794 -8.8221,-5.55468 -14.3768,-14.37682 -5.2279,-9.14889 -5.2279,-19.93151 V 411.57785 q 0,-10.78262 5.2279,-19.60476 5.5547,-9.14889 14.3768,-14.37683 9.1489,-5.55468 19.9315,-5.55468 h 113.7076 q 11.1094,0 19.9315,5.55468 9.1489,5.22794 14.3769,14.37683 5.5546,8.82214 5.5546,19.60476 v 110.44014 q 0,10.78262 -5.5546,19.93151 -5.228,8.82214 -14.3769,14.37682 -8.8221,5.22794 -19.9315,5.22794 h -113.7076 z m 0,-26.79317 h 113.7076 q 5.228,0 8.8222,-3.59421 3.9209,-3.92095 3.9209,-9.14889 V 411.57785 q 0,-5.22794 -3.9209,-8.82215 -3.5942,-3.92095 -8.8222,-3.92095 h -113.7076 q -5.2279,0 -9.1489,3.92095 -3.5942,3.59421 -3.5942,8.82215 v 110.44014 q 0,5.22794 3.5942,9.14889 3.921,3.59421 9.1489,3.59421 z"
           id="path546" />
        <path
           d="m 1421.7538,561.55426 v 0 -189.51268 h 26.7932 v 189.51268 z m 0,-224.80125 v 0 -26.79317 h 26.7932 v 26.79317 z"
           id="path548" />
        <path
           d="m 1485.4682,561.55426 v 0 -189.51268 h 153.5706 q 10.7826,0 19.6048,5.55468 9.1489,5.22794 14.3768,14.37683 5.5547,8.82214 5.5547,19.60476 v 149.97641 h -26.7932 V 411.57785 q 0,-5.22794 -3.9209,-8.82215 -3.5942,-3.92095 -8.8222,-3.92095 h -113.7076 q -5.2279,0 -9.1489,3.92095 -3.9209,3.59421 -3.9209,8.82215 v 149.97641 z"
           id="path550" />
      </g>
    </g>
  </g>
  <metadata
     id="metadata743">
    <rdf:RDF>
      <cc:Work
         rdf:about="">
        <dc:date>2021-01-06</dc:date>
        <dc:creator>
          <cc:Agent>
            <dc:title>Johan Rojas</dc:title>
          </cc:Agent>
        </dc:creator>
        <dc:publisher>
          <cc:Agent>
            <dc:title>Inkscape</dc:title>
          </cc:Agent>
        </dc:publisher>
      </cc:Work>
    </rdf:RDF>
  </metadata>
</svg>
