<?xml version="1.0" encoding="UTF-8" standalone="no"?>
<!-- Created with Inkscape (http://www.inkscape.org/) -->

<svg
   width="1080"
   height="1080"
   viewBox="0 0 1080 1080"
   version="1.1"
   id="svg5"
   inkscape:version="1.1.1 (3bf5ae0, 2021-09-20)"
   sodipodi:docname="logo-bolicoin.svg"
   xmlns:inkscape="http://www.inkscape.org/namespaces/inkscape"
   xmlns:sodipodi="http://sodipodi.sourceforge.net/DTD/sodipodi-0.dtd"
   xmlns:xlink="http://www.w3.org/1999/xlink"
   xmlns="http://www.w3.org/2000/svg"
   xmlns:svg="http://www.w3.org/2000/svg">
  <sodipodi:namedview
     id="namedview7"
     pagecolor="#ffffff"
     bordercolor="#666666"
     borderopacity="1.0"
     inkscape:pageshadow="2"
     inkscape:pageopacity="0.0"
     inkscape:pagecheckerboard="0"
     inkscape:document-units="px"
     showgrid="false"
     inkscape:zoom="0.36481482"
     inkscape:cx="793.55329"
     inkscape:cy="370.05076"
     inkscape:window-width="1024"
     inkscape:window-height="545"
     inkscape:window-x="0"
     inkscape:window-y="27"
     inkscape:window-maximized="1"
     inkscape:current-layer="layer1" />
  <defs
     id="defs2">
    <linearGradient
       inkscape:collect="always"
       id="linearGradient63042">
      <stop
         style="stop-color:#00ff5f;stop-opacity:1"
         offset="0"
         id="stop63036" />
      <stop
         style="stop-color:#00a4b9;stop-opacity:1"
         offset="0.63172817"
         id="stop63038" />
      <stop
         style="stop-color:#1066dc;stop-opacity:1"
         offset="1"
         id="stop63040" />
    </linearGradient>
    <linearGradient
       inkscape:collect="always"
       id="linearGradient1080">
      <stop
         style="stop-color:#ff0000;stop-opacity:0"
         offset="0"
         id="stop1076" />
      <stop
         style="stop-color:#000000;stop-opacity:0.8"
         offset="1"
         id="stop1078" />
    </linearGradient>
    <linearGradient
       inkscape:collect="always"
       id="linearGradient5005">
      <stop
         style="stop-color:#ff0000;stop-opacity:0"
         offset="0"
         id="stop5001" />
      <stop
         style="stop-color:#000000;stop-opacity:0.302"
         offset="1"
         id="stop5003" />
    </linearGradient>
    <linearGradient
       inkscape:collect="always"
       xlink:href="#linearGradient1080"
       id="linearGradient209"
       gradientUnits="userSpaceOnUse"
       gradientTransform="matrix(1.0279898,0,0,1.0279898,2356.6536,921.49884)"
       x1="481.9119"
       y1="412.84576"
       x2="531.29987"
       y2="363.45779" />
    <linearGradient
       inkscape:collect="always"
       xlink:href="#linearGradient1080"
       id="linearGradient211"
       gradientUnits="userSpaceOnUse"
       gradientTransform="matrix(0,-1.0279898,1.0279898,0,2321.6579,1589.9192)"
       x1="481.9119"
       y1="412.84576"
       x2="531.29987"
       y2="363.45779" />
    <linearGradient
       inkscape:collect="always"
       xlink:href="#linearGradient5005"
       id="linearGradient213"
       gradientUnits="userSpaceOnUse"
       gradientTransform="matrix(1.0279898,0,0,1.0279898,2356.6537,921.49885)"
       x1="481.9119"
       y1="412.84576"
       x2="531.29987"
       y2="363.45779" />
    <linearGradient
       inkscape:collect="always"
       xlink:href="#linearGradient1080"
       id="linearGradient215"
       gradientUnits="userSpaceOnUse"
       gradientTransform="matrix(1.0279898,0,0,1.0279898,2356.6557,481.17989)"
       x1="481.9119"
       y1="412.84576"
       x2="531.29987"
       y2="363.45779" />
    <linearGradient
       inkscape:collect="always"
       xlink:href="#linearGradient63042"
       id="linearGradient63034"
       gradientUnits="userSpaceOnUse"
       gradientTransform="matrix(1.0279898,0,0,1.0279898,2301.6158,481.1802)"
       x1="432.38007"
       y1="334.54413"
       x2="432.38007"
       y2="787.92328" />
    <linearGradient
       inkscape:collect="always"
       xlink:href="#linearGradient63042"
       id="linearGradient63583"
       gradientUnits="userSpaceOnUse"
       gradientTransform="matrix(1.0279898,0,0,1.0279898,2301.6158,481.1802)"
       x1="432.38007"
       y1="334.54413"
       x2="432.38007"
       y2="787.92328" />
  </defs>
  <g
     inkscape:label="Capa 1"
     inkscape:groupmode="layer"
     id="layer1">
    <g
       id="g63581"
       transform="translate(-2133.3699,-513.04642)">
      <path
         id="path197"
         style="font-variation-settings:normal;vector-effect:none;fill:url(#linearGradient63583);fill-opacity:1;stroke:none;stroke-width:0.887963;stroke-linecap:butt;stroke-linejoin:miter;stroke-miterlimit:4;stroke-dasharray:none;stroke-dashoffset:0;stroke-opacity:1;-inkscape-stroke:none;stop-color:#000000"
         d="m 2453.2084,530.16803 v 55.03961 55.03962 55.03961 55.03963 55.03962 55.04162 55.03962 55.03962 55.03962 55.0396 55.0396 55.0397 55.0396 55.0416 55.0396 55.0396 55.0397 55.0396 55.0396 h 55.0397 55.0396 v -55.0396 -55.0396 -55.0397 -55.0396 -55.0396 -55.0416 -55.0396 -55.0397 -55.0396 -55.0396 -55.03962 -55.03962 -55.03962 -55.04162 -55.03962 -55.03963 -55.03961 -55.03962 -55.03961 h -55.0396 z" />
      <path
         id="path199"
         style="font-variation-settings:normal;opacity:1;vector-effect:none;fill:url(#linearGradient63034);fill-opacity:1;stroke:none;stroke-width:0.887963;stroke-linecap:butt;stroke-linejoin:miter;stroke-miterlimit:4;stroke-dasharray:none;stroke-dashoffset:0;stroke-opacity:1;-inkscape-stroke:none;stop-color:#000000;stop-opacity:1"
         inkscape:transform-center-x="-7.6469331"
         inkscape:transform-center-y="-7.4461392e-06"
         d="m 2673.3669,530.16803 v 55.03961 55.03962 55.03961 l 55.0397,55.03963 55.0396,55.03962 27.5228,27.52281 -27.5188,27.51881 v 0.002 55.03761 55.03962 0 -55.03957 -55.03962 l -55.0396,55.03962 -55.0396,55.03962 v 0 55.03958 55.0397 55.0396 l 55.0396,55.0396 55.0396,55.0396 27.5228,27.5208 -27.5208,27.5208 -55.0396,55.0397 -55.0396,55.0396 v 55.0396 55.0396 55.0396 l 55.0396,-55.0396 55.0396,-55.0396 55.0416,-55.0396 55.0376,-55.0396 v 0 -55.0377 -55.0416 -55.0396 l -55.0396,-55.0396 -55.0396,-55.0396 v 55.0396 0 -55.0396 l -27.5188,-27.5188 27.5208,-27.5209 v 0 l 55.0396,-55.03957 55.0376,-55.03962 v -0.002 -55.03762 -55.04161 -55.03963 l -55.0396,-55.03962 -55.0396,-55.03961 v 55.03961 0 -55.03972 l -55.0398,-55.03962 z" />
      <path
         id="path201"
         style="fill:url(#linearGradient215);fill-opacity:1;stroke-width:0.887963;stop-color:#000000"
         inkscape:transform-center-x="-9.3446385"
         d="m 2810.969,832.88893 -27.5208,27.51881 27.5208,27.52081 27.5188,27.51881 27.5208,27.52081 27.5188,-27.52081 -27.5208,-27.52081 z" />
      <path
         id="path203"
         style="fill:url(#linearGradient213);fill-opacity:1;stroke-width:0.887963;stop-color:#000000"
         inkscape:transform-center-x="-9.3446385"
         d="m 2810.967,1273.2079 -27.5208,27.5188 27.5208,27.5208 27.5188,27.5188 27.5208,27.5208 27.5188,-27.5208 -27.5208,-27.5208 z" />
      <path
         id="path205"
         style="fill:url(#linearGradient211);fill-opacity:1;stroke-width:0.887963;stop-color:#000000"
         inkscape:transform-center-x="-3.4999999e-06"
         d="m 2673.367,1135.6059 27.5188,27.5208 27.5208,-27.5208 27.5188,-27.5188 27.5208,-27.5208 -27.5208,-27.5188 -27.5208,27.5208 z"
         inkscape:transform-center-y="-9.344635" />
      <path
         id="path207"
         style="fill:url(#linearGradient209);fill-opacity:1;stroke-width:0.887963;stop-color:#000000"
         inkscape:transform-center-x="-9.3446385"
         d="m 2810.967,1273.2079 -27.5208,27.5188 27.5208,27.5208 27.5188,27.5188 27.5208,27.5208 27.5188,-27.5208 -27.5208,-27.5208 z" />
    </g>
  </g>
</svg>
