<?xml version="1.0" encoding="UTF-8" standalone="no"?>
<!-- Created with Inkscape (http://www.inkscape.org/) -->

<svg
   width="135"
   height="135"
   viewBox="0 0 135 135"
   version="1.1"
   id="svg5"
   xml:space="preserve"
   inkscape:version="1.2.2 (732a01da63, 2022-12-09, custom)"
   sodipodi:docname="svg_version.svg"
   xmlns:inkscape="http://www.inkscape.org/namespaces/inkscape"
   xmlns:sodipodi="http://sodipodi.sourceforge.net/DTD/sodipodi-0.dtd"
   xmlns:xlink="http://www.w3.org/1999/xlink"
   xmlns="http://www.w3.org/2000/svg"
   xmlns:svg="http://www.w3.org/2000/svg"
   xmlns:rdf="http://www.w3.org/1999/02/22-rdf-syntax-ns#"
   xmlns:cc="http://creativecommons.org/ns#"><sodipodi:namedview
     id="namedview7"
     pagecolor="#ffffff"
     bordercolor="#666666"
     borderopacity="1.0"
     inkscape:showpageshadow="2"
     inkscape:pageopacity="0.0"
     inkscape:pagecheckerboard="0"
     inkscape:deskcolor="#d1d1d1"
     inkscape:document-units="px"
     showgrid="false"
     inkscape:zoom="0.99999999"
     inkscape:cx="-51"
     inkscape:cy="8.0000001"
     inkscape:window-width="1024"
     inkscape:window-height="545"
     inkscape:window-x="0"
     inkscape:window-y="27"
     inkscape:window-maximized="1"
     inkscape:current-layer="g9268" /><defs
     id="defs2"><linearGradient
       inkscape:collect="always"
       id="linearGradient2224"><stop
         style="stop-color:#f0b944;stop-opacity:1;"
         offset="0"
         id="stop2220" /><stop
         style="stop-color:#f7931e;stop-opacity:1;"
         offset="1"
         id="stop2222" /></linearGradient><linearGradient
       inkscape:collect="always"
       xlink:href="#linearGradient2224"
       id="linearGradient2226"
       x1="70.203957"
       y1="4.625742"
       x2="70.203957"
       y2="45.37426"
       gradientUnits="userSpaceOnUse" /></defs><g
     inkscape:label="Capa 1"
     inkscape:groupmode="layer"
     id="layer1"><g
       id="g9268"
       transform="matrix(1.2258715,0,0,1.2258715,-61.061029,-5.6467874)"><g
         id="g395"
         transform="matrix(2.7,0,0,2.7,-84.677513,-7.8637612)"><path
           style="fill:#f3a530;stroke:none;stroke-width:0.0306737"
           d="m 69.139867,4.6546312 c -1.321361,0.1734757 -2.622478,0.2553456 -3.926232,0.5812835 -3.551491,0.8878744 -6.806583,2.7687605 -9.416361,5.3269143 -1.739658,1.705243 -3.183097,3.814334 -4.167796,6.04152 -1.133059,2.562725 -1.744997,5.298235 -1.813583,8.097853 -0.163797,6.686035 3.281604,13.269436 8.772224,17.053648 1.977717,1.363139 4.180425,2.369236 6.502821,2.979949 2.586528,0.680035 5.301333,0.795368 7.944485,0.447836 C 83.136882,43.855157 91.026154,34.528639 90.579545,24.334118 90.458691,21.572259 89.824666,18.874447 88.669495,16.35896 86.087998,10.737056 80.805069,6.5054648 74.783825,5.1431115 73.36302,4.8216439 71.914578,4.6416121 70.458835,4.6416121 c -0.432039,0 -0.890488,-0.043236 -1.318968,0.013019 m -2.852653,7.8701179 -0.03067,24.937706 H 62.330309 V 12.524749 h 3.956905 M 78.618035,24.027381 H 68.188982 V 12.524749 h 3.772864 c 0.831655,0 1.677605,-0.06497 2.484568,0.175484 0.550317,0.163982 1.07272,0.42118 1.533684,0.764051 3.30644,2.459171 2.637937,6.955626 2.637937,10.563097 m 2.208506,1.932442 v 3.619495 c 0,0.91245 0.03159,1.833734 -0.166252,2.729958 -0.150301,0.680158 -0.402837,1.333446 -0.760124,1.932442 -0.897114,1.504237 -2.370739,2.614318 -4.073435,3.039762 -0.993735,0.248457 -2.021365,0.180975 -3.036695,0.180975 H 68.219656 V 25.959823 Z"
           id="path195" /><ellipse
           style="fill:url(#linearGradient2226);fill-opacity:1;stroke-width:2.01992;stroke-linecap:round;stroke-linejoin:round;stop-color:#000000"
           id="path282"
           cx="70.203957"
           cy="25"
           rx="20.393654"
           ry="20.374258" /><path
           id="path258"
           style="fill:#ffffff;fill-opacity:1;stroke-width:2.41195;stroke-linecap:round;stroke-linejoin:round;stop-color:#000000"
           d="m 73.212891,12.521484 c -0.416315,-0.01381 -0.836126,0.0039 -1.251953,0.0039 h -3.771485 v 11.501953 h 10.427735 c -10e-7,-3.607468 0.669717,-8.103332 -2.636719,-10.5625 -0.460964,-0.342871 -0.982887,-0.59969 -1.533203,-0.763672 -0.403481,-0.120227 -0.818061,-0.165873 -1.234375,-0.179688 z m -10.882813,0.0039 v 24.9375 h 3.925781 l 0.03125,-24.9375 z m 5.888672,13.433593 v 11.503907 h 4.570312 c 1.015329,0 2.043376,0.06682 3.03711,-0.181641 1.702694,-0.425444 3.177106,-1.534827 4.074219,-3.039062 0.357286,-0.598996 0.609464,-1.253437 0.759765,-1.933594 0.197842,-0.896223 0.166016,-1.816067 0.166016,-2.728516 v -3.621094 z" /></g></g></g><metadata
     id="metadata9418"><rdf:RDF><cc:Work
         rdf:about=""><cc:license
           rdf:resource="http://creativecommons.org/publicdomain/zero/1.0/" /></cc:Work><cc:License
         rdf:about="http://creativecommons.org/publicdomain/zero/1.0/"><cc:permits
           rdf:resource="http://creativecommons.org/ns#Reproduction" /><cc:permits
           rdf:resource="http://creativecommons.org/ns#Distribution" /><cc:permits
           rdf:resource="http://creativecommons.org/ns#DerivativeWorks" /></cc:License></rdf:RDF></metadata></svg>
