<?xml version="1.0" encoding="UTF-8" standalone="no"?>
<!-- Created with Inkscape (http://www.inkscape.org/) -->

<svg
   width="300"
   height="300"
   viewBox="0 0 300 300"
   version="1.1"
   id="svg5"
   inkscape:version="1.1.1 (3bf5ae0, 2021-09-20)"
   sodipodi:docname="desktop (copia).svg"
   xmlns:inkscape="http://www.inkscape.org/namespaces/inkscape"
   xmlns:sodipodi="http://sodipodi.sourceforge.net/DTD/sodipodi-0.dtd"
   xmlns:xlink="http://www.w3.org/1999/xlink"
   xmlns="http://www.w3.org/2000/svg"
   xmlns:svg="http://www.w3.org/2000/svg">
  <sodipodi:namedview
     id="namedview7"
     pagecolor="#ffffff"
     bordercolor="#666666"
     borderopacity="1.0"
     inkscape:pageshadow="2"
     inkscape:pageopacity="0.0"
     inkscape:pagecheckerboard="0"
     inkscape:document-units="px"
     showgrid="false"
     inkscape:zoom="1.3133334"
     inkscape:cx="230.32994"
     inkscape:cy="281.72587"
     inkscape:window-width="1024"
     inkscape:window-height="545"
     inkscape:window-x="0"
     inkscape:window-y="27"
     inkscape:window-maximized="1"
     inkscape:current-layer="layer1" />
  <defs
     id="defs2">
    <linearGradient
       inkscape:collect="always"
       id="linearGradient4446">
      <stop
         style="stop-color:#1066dc;stop-opacity:1"
         offset="0"
         id="stop4442" />
      <stop
         style="stop-color:#00ff5f;stop-opacity:1"
         offset="1"
         id="stop4444" />
    </linearGradient>
    <inkscape:path-effect
       effect="spiro"
       id="path-effect2304"
       is_visible="true"
       lpeversion="1" />
    <inkscape:path-effect
       effect="spiro"
       id="path-effect1929"
       is_visible="true"
       lpeversion="1" />
    <inkscape:path-effect
       effect="spiro"
       id="path-effect1669"
       is_visible="true"
       lpeversion="1" />
    <inkscape:path-effect
       effect="spiro"
       id="path-effect1470"
       is_visible="true"
       lpeversion="1" />
    <linearGradient
       inkscape:collect="always"
       xlink:href="#linearGradient4446"
       id="linearGradient4448"
       x1="401.71359"
       y1="87.775715"
       x2="581.21546"
       y2="87.775715"
       gradientUnits="userSpaceOnUse"
       gradientTransform="matrix(1.0305845,0,0,1.0305845,-356.49571,59.539714)" />
  </defs>
  <g
     inkscape:label="Capa 1"
     inkscape:groupmode="layer"
     id="layer1">
    <path
       d="M 214.74714,2.0065295 H 85.252856 c -15.319628,0 -27.748775,12.4291375 -27.748775,27.7487735 V 270.24471 c 0,15.31963 12.429147,27.74876 27.748775,27.74876 H 214.74714 c 15.31964,0 27.74878,-12.42913 27.74878,-27.74876 V 29.755303 c 0,-15.319636 -12.42914,-27.7487735 -27.74878,-27.7487735 z M 150,279.49429 c -10.23236,0 -18.49918,-8.26681 -18.49918,-18.49918 0,-10.23235 8.26682,-18.49919 18.49918,-18.49919 10.23235,0 18.49919,8.26684 18.49919,18.49919 0,10.23237 -8.26683,18.49918 -18.49919,18.49918 z m 64.74714,-62.43474 c 0,3.81545 -3.12174,6.93719 -6.9372,6.93719 H 92.19006 c -3.815461,0 -6.937204,-3.12174 -6.937204,-6.93719 V 36.692496 c 0,-3.815457 3.121743,-6.937193 6.937204,-6.937193 h 115.61988 c 3.81546,0 6.9372,3.121736 6.9372,6.937193 z"
       id="path4327"
       style="fill:url(#linearGradient4448);fill-opacity:1;stroke-width:0.5781" />
  </g>
</svg>
