<?xml version="1.0" encoding="UTF-8" standalone="no"?>
<!-- Created with Inkscape (http://www.inkscape.org/) -->

<svg
   width="300"
   height="300"
   viewBox="0 0 300 300"
   version="1.1"
   id="svg5"
   inkscape:version="1.1.1 (3bf5ae0, 2021-09-20)"
   sodipodi:docname="desktop (copia).svg"
   xmlns:inkscape="http://www.inkscape.org/namespaces/inkscape"
   xmlns:sodipodi="http://sodipodi.sourceforge.net/DTD/sodipodi-0.dtd"
   xmlns:xlink="http://www.w3.org/1999/xlink"
   xmlns="http://www.w3.org/2000/svg"
   xmlns:svg="http://www.w3.org/2000/svg">
  <sodipodi:namedview
     id="namedview7"
     pagecolor="#ffffff"
     bordercolor="#666666"
     borderopacity="1.0"
     inkscape:pageshadow="2"
     inkscape:pageopacity="0.0"
     inkscape:pagecheckerboard="0"
     inkscape:document-units="px"
     showgrid="false"
     inkscape:zoom="3.24"
     inkscape:cx="46.759259"
     inkscape:cy="149.07407"
     inkscape:window-width="1024"
     inkscape:window-height="545"
     inkscape:window-x="0"
     inkscape:window-y="27"
     inkscape:window-maximized="1"
     inkscape:current-layer="layer1" />
  <defs
     id="defs2">
    <linearGradient
       inkscape:collect="always"
       id="linearGradient5261">
      <stop
         style="stop-color:#1066dc;stop-opacity:1"
         offset="0"
         id="stop5257" />
      <stop
         style="stop-color:#00ff5f;stop-opacity:1"
         offset="1"
         id="stop5259" />
    </linearGradient>
    <inkscape:path-effect
       effect="spiro"
       id="path-effect2304"
       is_visible="true"
       lpeversion="1" />
    <inkscape:path-effect
       effect="spiro"
       id="path-effect1929"
       is_visible="true"
       lpeversion="1" />
    <inkscape:path-effect
       effect="spiro"
       id="path-effect1669"
       is_visible="true"
       lpeversion="1" />
    <inkscape:path-effect
       effect="spiro"
       id="path-effect1470"
       is_visible="true"
       lpeversion="1" />
    <linearGradient
       inkscape:collect="always"
       xlink:href="#linearGradient5261"
       id="linearGradient5263"
       x1="-315.06211"
       y1="237.34132"
       x2="1.9860585"
       y2="237.34132"
       gradientUnits="userSpaceOnUse"
       gradientTransform="matrix(0.94246631,0,0,0.94246631,297.53183,-73.686192)" />
  </defs>
  <g
     inkscape:label="Capa 1"
     inkscape:groupmode="layer"
     id="layer1">
    <path
       d="M 66.997998,100.1988 H 233.00201 v 99.6024 H 66.997998 Z M 274.50301,150 c 0,13.75239 11.1482,24.90059 24.90059,24.90059 v 49.80121 c 0,13.75239 -11.14819,24.9006 -24.90059,24.9006 H 25.496996 c -13.752392,0 -24.90059994,-11.14821 -24.90059994,-24.9006 V 174.90059 C 14.348789,174.90059 25.496996,163.75239 25.496996,150 c 0,-13.75239 -11.148207,-24.9006 -24.90059994,-24.9006 V 75.298192 C 0.59639606,61.5458 11.744604,50.397591 25.496996,50.397591 H 274.50301 c 13.7524,0 24.90059,11.148209 24.90059,24.900601 V 125.0994 c -13.75239,0 -24.90059,11.14821 -24.90059,24.9006 z M 249.6024,96.048698 c 0,-6.876196 -5.57409,-12.450301 -12.4503,-12.450301 H 62.847896 c -6.876197,0 -12.450301,5.574105 -12.450301,12.450301 V 203.9513 c 0,6.8762 5.574104,12.45031 12.450301,12.45031 H 237.1521 c 6.87621,0 12.4503,-5.57411 12.4503,-12.45031 z"
       id="path5191"
       style="fill:url(#linearGradient5263);fill-opacity:1;stroke-width:0.518762" />
  </g>
</svg>
