<?xml version="1.0" encoding="UTF-8" standalone="no"?>
<!-- Created with Inkscape (http://www.inkscape.org/) -->

<svg
   width="1000"
   height="1000"
   viewBox="0 0 1000 1000"
   version="1.1"
   id="svg5"
   inkscape:version="1.1.1 (3bf5ae0, 2021-09-20)"
   sodipodi:docname="boli-podio.svg"
   xmlns:inkscape="http://www.inkscape.org/namespaces/inkscape"
   xmlns:sodipodi="http://sodipodi.sourceforge.net/DTD/sodipodi-0.dtd"
   xmlns:xlink="http://www.w3.org/1999/xlink"
   xmlns="http://www.w3.org/2000/svg"
   xmlns:svg="http://www.w3.org/2000/svg">
  <sodipodi:namedview
     id="namedview7"
     pagecolor="#ffffff"
     bordercolor="#666666"
     borderopacity="1.0"
     inkscape:pageshadow="2"
     inkscape:pageopacity="0.0"
     inkscape:pagecheckerboard="0"
     inkscape:document-units="px"
     showgrid="false"
     showguides="true"
     inkscape:guide-bbox="true"
     inkscape:zoom="0.70710678"
     inkscape:cx="362.74578"
     inkscape:cy="216.37468"
     inkscape:window-width="1024"
     inkscape:window-height="545"
     inkscape:window-x="0"
     inkscape:window-y="27"
     inkscape:window-maximized="1"
     inkscape:current-layer="layer1" />
  <defs
     id="defs2">
    <linearGradient
       inkscape:collect="always"
       id="linearGradient14654">
      <stop
         style="stop-color:#efbc47;stop-opacity:1"
         offset="0"
         id="stop14650" />
      <stop
         style="stop-color:#f78e19;stop-opacity:1"
         offset="1"
         id="stop14652" />
    </linearGradient>
    <linearGradient
       inkscape:collect="always"
       id="linearGradient35001">
      <stop
         style="stop-color:#b9b9b9;stop-opacity:1"
         offset="0"
         id="stop34997" />
      <stop
         style="stop-color:#fafafa;stop-opacity:1"
         offset="0.5"
         id="stop35197" />
      <stop
         style="stop-color:#b9b9b9;stop-opacity:1"
         offset="1"
         id="stop34999" />
    </linearGradient>
    <linearGradient
       inkscape:collect="always"
       id="linearGradient19025">
      <stop
         style="stop-color:#b2b2b2;stop-opacity:1"
         offset="0"
         id="stop19021" />
      <stop
         style="stop-color:#e9e9e9;stop-opacity:1"
         offset="0.5"
         id="stop19221" />
      <stop
         style="stop-color:#b2b2b2;stop-opacity:1"
         offset="1"
         id="stop19023" />
    </linearGradient>
    <linearGradient
       inkscape:collect="always"
       xlink:href="#linearGradient19025"
       id="linearGradient19027"
       x1="539.78741"
       y1="908.71472"
       x2="1374.5553"
       y2="908.71472"
       gradientUnits="userSpaceOnUse"
       gradientTransform="translate(-470.674,-124.99775)" />
    <linearGradient
       inkscape:collect="always"
       xlink:href="#linearGradient35001"
       id="linearGradient35003"
       x1="610.22662"
       y1="967.68799"
       x2="1310.9227"
       y2="967.68799"
       gradientUnits="userSpaceOnUse"
       gradientTransform="translate(-470.674,-124.99775)" />
    <filter
       inkscape:collect="always"
       style="color-interpolation-filters:sRGB"
       id="filter55486"
       x="-0.013872557"
       y="-0.50268595"
       width="1.0277451"
       height="2.0053719">
      <feGaussianBlur
         inkscape:collect="always"
         stdDeviation="4.0518075"
         id="feGaussianBlur55488" />
    </filter>
    <filter
       inkscape:collect="always"
       style="color-interpolation-filters:sRGB"
       id="filter66490"
       x="-0.034934057"
       y="-0.69108767"
       width="1.0698681"
       height="2.3821753">
      <feGaussianBlur
         inkscape:collect="always"
         stdDeviation="13.405469"
         id="feGaussianBlur66492" />
    </filter>
    <linearGradient
       inkscape:collect="always"
       xlink:href="#linearGradient14654"
       id="linearGradient14656"
       x1="262.72937"
       y1="530.90015"
       x2="262.72937"
       y2="664.14233"
       gradientUnits="userSpaceOnUse"
       gradientTransform="translate(0.64838541)" />
  </defs>
  <g
     inkscape:label="Capa 1"
     inkscape:groupmode="layer"
     id="layer1"
     style="opacity:1">
    <ellipse
       style="fill:#4d4d4d;fill-opacity:1;stroke:none;stroke-width:26.1658;stroke-miterlimit:4;stroke-dasharray:none;stroke-opacity:1;filter:url(#filter66490);stop-color:#000000"
       id="path66293"
       cx="500"
       cy="865.1604"
       rx="460.48367"
       ry="23.277166" />
    <circle
       style="fill:none;stroke:#f7911c;stroke-width:20;stroke-miterlimit:4;stroke-dasharray:none;stroke-opacity:1;stop-color:#000000"
       id="path3190"
       cx="489.32599"
       cy="500"
       r="359.96472" />
    <path
       id="path3148"
       style="fill:url(#linearGradient35003);fill-opacity:1;stroke-width:6.13373;stop-color:#000000"
       d="M 137.07588,775.402 H 841.5761 v 77.55314 c 0,29.01351 -704.50022,29.01351 -704.50022,0 z"
       sodipodi:nodetypes="ccccc" />
    <path
       id="path54623"
       style="opacity:0.25;fill:#000000;fill-opacity:1;stroke-width:6.13373;filter:url(#filter55486);stop-color:#000000"
       d="m 138.83772,813.11553 c 36.86597,25.79301 664.11058,25.79301 700.97658,0 -158.8317,9.0374 -542.14493,9.0374 -700.97658,0 z" />
    <path
       id="rect417"
       style="fill:url(#linearGradient19027);fill-opacity:1;stroke-width:5.81378;stop-color:#000000"
       d="M 67.90889,745.32848 H 910.7431 v 58.23784 c 0,21.78744 -842.83421,21.78744 -842.83421,0 z"
       sodipodi:nodetypes="ccccc" />
    <ellipse
       style="fill:#ffffff;fill-opacity:1;stroke:none;stroke-width:2.12945;-inkscape-stroke:none;stop-color:#000000"
       id="path45"
       cx="489.32599"
       cy="745.39246"
       rx="421.41714"
       ry="22.745466" />
    <g
       aria-label="2015"
       id="text63892"
       style="font-size:50.6119px;line-height:1.25;font-family:Poppins;-inkscape-font-specification:'Poppins, Normal';letter-spacing:0px;word-spacing:0px;fill:#4d4d4d;stroke-width:3.7959">
      <path
         d="m 434.69051,806.19202 q 1.7208,-1.36652 1.56897,-1.26529 4.95996,-4.09957 7.79423,-6.73139 2.88488,-2.63181 4.85874,-5.51669 1.97387,-2.88488 1.97387,-5.61792 0,-2.07509 -0.96163,-3.23917 -0.96163,-1.16407 -2.88488,-1.16407 -1.92325,0 -3.03671,1.46775 -1.06285,1.41713 -1.06285,4.04895 h -8.35097 q 0.10123,-4.30201 1.82203,-7.18689 1.77142,-2.88488 4.60569,-4.2514 2.88487,-1.36652 6.3771,-1.36652 6.02281,0 9.05953,3.08732 3.08732,3.08733 3.08732,8.04729 0,5.41548 -3.69467,10.07177 -3.69467,4.60569 -9.41381,9.00892 h 13.66521 v 7.03506 h -25.40717 z"
         style="font-weight:bold;-inkscape-font-specification:'Poppins Bold'"
         id="path44755" />
      <path
         d="m 463.89353,794.14639 q 0,-8.70524 3.34039,-13.71582 3.39099,-5.01058 10.88155,-5.01058 7.49057,0 10.83095,5.01058 3.391,5.01058 3.391,13.71582 0,8.80647 -3.391,13.81705 -3.34038,5.01058 -10.83095,5.01058 -7.49056,0 -10.88155,-5.01058 -3.34039,-5.01058 -3.34039,-13.81705 z m 19.94109,0 q 0,-5.1118 -1.11346,-7.84484 -1.11346,-2.78366 -4.60569,-2.78366 -3.49222,0 -4.60568,2.78366 -1.11346,2.73304 -1.11346,7.84484 0,3.44161 0.4049,5.71915 0.40489,2.22692 1.61958,3.64405 1.26529,1.36652 3.69466,1.36652 2.42938,0 3.64406,-1.36652 1.2653,-1.41713 1.67019,-3.64405 0.4049,-2.27754 0.4049,-5.71915 z"
         style="font-weight:bold;-inkscape-font-specification:'Poppins Bold'"
         id="path44757" />
      <path
         d="m 495.9814,784.22646 v -8.04729 h 14.01949 v 36.94668 h -9.00891 v -28.89939 z"
         style="font-weight:bold;-inkscape-font-specification:'Poppins Bold'"
         id="path44759" />
      <path
         d="m 541.93698,783.72034 h -15.79091 v 6.98444 q 1.01224,-1.11346 2.83426,-1.82203 1.82203,-0.70856 3.94773,-0.70856 3.79589,0 6.27588,1.7208 2.53059,1.72081 3.69467,4.45385 1.16407,2.73304 1.16407,5.92159 0,5.92159 -3.34039,9.41382 -3.34038,3.4416 -9.41381,3.4416 -4.04895,0 -7.03505,-1.36652 -2.98611,-1.41713 -4.60569,-3.89711 -1.61958,-2.47999 -1.77141,-5.71915 h 8.45218 q 0.30368,1.56897 1.46775,2.63182 1.16407,1.01224 3.18855,1.01224 2.37876,0 3.54283,-1.51836 1.16408,-1.51836 1.16408,-4.04895 0,-2.47998 -1.21469,-3.79589 -1.21468,-1.31591 -3.54283,-1.31591 -1.72081,0 -2.83427,0.8604 -1.11346,0.80979 -1.46774,2.17631 h -8.35097 v -22.01617 h 23.63576 z"
         style="font-weight:bold;-inkscape-font-specification:'Poppins Bold'"
         id="path44761" />
    </g>
    <path
       id="circle66803"
       style="fill:#ffffff;fill-opacity:1;stroke:none;stroke-width:30.1571;stroke-miterlimit:4;stroke-dasharray:none;stroke-opacity:1;stop-color:#000000"
       d="m 406.61425,318.45537 v 24.5586 a 82.960892,82.960892 0 0 0 -19.76367,8.26562 l -17.42188,-17.42187 -30.44531,30.44531 17.42187,17.42188 a 82.960892,82.960892 0 0 0 -8.26562,19.76367 h -24.55859 v 43.05469 h 24.55859 a 82.960892,82.960892 0 0 0 8.26562,19.76367 l -17.42187,17.42187 30.44531,30.44532 17.42188,-17.42188 a 82.960892,82.960892 0 0 0 19.76367,8.26562 v 24.5586 h 43.05469 v -24.46484 a 82.960892,82.960892 0 0 0 19.88672,-8.23633 l 17.29882,17.29883 30.44536,-30.44532 -17.29887,-17.29883 a 82.960892,82.960892 0 0 0 8.23633,-19.88671 h 24.4648 v -43.05469 h -24.4648 a 82.960892,82.960892 0 0 0 -8.23633,-19.88672 l 17.29887,-17.29883 -30.44536,-30.44531 -17.29882,17.29883 a 82.960892,82.960892 0 0 0 -19.88672,-8.23633 v -24.46485 z m 21.52734,62.85547 a 41.705643,41.705643 0 0 1 41.70508,41.70508 41.705643,41.705643 0 0 1 -41.70508,41.70508 41.705643,41.705643 0 0 1 -41.70507,-41.70508 41.705643,41.705643 0 0 1 41.70507,-41.70508 z" />
    <path
       id="path66980"
       style="fill:#ffffff;fill-opacity:1;stroke:none;stroke-width:17.7439;stroke-miterlimit:4;stroke-dasharray:none;stroke-opacity:1;stop-color:#000000"
       d="m 492.86161,184.09663 -3.66423,14.24573 a 47.8251,49.82079 0 0 0 -12.23836,1.72279 l -7.1017,-12.81379 -21.49555,12.92833 7.10171,12.8138 a 47.8251,49.82079 0 0 0 -7.55139,10.1796 l -13.67508,-3.81713 -6.4239,24.97477 13.67507,3.81712 a 47.8251,49.82079 0 0 0 1.65378,12.74906 l -12.30051,7.39804 12.41046,22.39254 12.3005,-7.39805 a 47.8251,49.82079 0 0 0 9.77185,7.8665 l -3.66423,14.24573 23.97434,6.69196 3.65024,-14.19134 a 47.8251,49.82079 0 0 0 12.30251,-1.68666 l 7.05154,12.72328 21.49554,-12.92833 -7.05146,-12.72328 a 47.8251,49.82079 0 0 0 7.55336,-10.25556 l 13.6228,3.80256 6.424,-24.97477 -13.6229,-3.80256 a 47.8251,49.82079 0 0 0 -1.6191,-12.81584 l 12.2136,-7.34581 -12.4105,-22.39254 -12.21356,7.34581 a 47.8251,49.82079 0 0 0 -9.84473,-7.86865 l 3.65022,-14.19134 z m 2.60892,39.80661 a 24.042371,25.045634 0 0 1 17.00029,30.6741 24.042371,25.045634 0 0 1 -29.44537,17.7097 24.042371,25.045634 0 0 1 -17.00029,-30.6741 24.042371,25.045634 0 0 1 29.44537,-17.7097 z" />
    <path
       id="path66982"
       style="fill:#ffffff;fill-opacity:1;stroke:none;stroke-width:17.7439;stroke-miterlimit:4;stroke-dasharray:none;stroke-opacity:1;stop-color:#000000"
       d="m 597.2496,290.18411 -3.6642,14.24573 a 47.8251,49.82079 0 0 0 -12.2384,1.72279 l -7.1017,-12.81379 -21.4956,12.92833 7.1018,12.8138 a 47.8251,49.82079 0 0 0 -7.5514,10.1796 l -13.6751,-3.81713 -6.4239,24.97477 13.6751,3.81712 a 47.8251,49.82079 0 0 0 1.6537,12.74906 l -12.3005,7.39804 12.4105,22.39254 12.3005,-7.39805 a 47.8251,49.82079 0 0 0 9.7718,7.8665 l -3.6642,14.24573 23.9743,6.69196 3.6503,-14.19134 a 47.8251,49.82079 0 0 0 12.3025,-1.68666 l 7.0515,12.72328 21.4956,-12.92833 -7.0515,-12.72328 a 47.8251,49.82079 0 0 0 7.5534,-10.25556 l 13.6228,3.80256 6.424,-24.97477 -13.6229,-3.80256 a 47.8251,49.82079 0 0 0 -1.6191,-12.81584 l 12.2136,-7.34581 -12.4105,-22.39254 -12.2136,7.34581 a 47.8251,49.82079 0 0 0 -9.8447,-7.86865 l 3.6502,-14.19134 z m 2.6089,39.80661 a 24.042371,25.045634 0 0 1 17.0003,30.6741 24.042371,25.045634 0 0 1 -29.4454,17.7097 24.042371,25.045634 0 0 1 -17.0003,-30.6741 24.042371,25.045634 0 0 1 29.4454,-17.7097 z" />
    <circle
       style="fill:url(#linearGradient14656);fill-opacity:1;stroke:none;stroke-width:2.25988;stop-color:#000000"
       id="path561"
       cx="260.94763"
       cy="598.99481"
       r="66.63781" />
    <path
       style="fill:#ffffff;stroke-width:0.068216"
       d="M 235.05805,598.99208 V 557.6873 h 6.51463 6.51461 v 41.30478 41.30478 h -6.51461 -6.51463 z m 19.44154,22.27526 v -19.035 h 20.83998 20.83999 l -7e-5,8.85102 c -7e-5,9.68827 0.002,9.62939 -0.409,11.68199 -1.74155,8.69808 -8.67616,15.5345 -17.40016,17.1538 -1.8595,0.34515 -1.39203,0.33226 -13.00732,0.35858 l -10.86342,0.0246 z m 0,-44.51367 V 557.6873 l 8.10065,10e-4 c 8.29441,0.002 9.58533,0.0333 10.89616,0.26884 4.48302,0.80558 8.53165,3.61622 11.38707,7.90517 2.05596,3.08809 3.27209,6.48482 3.83823,10.72041 0.10051,0.75195 0.11699,1.93873 0.13956,10.0448 l 0.0256,9.19211 h -17.19364 -17.19363 z"
       id="path295" />
    <g
       aria-label="Bolicoin"
       id="text2273"
       style="font-weight:bold;font-size:109.481px;line-height:1.25;font-family:Poppins;-inkscape-font-specification:'Poppins Bold';text-align:center;letter-spacing:0px;word-spacing:0px;text-anchor:middle;fill:#ffffff;stroke-width:6.84256">
      <path
         d="m 395.35715,602.99089 q 6.67834,1.42325 10.72914,6.67834 4.05079,5.14561 4.05079,11.82395 0,9.63433 -6.78782,15.32734 -6.67834,5.58353 -18.72125,5.58353 h -35.80029 v -76.85566 h 34.596 q 11.71447,0 18.28333,5.36457 6.67834,5.36457 6.67834,14.56097 0,6.78782 -3.61288,11.27654 -3.50339,4.48873 -9.41536,6.24042 z m -27.80818,-6.3499 h 12.26188 q 4.5982,0 7.00678,-1.97065 2.51806,-2.08014 2.51806,-6.02146 0,-3.94132 -2.51806,-6.02145 -2.40858,-2.08014 -7.00678,-2.08014 h -12.26188 z m 13.79461,30.65468 q 4.70768,0 7.22575,-2.08013 2.62754,-2.18962 2.62754,-6.24042 0,-4.0508 -2.73703,-6.3499 -2.62754,-2.2991 -7.33522,-2.2991 h -13.57565 v 16.96955 z"
         id="path43345" />
      <path
         d="m 448.78371,643.2799 q -8.97744,0 -16.20319,-3.83183 -7.11627,-3.83184 -11.27654,-10.9481 -4.0508,-7.11627 -4.0508,-16.64112 0,-9.41536 4.16028,-16.53163 4.16028,-7.22574 11.38602,-11.05758 7.22575,-3.83183 16.20319,-3.83183 8.97744,0 16.20319,3.83183 7.22574,3.83184 11.38602,11.05758 4.16028,7.11627 4.16028,16.53163 0,9.41537 -4.26976,16.64112 -4.16028,7.11626 -11.4955,10.9481 -7.22575,3.83183 -16.20319,3.83183 z m 0,-16.20319 q 5.36457,0 9.08692,-3.94131 3.83184,-3.94132 3.83184,-11.27655 0,-7.33522 -3.72236,-11.27654 -3.61287,-3.94132 -8.97744,-3.94132 -5.47405,0 -9.08692,3.94132 -3.61288,3.83183 -3.61288,11.27654 0,7.33523 3.5034,11.27655 3.61287,3.94131 8.97744,3.94131 z"
         id="path43347" />
      <path
         d="m 509.43609,561.38811 v 81.01594 h -18.72125 v -81.01594 z"
         id="path43349" />
      <path
         d="m 532.4269,574.96376 q -4.92665,0 -8.1016,-2.84651 -3.06547,-2.95599 -3.06547,-7.22575 0,-4.37924 3.06547,-7.22574 3.17495,-2.95599 8.1016,-2.95599 4.81716,0 7.88263,2.95599 3.17495,2.8465 3.17495,7.22574 0,4.26976 -3.17495,7.22575 -3.06547,2.84651 -7.88263,2.84651 z m 9.30588,6.34989 v 61.0904 h -18.72125 v -61.0904 z"
         id="path43351" />
      <path
         d="m 551.58587,611.85885 q 0,-9.52484 3.83183,-16.64111 3.94132,-7.11626 10.83862,-10.9481 7.00679,-3.83183 15.98423,-3.83183 11.4955,0 19.15917,6.02145 7.77315,6.02146 10.18174,16.96956 h -19.92555 q -2.51806,-7.00679 -9.74381,-7.00679 -5.1456,0 -8.21107,4.0508 -3.06547,3.94131 -3.06547,11.38602 0,7.44471 3.06547,11.49551 3.06547,3.94131 8.21107,3.94131 7.22575,0 9.74381,-7.00678 h 19.92555 q -2.40859,10.72914 -10.18174,16.86007 -7.77315,6.13094 -19.15917,6.13094 -8.97744,0 -15.98423,-3.83183 -6.8973,-3.83184 -10.83862,-10.9481 -3.83183,-7.11627 -3.83183,-16.64112 z"
         id="path43353" />
      <path
         d="m 649.35236,643.2799 q -8.97744,0 -16.20319,-3.83183 -7.11627,-3.83184 -11.27654,-10.9481 -4.0508,-7.11627 -4.0508,-16.64112 0,-9.41536 4.16028,-16.53163 4.16027,-7.22574 11.38602,-11.05758 7.22575,-3.83183 16.20319,-3.83183 8.97744,0 16.20319,3.83183 7.22574,3.83184 11.38602,11.05758 4.16028,7.11627 4.16028,16.53163 0,9.41537 -4.26976,16.64112 -4.16028,7.11626 -11.4955,10.9481 -7.22575,3.83183 -16.20319,3.83183 z m 0,-16.20319 q 5.36457,0 9.08692,-3.94131 3.83184,-3.94132 3.83184,-11.27655 0,-7.33522 -3.72236,-11.27654 -3.61287,-3.94132 -8.97744,-3.94132 -5.47405,0 -9.08692,3.94132 -3.61288,3.83183 -3.61288,11.27654 0,7.33523 3.5034,11.27655 3.61287,3.94131 8.97744,3.94131 z"
         id="path43355" />
      <path
         d="m 700.69884,574.96376 q -4.92665,0 -8.1016,-2.84651 -3.06546,-2.95599 -3.06546,-7.22575 0,-4.37924 3.06546,-7.22574 3.17495,-2.95599 8.1016,-2.95599 4.81716,0 7.88263,2.95599 3.17495,2.8465 3.17495,7.22574 0,4.26976 -3.17495,7.22575 -3.06547,2.84651 -7.88263,2.84651 z m 9.30588,6.34989 v 61.0904 h -18.72125 v -61.0904 z"
         id="path43357" />
      <path
         d="m 760.80373,580.65677 q 10.72914,0 17.07904,7.00678 6.45938,6.8973 6.45938,19.0497 v 35.6908 h -18.61177 v -33.17274 q 0,-6.13094 -3.17495,-9.52485 -3.17495,-3.39391 -8.53952,-3.39391 -5.36457,0 -8.53952,3.39391 -3.17495,3.39391 -3.17495,9.52485 v 33.17274 h -18.72125 v -61.0904 h 18.72125 v 8.1016 q 2.84651,-4.0508 7.66368,-6.3499 4.81716,-2.40858 10.83861,-2.40858 z"
         id="path43359" />
    </g>
  </g>
</svg>
