<?xml version="1.0" encoding="UTF-8" standalone="no"?>
<!-- Created with Inkscape (http://www.inkscape.org/) -->

<svg
   width="1080"
   height="1080"
   viewBox="0 0 1080 1080"
   version="1.1"
   id="svg5"
   inkscape:version="1.1.1 (3bf5ae0, 2021-09-20)"
   sodipodi:docname="bolicoin-red.svg"
   xmlns:inkscape="http://www.inkscape.org/namespaces/inkscape"
   xmlns:sodipodi="http://sodipodi.sourceforge.net/DTD/sodipodi-0.dtd"
   xmlns:xlink="http://www.w3.org/1999/xlink"
   xmlns="http://www.w3.org/2000/svg"
   xmlns:svg="http://www.w3.org/2000/svg">
  <sodipodi:namedview
     id="namedview7"
     pagecolor="#ffffff"
     bordercolor="#666666"
     borderopacity="1.0"
     inkscape:pageshadow="2"
     inkscape:pageopacity="0.0"
     inkscape:pagecheckerboard="0"
     inkscape:document-units="px"
     showgrid="false"
     inkscape:zoom="1.0318521"
     inkscape:cx="939.08807"
     inkscape:cy="1003.0507"
     inkscape:window-width="1024"
     inkscape:window-height="545"
     inkscape:window-x="0"
     inkscape:window-y="27"
     inkscape:window-maximized="1"
     inkscape:current-layer="layer1"
     showguides="true" />
  <defs
     id="defs2">
    <linearGradient
       inkscape:collect="always"
       id="linearGradient57229">
      <stop
         style="stop-color:#00ff5f;stop-opacity:1"
         offset="0"
         id="stop57225" />
      <stop
         style="stop-color:#1066dc;stop-opacity:1"
         offset="1"
         id="stop57227" />
    </linearGradient>
    <inkscape:path-effect
       effect="powerstroke"
       id="path-effect6457"
       is_visible="true"
       lpeversion="1"
       offset_points="1.9111502,13.628406"
       not_jump="true"
       sort_points="true"
       interpolator_type="CentripetalCatmullRom"
       interpolator_beta="0.75"
       start_linecap_type="round"
       linejoin_type="spiro"
       miter_limit="4"
       scale_width="1"
       end_linecap_type="round" />
    <inkscape:path-effect
       effect="simplify"
       id="path-effect6455"
       is_visible="true"
       lpeversion="1"
       steps="1"
       threshold="0.0032025118"
       smooth_angles="0"
       helper_size="0"
       simplify_individual_paths="false"
       simplify_just_coalesce="false"
       step="1" />
    <inkscape:path-effect
       effect="powerstroke"
       id="path-effect6450"
       is_visible="true"
       lpeversion="1"
       offset_points="2.1473145,13.628406"
       not_jump="true"
       sort_points="true"
       interpolator_type="CentripetalCatmullRom"
       interpolator_beta="0.75"
       start_linecap_type="round"
       linejoin_type="spiro"
       miter_limit="4"
       scale_width="1"
       end_linecap_type="round" />
    <inkscape:path-effect
       effect="simplify"
       id="path-effect6448"
       is_visible="true"
       lpeversion="1"
       steps="1"
       threshold="0.0032025118"
       smooth_angles="0"
       helper_size="0"
       simplify_individual_paths="false"
       simplify_just_coalesce="false"
       step="1" />
    <inkscape:path-effect
       effect="powerstroke"
       id="path-effect6443"
       is_visible="true"
       lpeversion="1"
       offset_points="0.3935937,13.628406"
       not_jump="true"
       sort_points="true"
       interpolator_type="CentripetalCatmullRom"
       interpolator_beta="0.75"
       start_linecap_type="round"
       linejoin_type="spiro"
       miter_limit="4"
       scale_width="1"
       end_linecap_type="round" />
    <inkscape:path-effect
       effect="simplify"
       id="path-effect6441"
       is_visible="true"
       lpeversion="1"
       steps="1"
       threshold="0.0032025118"
       smooth_angles="0"
       helper_size="0"
       simplify_individual_paths="false"
       simplify_just_coalesce="false"
       step="1" />
    <inkscape:path-effect
       effect="powerstroke"
       id="path-effect6434"
       is_visible="true"
       lpeversion="1"
       offset_points="2.5585865,13.628406"
       not_jump="true"
       sort_points="true"
       interpolator_type="CentripetalCatmullRom"
       interpolator_beta="0.75"
       start_linecap_type="round"
       linejoin_type="spiro"
       miter_limit="4"
       scale_width="1"
       end_linecap_type="round" />
    <inkscape:path-effect
       effect="simplify"
       id="path-effect6432"
       is_visible="true"
       lpeversion="1"
       steps="1"
       threshold="0.0032025118"
       smooth_angles="0"
       helper_size="0"
       simplify_individual_paths="false"
       simplify_just_coalesce="false"
       step="1" />
    <inkscape:path-effect
       effect="powerstroke"
       id="path-effect6427"
       is_visible="true"
       lpeversion="1"
       offset_points="1.0499005,13.628406"
       not_jump="true"
       sort_points="true"
       interpolator_type="CentripetalCatmullRom"
       interpolator_beta="0.75"
       start_linecap_type="round"
       linejoin_type="spiro"
       miter_limit="4"
       scale_width="1"
       end_linecap_type="round" />
    <inkscape:path-effect
       effect="simplify"
       id="path-effect6425"
       is_visible="true"
       lpeversion="1"
       steps="1"
       threshold="0.0032025118"
       smooth_angles="0"
       helper_size="0"
       simplify_individual_paths="false"
       simplify_just_coalesce="false"
       step="1" />
    <inkscape:path-effect
       effect="powerstroke"
       id="path-effect6289"
       is_visible="true"
       lpeversion="1"
       offset_points="0,18.8679"
       not_jump="false"
       sort_points="true"
       interpolator_type="CubicBezierJohan"
       interpolator_beta="0.2"
       start_linecap_type="zerowidth"
       linejoin_type="extrp_arc"
       miter_limit="4"
       scale_width="1"
       end_linecap_type="zerowidth" />
    <inkscape:path-effect
       effect="powerstroke"
       id="path-effect6285"
       is_visible="true"
       lpeversion="1"
       offset_points="0,18.8679"
       not_jump="false"
       sort_points="true"
       interpolator_type="CubicBezierJohan"
       interpolator_beta="0.2"
       start_linecap_type="zerowidth"
       linejoin_type="extrp_arc"
       miter_limit="4"
       scale_width="1"
       end_linecap_type="zerowidth" />
    <inkscape:path-effect
       effect="powerstroke"
       id="path-effect6279"
       is_visible="true"
       lpeversion="1"
       offset_points="0,18.8679"
       not_jump="false"
       sort_points="true"
       interpolator_type="CubicBezierJohan"
       interpolator_beta="0.2"
       start_linecap_type="zerowidth"
       linejoin_type="extrp_arc"
       miter_limit="4"
       scale_width="1"
       end_linecap_type="zerowidth" />
    <inkscape:path-effect
       effect="powerstroke"
       id="path-effect6273"
       is_visible="true"
       lpeversion="1"
       offset_points="0,18.8679"
       not_jump="false"
       sort_points="true"
       interpolator_type="CubicBezierJohan"
       interpolator_beta="0.2"
       start_linecap_type="zerowidth"
       linejoin_type="extrp_arc"
       miter_limit="4"
       scale_width="1"
       end_linecap_type="zerowidth" />
    <linearGradient
       inkscape:collect="always"
       id="linearGradient63042">
      <stop
         style="stop-color:#00ff5f;stop-opacity:1"
         offset="0"
         id="stop63036" />
      <stop
         style="stop-color:#00a4b9;stop-opacity:1"
         offset="0.63172817"
         id="stop63038" />
      <stop
         style="stop-color:#1066dc;stop-opacity:1"
         offset="1"
         id="stop63040" />
    </linearGradient>
    <linearGradient
       inkscape:collect="always"
       id="linearGradient1080">
      <stop
         style="stop-color:#ff0000;stop-opacity:0"
         offset="0"
         id="stop1076" />
      <stop
         style="stop-color:#000000;stop-opacity:0.8"
         offset="1"
         id="stop1078" />
    </linearGradient>
    <linearGradient
       inkscape:collect="always"
       id="linearGradient5005">
      <stop
         style="stop-color:#ff0000;stop-opacity:0"
         offset="0"
         id="stop5001" />
      <stop
         style="stop-color:#000000;stop-opacity:0.302"
         offset="1"
         id="stop5003" />
    </linearGradient>
    <linearGradient
       inkscape:collect="always"
       xlink:href="#linearGradient1080"
       id="linearGradient209"
       gradientUnits="userSpaceOnUse"
       gradientTransform="matrix(1.0279898,0,0,1.0279898,2356.6536,921.49884)"
       x1="481.9119"
       y1="412.84576"
       x2="531.29987"
       y2="363.45779" />
    <linearGradient
       inkscape:collect="always"
       xlink:href="#linearGradient1080"
       id="linearGradient211"
       gradientUnits="userSpaceOnUse"
       gradientTransform="matrix(0,-1.0279898,1.0279898,0,2321.6579,1589.9192)"
       x1="481.9119"
       y1="412.84576"
       x2="531.29987"
       y2="363.45779" />
    <linearGradient
       inkscape:collect="always"
       xlink:href="#linearGradient5005"
       id="linearGradient213"
       gradientUnits="userSpaceOnUse"
       gradientTransform="matrix(1.0279898,0,0,1.0279898,2356.6537,921.49885)"
       x1="481.9119"
       y1="412.84576"
       x2="531.29987"
       y2="363.45779" />
    <linearGradient
       inkscape:collect="always"
       xlink:href="#linearGradient1080"
       id="linearGradient215"
       gradientUnits="userSpaceOnUse"
       gradientTransform="matrix(1.0279898,0,0,1.0279898,2356.6557,481.17989)"
       x1="481.9119"
       y1="412.84576"
       x2="531.29987"
       y2="363.45779" />
    <linearGradient
       inkscape:collect="always"
       xlink:href="#linearGradient63042"
       id="linearGradient63034"
       gradientUnits="userSpaceOnUse"
       gradientTransform="matrix(1.0279898,0,0,1.0279898,2301.6158,481.1802)"
       x1="432.38007"
       y1="334.54413"
       x2="432.38007"
       y2="787.92328" />
    <linearGradient
       inkscape:collect="always"
       xlink:href="#linearGradient63042"
       id="linearGradient3280"
       gradientUnits="userSpaceOnUse"
       gradientTransform="matrix(1.0279898,0,0,1.0279898,2301.6158,481.1802)"
       x1="432.38007"
       y1="334.54413"
       x2="432.38007"
       y2="787.92328" />
    <linearGradient
       inkscape:collect="always"
       xlink:href="#linearGradient57229"
       id="linearGradient83556"
       x1="525.76941"
       y1="1028.736"
       x2="525.76941"
       y2="32.088158"
       gradientUnits="userSpaceOnUse" />
    <filter
       inkscape:collect="always"
       style="color-interpolation-filters:sRGB"
       id="filter90583"
       x="-0.047999999"
       y="-0.047999999"
       width="1.096"
       height="1.096">
      <feGaussianBlur
         inkscape:collect="always"
         stdDeviation="5.777608"
         id="feGaussianBlur90585" />
    </filter>
  </defs>
  <g
     inkscape:label="Capa 1"
     inkscape:groupmode="layer"
     id="layer1">
    <g
       id="path9124"
       style="fill:#008080;fill-opacity:1" />
    <g
       id="g274"
       transform="matrix(1.0582087,0,0,1.0582087,-16.373864,-21.286707)">
      <path
         id="path56868"
         style="color:#000000;fill:url(#linearGradient83556);fill-opacity:1;-inkscape-stroke:none"
         d="m 319.92341,350.30871 -2.81641,4.13282 98.77539,67.31836 2.81641,-4.13086 z m 383.14104,-144.54309 -2.74414,4.17969 187.43164,123.07813 2.74414,-4.17969 z M 889.12425,330.93435 701.69213,207.8557 M 97.341797,22.835938 a 71.235697,71.235697 0 0 0 -71.236328,71.234374 71.235697,71.235697 0 0 0 71.236328,71.236328 71.235697,71.235697 0 0 0 1.789062,-0.2793 l 11.156251,262.89649 a 71.235697,71.235697 0 0 0 -66.513672,70.82226 71.235697,71.235697 0 0 0 66.707032,70.51758 l -5.54492,120.95313 a 71.235697,71.235697 0 0 0 -71.080081,71.2207 71.235697,71.235697 0 0 0 71.236331,71.23633 71.235697,71.235697 0 0 0 14.62695,-1.53321 l 67.89063,67.88868 a 71.235697,71.235697 0 0 0 -46.55469,66.32812 71.235697,71.235697 0 0 0 71.23633,71.23438 71.235697,71.235697 0 0 0 71.23632,-71.23438 71.235697,71.235697 0 0 0 -0.0176,-0.10937 L 390.8125,946.20898 a 71.235697,71.235697 0 0 0 70.89062,66.41012 71.235697,71.235697 0 0 0 71.23438,-71.23629 71.235697,71.235697 0 0 0 -8.85742,-32.40234 l 95.08594,-37.3418 a 71.235697,71.235697 0 0 0 68.51171,57.53321 71.235697,71.235697 0 0 0 58.81641,-31.07227 l 101.90234,38.82031 a 71.235697,71.235697 0 0 0 -7.14062,29.83203 71.235697,71.235697 0 0 0 71.23437,71.23635 71.235697,71.235697 0 0 0 71.23633,-71.23635 71.235697,71.235697 0 0 0 -47.35937,-66.92968 l 3.99609,-96.1543 a 71.235697,71.235697 0 0 0 13.83594,2.74414 71.235697,71.235697 0 0 0 71.23438,-71.23633 71.235697,71.235697 0 0 0 -70.78126,-71.14453 l -14.35937,-234.6582 a 71.235697,71.235697 0 0 0 64.81053,-70.81446 71.235697,71.235697 0 0 0 -71.23631,-71.23437 71.235697,71.235697 0 0 0 -0.14453,0.01 l -9.04883,-100.03125 a 71.235697,71.235697 0 0 0 60.64844,-70.41211 71.235697,71.235697 0 0 0 -71.23633,-71.236323 71.235697,71.235697 0 0 0 -71.23438,71.236323 71.235697,71.235697 0 0 0 3.83789,22.625 l -130.98633,43.73829 a 71.235697,71.235697 0 0 0 -70.11132,-58.75 71.235697,71.235697 0 0 0 -68.61328,52.98828 L 431.0293,115.39258 A 71.235697,71.235697 0 0 0 433.23047,97.845703 71.235697,71.235697 0 0 0 361.99414,26.609375 71.235697,71.235697 0 0 0 291.3457,93.382812 L 168.5332,92.265625 A 71.235697,71.235697 0 0 0 97.341797,22.835938 Z m 0,24.802734 c 4.732023,0 8.896853,2.300542 11.544923,5.804687 h 26.18164 c 1.60335,0 2.90234,1.298994 2.90234,2.902344 v 5.802735 c 0,1.60334 -1.29899,2.902343 -2.90234,2.902343 h -23.50781 c -0.94857,4.67401 -4.14996,8.518426 -8.41407,10.384766 v 53.458983 h 31.92188 c 1.60335,0 2.90234,1.29897 2.90234,2.90235 v 5.80468 c 0,1.60334 -1.29899,2.90039 -2.90234,2.90039 H 59.617188 c -1.60335,0 -2.902344,-1.29705 -2.902344,-2.90039 v -5.80468 c 0,-1.60335 1.298993,-2.90235 2.902344,-2.90235 H 91.539062 V 75.435547 C 87.273112,73.569207 84.07357,69.722971 83.125,65.050781 H 59.617188 c -1.60335,0 -2.902344,-1.299003 -2.902344,-2.902343 v -5.802735 c 0,-1.60335 1.298993,-2.902344 2.902344,-2.902344 h 26.183593 c 2.64808,-3.504145 6.808946,-5.804687 11.541016,-5.804687 z m 264.650393,5.226562 h 0.004 c 25.03372,0 44.98047,15.897195 44.98047,40.626954 0,13.747822 -7.50869,26.736332 -27.26172,26.736332 -5.45884,0 -11.09718,6e-5 -12.82422,-6.18555 -3.19619,4.11645 -8.70736,6.95312 -13.60156,6.95312 -10.74007,0 -17.41211,-7.35886 -17.41211,-19.20312 0,-16.183343 11.47125,-27.468751 24.99805,-27.468751 3.54097,0 8.21321,0.702459 10.87891,3.949219 v -0.01758 a 2.4518138,2.4518138 0 0 1 2.43554,-2.175781 h 8.15821 c 2.73562,0 4.79322,2.495711 4.27343,5.181641 l -4.25,21.964842 c -0.62284,3.11365 -0.70131,5.363 2.44532,5.44532 6.72476,-0.71663 10.54882,-8.14491 10.54882,-15.179693 0,-18.569229 -15.21041,-29.019532 -33.37304,-29.019532 -18.40185,0 -33.3711,14.971198 -33.3711,33.373047 0,18.401858 14.96925,33.373048 33.3711,33.373048 6.40506,0 12.68255,-1.85851 18.03125,-5.28906 1.84896,-1.18584 4.30007,-0.76995 5.6914,0.92969 l 1.84375,2.25585 c 1.64567,2.01034 1.17153,4.99857 -1.00586,6.41602 -7.26691,4.73084 -15.82666,7.29492 -24.56054,7.29492 -24.86293,0 -44.98047,-20.12155 -44.98047,-44.980468 0,-24.862919 20.12156,-44.980469 44.98047,-44.980469 z m 551.51562,17.597657 c 15.3787,0.23035 29.83298,7.879223 38.66602,20.464843 v 0.0039 c 1.382,1.96612 0.90555,4.68044 -1.06055,6.0625 -1.9697,1.37666 -4.6822,0.90723 -6.0625,-1.0625 -7.23504,-10.30751 -19.07342,-16.56905 -31.66992,-16.75586 -10.2186,-0.14694 -19.75506,3.636588 -26.78516,10.673828 -6.73256,6.73627 -10.35952,15.688808 -10.20898,25.210938 l -0.0293,4.28711 c -0.0689,2.35786 -2.00431,4.22656 -4.34765,4.22656 -0.0437,0 -0.087,0.001 -0.12891,-0.006 -2.40317,-0.0689 -4.2934,-2.07528 -4.22266,-4.47852 l 0.0215,-3.89453 c -0.18864,-11.89994 4.34361,-23.086607 12.7539,-31.507807 8.70776,-8.71139 20.41612,-13.376999 33.07422,-13.224609 z M 62.519531,70.853516 c 3.09265,0.002 6.184517,1.60631 7.785157,4.80664 15.668869,31.337814 15.425781,29.985284 15.425781,32.919924 h 0.0039 c 0,8.0131 -10.395461,14.50976 -23.216797,14.50976 -12.82133,0 -23.216797,-6.49666 -23.216797,-14.50976 h 0.0059 c 0,-2.84213 -0.377462,-1.31368 15.423828,-32.919924 1.60335,-3.20669 4.696412,-4.80822 7.789062,-4.80664 z m 69.648439,0 c 3.09265,0.002 6.1845,1.60631 7.78515,4.80664 15.66887,31.337814 15.42579,29.985284 15.42579,32.919924 h 0.004 c 0,8.0131 -10.39545,14.50976 -23.21679,14.50976 -12.82134,0 -23.2168,-6.49666 -23.2168,-14.50976 h 0.006 c 0,-2.84213 -0.3775,-1.31368 15.42383,-32.919924 1.60334,-3.20669 4.69641,-4.80822 7.78906,-4.80664 z m -69.650392,8.707031 -13.05664,26.117183 h 26.117187 z m 69.648442,0 -13.0586,26.117183 h 26.11914 z m 781.56445,5.792969 c 18.3352,0.27207 33.48067,15.067834 33.76367,32.978514 a 168.50734,168.50734 0 0 1 -1.06836,21.73828 c -0.194,1.67409 -1.78767,4.18183 -4.82031,3.82813 -2.3869,-0.27207 -4.10023,-2.43158 -3.82813,-4.82032 0.7799,-6.80518 1.11872,-13.73896 1.01172,-20.60937 -0.2086,-13.25487 -11.50845,-24.203193 -25.18945,-24.408203 -2.0913,-0.0145 -4.16367,0.196472 -6.16797,0.669922 -2.3378,0.54406 -4.68328,-0.898368 -5.23828,-3.236328 -0.5514,-2.3415 0.89452,-4.685275 3.23242,-5.240235 2.7042,-0.6403 5.50969,-0.97473 8.30469,-0.90039 z m -551.57813,2.140625 c -5.0515,0 -10.63476,5.030806 -10.63476,13.191409 0,4.56122 2.50763,7.39453 6.54297,7.39453 4.40487,0 10.54882,-5.01856 10.54883,-13.191408 0,-4.63038 -2.41386,-7.394531 -6.45704,-7.394531 z m 529.36524,8.208984 c 0.8344,0.0742 1.65682,0.387818 2.35742,0.955078 1.8645,1.51808 2.14731,4.258547 0.63281,6.123047 -3.4098,4.18794 -5.16332,9.26611 -5.07812,14.68555 0.1161,7.37651 -0.48497,14.78193 -1.78907,22.00781 -0.1488,0.82531 -1.40922,4.14648 -5.05664,3.51172 -2.36692,-0.42807 -3.93609,-2.69357 -3.51171,-5.06055 1.20432,-6.67085 1.75927,-13.50429 1.65234,-20.32031 -0.11613,-7.38556 2.38051,-14.6031 7.02734,-20.316408 0.951,-1.165317 2.37503,-1.709527 3.76563,-1.585937 z m -723.16797,1.560547 122.47851,1.115234 a 71.235697,71.235697 0 0 0 56.82227,68.429684 l -45.55664,87.91016 a 71.235697,71.235697 0 0 0 -37.23828,-10.52539 71.235697,71.235697 0 0 0 -58.93359,31.39453 l -96.93946,-112.0957 a 71.235697,71.235697 0 0 0 59.36719,-66.228518 z m 745.60156,2.982418 c 10.333,0.15233 18.8698,8.51023 19.0293,18.63086 0.1433,9.23194 -0.54312,18.51569 -2.04492,27.58985 -0.1396,0.84706 -1.37996,4.18801 -5.00196,3.58398 -2.3705,-0.39174 -3.97953,-2.6332 -3.58593,-5.00195 1.4147,-8.56446 2.06538,-17.32008 1.92578,-26.03516 -0.085,-5.46476 -4.77247,-9.97524 -10.45117,-10.06055 -6.2629,-0.0272 -9.9493,4.78555 -9.875,9.49219 0.1451,9.32994 -0.73203,18.66891 -2.60743,27.75391 -0.4879,2.35423 -2.77557,3.86514 -5.14257,3.38086 -2.3524,-0.4843 -3.86876,-2.78833 -3.38086,-5.14258 1.7448,-8.45923 2.55992,-17.16037 2.42382,-25.85547 -0.1541,-9.79779 7.60004,-18.34889 18.71094,-18.33594 z m 41.19336,3.7168 c 2.0381,-0.0366 3.85079,1.36756 4.30469,3.41797 1.13,5.1202 1.09129,9.09829 1.05859,13.12109 -0.02,2.39234 -1.96667,4.31641 -4.35547,4.31641 h -0.0351 c -2.4032,-0.0199 -4.33651,-1.98181 -4.31641,-4.38867 0.038,-4.38742 -0.002,-7.28865 -0.85351,-11.17188 -0.5187,-2.34879 0.9655,-4.67074 3.3125,-5.18945 0.2969,-0.0665 0.59366,-0.10026 0.88476,-0.10547 z m -41.03711,11.10742 c 2.405,0 4.35156,1.94833 4.35156,4.35157 0.2829,17.97597 -2.89365,32.033 -5.34765,40.72265 -0.5404,1.92257 -2.2867,3.17774 -4.1875,3.17774 -3.8034,0 -4.68856,-3.76628 -4.19336,-5.5293 3.5476,-12.63264 5.23219,-25.26683 5.02539,-38.37109 0,-2.40503 1.94836,-4.35157 4.35156,-4.35157 z m -484.50586,5.15039 146.25,62.22657 a 71.235697,71.235697 0 0 0 -1.49609,13.29296 71.235697,71.235697 0 0 0 3.02148,19.08399 L 331.8418,291.20898 a 71.235697,71.235697 0 0 0 -25.5586,-33.70507 l 46.57032,-89.8711 a 71.235697,71.235697 0 0 0 9.14062,1.44922 71.235697,71.235697 0 0 0 67.60742,-48.86133 z m 418.83594,23.98242 a 71.235697,71.235697 0 0 0 65.64844,43.92383 71.235697,71.235697 0 0 0 5.61914,-0.25 l 9.0293,99.81446 a 71.235697,71.235697 0 0 0 -65.51954,67.05273 l -193.44726,70.54102 1.71289,4.69726 191.4082,-69.79687 a 71.235697,71.235697 0 0 0 29.44336,54.57422 l -48.78711,60.15625 a 71.236362,71.235022 0 0 0 -33.29687,-8.26758 71.236362,71.235022 0 0 0 -71.23438,71.23633 71.236362,71.235022 0 0 0 0.41016,2.06054 l -69.86914,3.93946 0.2832,4.99218 70.57031,-3.98047 a 71.236362,71.235022 0 0 0 69.83985,64.22266 71.236362,71.235022 0 0 0 42.19726,-15.40234 l 65.3125,80.40234 a 71.235697,71.235697 0 0 0 -31.57812,42.76563 l -232.96875,-98.60352 -1.94727,4.60352 234.02735,99.05273 a 71.235697,71.235697 0 0 0 -2.32813,13.23828 71.235697,71.235697 0 0 0 5.85938,27.91602 l -138.78516,60.78711 a 71.235697,71.235697 0 0 0 -62.35938,-37.17774 71.235697,71.235697 0 0 0 -8.44921,1.67969 L 622.65625,665.9043 618.11719,668 l 56.0664,121.38477 a 71.235697,71.235697 0 0 0 -57.74218,68.55078 71.235697,71.235697 0 0 0 1.73437,8.7207 l -96.93945,38.07031 a 71.235697,71.235697 0 0 0 -46.44141,-32.06054 l 54.60156,-193.03125 -4.8125,-1.36133 -54.71679,193.44531 a 71.235697,71.235697 0 0 0 -8.16407,-1.57031 71.235697,71.235697 0 0 0 -41.40234,13.4707 L 322.73047,722.18945 A 71.235697,71.235697 0 0 0 379.5625,652.57812 71.235697,71.235697 0 0 0 377.75,643.4668 l 62.96289,-23.57618 -1.75391,-4.68164 -62.19726,23.28711 a 71.235697,71.235697 0 0 0 -68.4336,-57.15234 71.235697,71.235697 0 0 0 -6.92578,0.49414 L 269.59375,385.91406 a 71.235697,71.235697 0 0 0 39.32617,-16.57031 71.235697,71.235697 0 0 0 27.17188,-53.91406 71.235697,71.235697 0 0 0 -2.72852,-19.45899 l 245.42969,-76.35156 a 71.235697,71.235697 0 0 0 62.16211,46.62109 l -10.62891,143.79493 4.98633,0.36914 10.60352,-143.44532 a 71.235697,71.235697 0 0 0 70.9121,-71.21875 71.235697,71.235697 0 0 0 -0.40234,-7.45507 z m -237.57617,8.79102 h 69.46094 c 4.4081,0 8.01562,3.60553 8.01562,8.01367 v 56.10547 H 602.8457 v -56.10547 c 0,-4.40814 3.60733,-8.01367 8.01563,-8.01367 z m 2.67187,10.68555 v 42.74609 h 64.11914 v -42.74609 z m -509.37695,1.87695 99.04297,114.52734 a 71.235697,71.235697 0 0 0 -9.58008,35.34571 71.235697,71.235697 0 0 0 30.19727,58.05469 l -65.25977,68.90234 a 71.235697,71.235697 0 0 0 -43.2832,-14.86914 z m 532.47461,7.08203 c 0.6838,0 1.36872,0.26134 1.89062,0.78321 l 1.88672,1.88867 c 1.0436,1.04362 1.0436,2.73561 0,3.77929 l -5.96093,5.96289 5.96484,5.96289 c 1.0436,1.04355 1.0436,2.73569 0,3.7793 l -1.88867,1.88867 c -1.0436,1.04362 -2.7357,1.04362 -3.7793,0 l -9.74219,-9.74218 c -1.0436,-1.04361 -1.0436,-2.73381 0,-3.77735 l 9.74024,-9.74218 c 0.5218,-0.52184 1.20497,-0.78321 1.88867,-0.78321 z m 17.92187,0.002 c 0.6839,0 1.36668,0.26136 1.88868,0.78321 l 9.74218,9.74023 c 1.0436,1.04354 1.0436,2.73569 0,3.7793 l -9.74218,9.74219 c -1.0437,1.04361 -2.73365,1.04361 -3.77735,0 l -1.88867,-1.88867 c -1.0435,-1.04355 -1.0435,-2.73569 0,-3.7793 l 5.96094,-5.96289 -5.96094,-5.96485 c -1.0435,-1.04362 -1.0435,-2.73372 0,-3.77734 l 1.88867,-1.88867 c 0.5218,-0.52185 1.20497,-0.78319 1.88867,-0.78321 z m -59.7207,49.81641 h 39.94531 c -0.041,2.42614 2.35001,5.3418 5.47071,5.3418 h 10.15234 c 3.0106,0 5.3433,-2.03398 5.4668,-5.3418 h 40.48633 c 1.4693,0 2.67187,1.20056 2.67187,2.66992 v 2.67188 c 0,5.8775 -4.8099,10.68555 -10.6875,10.68555 H 602.8457 c -5.8775,0 -10.68554,-4.80805 -10.68554,-10.68555 V 225.127 c 0,-1.46936 1.20247,-2.66992 2.67187,-2.66992 z m -341.58398,52.3457 c 10.75547,0 20.13215,5.83899 25.15625,14.54493 2.75688,-1.84998 6.0949,-2.93946 9.66797,-2.93946 9.61283,0 17.41211,7.79927 17.41211,17.41211 0,2.21275 -0.4185,4.33658 -1.16211,6.27735 10.59231,2.14017 18.57226,11.51706 18.57226,22.74414 0,12.82314 -10.3917,23.21484 -23.21484,23.21484 h -66.7461 c -14.41918,0 -26.11718,-11.69794 -26.11718,-26.11719 0,-11.39031 7.29031,-21.07536 17.44726,-24.64843 -0.0177,-0.48974 -0.0351,-0.98097 -0.0351,-1.47071 0,-16.03351 12.9861,-29.01758 29.01953,-29.01758 z m 5.80468,21.51954 c -0.74363,0 -1.48854,0.2795 -2.05078,0.84179 l -19.11718,19.11719 c -1.83185,1.83186 -0.54288,4.95117 2.05078,4.95117 h 11.86133 v 20.31446 c 0,1.59604 1.30622,2.90234 2.90234,2.90234 h 8.70508 c 1.59605,0 2.90234,-1.30632 2.90234,-2.90234 v -20.31446 h 11.86133 c 2.57553,0 3.8827,-3.11931 2.05078,-4.95117 l -19.11719,-19.11719 c -0.56225,-0.56229 -1.30521,-0.84179 -2.04883,-0.84179 z M 945.47461,312.127 c 19.2257,0 34.82422,5.20497 34.82422,11.60743 0,6.40253 -15.59852,11.60937 -34.82422,11.60937 -19.2256,0 -34.82422,-5.20686 -34.82422,-11.60937 0,-6.40247 15.59862,-11.60743 34.82422,-11.60743 z m 34.82422,21.27539 v 7.74414 c 0,4.40732 -7.38313,8.25401 -18.26563,10.2129 -1.5961,-4.29862 -5.53026,-7.78142 -10.88086,-10.375 11.6442,-0.58045 22.70769,-3.02956 29.14649,-7.58204 z m -58.03906,7.74414 c 19.2256,0 34.82421,6.49306 34.82421,14.50977 0,8.01673 -15.59861,14.51172 -34.82421,14.51172 -19.2256,0 -34.82422,-6.49499 -34.82422,-14.51172 0,-8.01671 15.59862,-14.50977 34.82422,-14.50977 z m 58.03906,9.66797 v 7.74414 c 0,4.29862 -7.01931,8.03554 -17.41211,10.04883 v -11.53515 c 7.0192,-1.25147 13.20421,-3.28332 17.41211,-6.25782 z m -92.86328,15.79688 c 7.4907,6.16666 21.20302,9.35937 34.82422,9.35937 13.6212,0 27.33361,-3.19271 34.82421,-9.35937 v 9.35937 c 0,6.40247 -15.59861,11.60938 -34.82421,11.60938 -19.2256,0 -34.82422,-5.20691 -34.82422,-11.60938 z m -658.97461,9.24023 a 71.235697,71.235697 0 0 0 36.18359,10.7793 l 31.79102,195.81836 a 71.235697,71.235697 0 0 0 -42.16993,23.7793 L 174.93945,537.25 a 71.235697,71.235697 0 0 0 11.30469,-38.50391 71.235697,71.235697 0 0 0 -23.83008,-53.16406 z m 658.97461,9.78711 c 7.4907,5.27797 21.18492,7.74414 34.82422,7.74414 13.6393,0 27.33361,-2.46617 34.82421,-7.74414 v 7.74414 c 0,6.40247 -15.59861,11.60938 -34.82421,11.60938 -19.2256,0 -34.82422,-5.20691 -34.82422,-11.60938 z m 9.09179,31.88477 a 71.235697,71.235697 0 0 0 37.33985,12.27148 71.235697,71.235697 0 0 0 1.43554,-0.0937 l 14.36915,234.79102 a 71.235697,71.235697 0 0 0 -27.45313,7.18945 l -65.59766,-80.75391 a 71.236362,71.235022 0 0 0 24.86329,-53.04296 71.236362,71.235022 0 0 0 -33.5586,-60.4336 z M 129.51953,452.3125 v 0.002 c 5.4231,0 9.92125,3.7181 11.20899,8.74219 0.12696,0 0.25332,-0.0371 0.39843,-0.0371 6.40251,0 11.60743,5.20488 11.60743,11.60742 0,0.87058 -0.12723,1.72484 -0.3086,2.54102 5.2961,2.1765 9.01563,7.36202 9.01563,13.41992 0,2.28527 -0.56274,4.40947 -1.50586,6.33203 4.35298,2.50295 7.30859,7.14438 7.30859,12.53125 0,6.0397 -3.69915,11.22585 -8.95898,13.40235 0.16321,0.83425 0.2539,1.68801 0.2539,2.55859 0,7.21872 -5.83988,13.05859 -13.05859,13.05859 -0.74365,0 -1.46843,-0.0898 -2.17578,-0.21679 -1.74116,5.16918 -6.56627,8.92382 -12.33399,8.92382 -7.21866,0 -13.06054,-5.84181 -13.06054,-13.06054 v -68.19531 c 0,-6.4206 5.2069,-11.60938 11.60937,-11.60938 z m -29.02148,0.002 c 6.40251,0 11.60937,5.20473 11.60937,11.60743 v 68.19726 c 0,7.21872 -5.83993,13.05859 -13.058592,13.05859 -5.76771,0 -10.592774,-3.75463 -12.333984,-8.92382 -0.70735,0.12697 -1.432131,0.21875 -2.175782,0.21875 -7.218669,0 -13.058593,-5.84189 -13.058593,-13.06055 0,-0.87064 0.09067,-1.72232 0.253906,-2.55664 -5.25984,-2.1765 -8.960937,-7.36453 -8.960937,-13.4043 0,-5.3868 2.957566,-10.0283 7.310546,-12.53125 -0.92501,-1.92257 -1.505859,-4.04675 -1.505859,-6.33203 0,-6.05789 3.717532,-11.24349 9.013672,-13.41992 -0.19952,-0.81625 -0.308594,-1.67044 -0.308594,-2.54102 0,-6.40253 5.206866,-11.60742 11.609375,-11.60742 0.1451,0 0.253318,0.0371 0.398438,0.0371 1.28773,-5.02409 5.783861,-8.74219 11.207034,-8.74219 z m 689.43554,39.13672 c 8.01678,1e-5 14.51172,6.49509 14.51172,14.51172 0,6.49319 -4.26157,11.98786 -10.15625,13.83789 v 26.11719 c 4.33486,-2.0857 9.62936,-2.59291 14.74414,-3.06445 6.51138,-0.59857 12.65999,-1.17784 15.45313,-4.66016 1.23339,-1.52353 1.88728,-3.77329 1.99609,-6.69336 -6.02169,-1.75933 -10.42969,-7.32773 -10.42969,-13.92969 0,-8.01663 6.49298,-14.50976 14.50977,-14.50976 8.01679,0 14.50977,6.49313 14.50977,14.50976 0,6.38435 -4.13377,11.80683 -9.86524,13.76563 -0.0907,5.09662 -1.38064,9.16052 -3.91992,12.3164 -5.11478,6.34803 -13.78349,7.16376 -21.4375,7.8711 -4.66141,0.43529 -9.04996,0.83499 -11.98828,2.32226 -1.28774,0.65295 -2.1409,1.48653 -2.70313,2.42969 5.44125,2.08577 9.28711,7.36458 9.28711,13.53125 0,8.01664 -6.49494,14.50781 -14.51172,14.50781 -8.01683,0 -14.50781,-6.49117 -14.50781,-14.50781 0,-6.49312 4.26152,-11.99121 10.15625,-13.85937 v -36.14649 c -5.89473,-1.85003 -10.15625,-7.3447 -10.15625,-13.83789 0,-8.01663 6.49098,-14.51172 14.50781,-14.51172 z m 0,11.60938 c -1.59611,0 -2.90039,1.30632 -2.90039,2.90234 0,1.59612 1.30428,2.90039 2.90039,2.90039 1.59612,0 2.90235,-1.30427 2.90235,-2.90039 0,-1.59602 -1.30623,-2.90234 -2.90235,-2.90234 z m 40.62891,11.60742 c -1.59612,0 -2.90234,1.3063 -2.90234,2.90234 0,1.59611 1.30622,2.90235 2.90234,2.90235 1.59611,0 2.90234,-1.30624 2.90234,-2.90235 0,-1.59604 -1.30623,-2.90234 -2.90234,-2.90234 z m -658.62695,26.59765 79.32617,68.97852 a 71.235697,71.235697 0 0 0 -14.16992,42.33398 71.235697,71.235697 0 0 0 11.69336,38.11915 l -88.64454,25.63476 A 71.235697,71.235697 0 0 0 109.92383,690.625 l 5.5332,-120.71484 a 71.235697,71.235697 0 0 0 56.47852,-28.64454 z m 617.99804,25.63672 c -1.59611,0 -2.90039,1.30826 -2.90039,2.9043 0,1.59604 1.30428,2.90039 2.90039,2.90039 1.59612,0 2.90235,-1.30435 2.90235,-2.90039 0,-1.59604 -1.30623,-2.9043 -2.90235,-2.9043 z m -458.39062,39.2461 c 9.61623,0 17.41211,7.79581 17.41211,17.41211 0,9.6162 -7.79588,17.41015 -17.41211,17.41015 -4.1005,0 -7.86864,-1.41726 -10.84375,-3.78906 l -18.58984,11.61719 a 17.511842,17.511842 0 0 1 0,7.56055 l 18.58984,11.61718 c 2.97511,-2.3717 6.74325,-3.78906 10.84375,-3.78906 9.61623,0 17.41211,7.79581 17.41211,17.41211 0,9.61621 -7.79588,17.41211 -17.41211,17.41211 -9.61626,0 -17.41211,-7.7959 -17.41211,-17.41211 a 17.466498,17.466498 0 0 1 0.41211,-3.78125 l -18.58789,-11.61719 c -2.97511,2.3717 -6.74325,3.78906 -10.84375,3.78906 -9.61627,0 -17.41211,-7.79589 -17.41211,-17.41211 0,-9.6163 7.79584,-17.4121 17.41211,-17.4121 4.1005,0 7.86864,1.41931 10.84375,3.79101 l 18.58789,-11.61914 c -0.26954,-1.2173 -0.41211,-2.47904 -0.41211,-3.77734 0,-9.6163 7.79585,-17.41211 17.41211,-17.41211 z m 622.52344,84.04687 c 3.3283,-0.009 6.69719,0.34429 10.02539,1.08789 0.9975,0.21768 1.70502,1.10731 1.70508,2.12305 v 8.90625 c 4.04457,1.41471 7.78064,3.57201 11.02734,6.36523 l 7.72656,-4.46093 c 0.8706,-0.50794 1.99438,-0.3276 2.6836,0.41601 4.4799,4.86088 7.90857,10.70129 9.92187,17.15821 0.2902,0.97941 -0.10925,2.03126 -0.99805,2.53906 l -7.72461,4.46289 c 0.7799,4.2079 0.7799,8.52263 0,12.73047 l 7.72461,4.46289 c 0.8888,0.5078 1.28773,1.5591 1.01563,2.55664 -2.0132,6.47512 -5.44002,12.31752 -9.91992,17.16015 -0.6892,0.76176 -1.79675,0.92382 -2.68555,0.41602 l -7.72461,-4.46289 c -3.2648,2.77501 -7.0029,4.9343 -11.0293,6.36719 v 8.92383 c 0,1.01567 -0.70747,1.90341 -1.70507,2.12109 -6.3299,1.4147 -13.14839,1.48728 -19.80469,0 -0.9977,-0.21768 -1.70508,-1.10542 -1.70508,-2.12109 v -8.92383 c -4.0447,-1.4147 -7.7828,-3.57406 -11.0293,-6.36719 l -7.72461,4.46289 c -0.8706,0.5078 -1.99624,0.32763 -2.68554,-0.41602 -4.4799,-4.86086 -7.90673,-10.70323 -9.91993,-17.16015 -0.2902,-0.97942 0.1073,-2.03119 0.9961,-2.53906 l 7.72851,-4.46094 c -0.7798,-4.20784 -0.7798,-8.52452 0,-12.73242 l -7.72851,-4.46289 c -0.8888,-0.50781 -1.3045,-1.55965 -0.9961,-2.53907 2.0132,-6.47504 5.44003,-12.3135 9.91993,-17.15625 0.6893,-0.76173 1.79674,-0.92576 2.68554,-0.41796 l 7.70899,4.46093 c 3.2648,-2.77501 6.99889,-4.93233 11.02539,-6.36523 v -8.92383 c 0,-1.01574 0.70748,-1.90537 1.70508,-2.12305 3.165,-0.70731 6.45305,-1.07882 9.78125,-1.08789 z m -702.67188,4.95117 a 71.235697,71.235697 0 0 0 28.24414,21.69922 l -47.78125,180.03516 a 71.235697,71.235697 0 0 0 -19.5664,-2.75977 71.235697,71.235697 0 0 0 -18.78125,3.73438 L 125.36914,829.7188 a 71.235697,71.235697 0 0 0 50.95898,-68.28125 71.235697,71.235697 0 0 0 -13.1582,-40.7793 z m 32.80664,23.9961 a 71.235697,71.235697 0 0 0 24.12695,4.67187 71.235697,71.235697 0 0 0 9.17774,-0.60156 l 98.77148,163.41797 A 71.235697,71.235697 0 0 0 390.48047,941.1895 L 282.75,960.30664 a 71.235697,71.235697 0 0 0 -46.125,-61.89258 z m 669.98828,1.50586 c -7.9986,0 -14.50976,6.51118 -14.50976,14.50976 0,7.99859 6.51116,14.50977 14.50976,14.50977 7.9985,0 14.50977,-6.51118 14.50977,-14.50977 0,-7.99858 -6.51127,-14.50976 -14.50977,-14.50976 z m -837.69726,0.16406 c 1.862,-0.0642 3.72201,0.76845 4.90039,2.38867 l 19.36914,26.62891 h 12.21094 c 2.40409,0 4.35546,1.94945 4.35546,4.35351 v 2.90235 c 0,2.40406 -1.95137,4.35156 -4.35546,4.35156 h -1.44922 l -4.73633,33.1543 c -0.61272,4.28894 -4.28472,7.47462 -8.61719,7.47461 H 72.013672 c -4.33247,0 -8.004338,-3.18567 -8.617188,-7.47461 l -4.736328,-33.1543 h -1.451172 c -2.4041,0 -4.353515,-1.9475 -4.353515,-4.35156 v -2.90235 c 0,-2.40406 1.949415,-4.35351 4.353515,-4.35351 h 12.212891 l 19.367187,-26.62891 c 1.178371,-1.62014 3.038351,-2.45122 4.900391,-2.38672 1.11721,0.0388 2.234821,0.39843 3.207031,1.10547 2.5924,1.88542 3.166646,5.51513 1.28125,8.10742 L 83.775391,749.83008 H 126.4082 l -14.40234,-19.80274 c -1.8854,-2.59216 -1.3131,-6.22206 1.2793,-8.10742 0.972,-0.70701 2.08983,-1.06889 3.20703,-1.10742 z m -31.714846,40.625 c -2.40414,0 -4.351563,1.95135 -4.351563,4.35547 v 20.3125 c 0,2.40413 1.947423,4.35351 4.351563,4.35351 2.4041,0 4.353515,-1.94938 4.353515,-4.35351 v -20.3125 c 0,-2.40412 -1.949415,-4.35547 -4.353515,-4.35547 z m 20.314456,0 c -2.4041,0 -4.35352,1.95135 -4.35352,4.35547 v 20.3125 c 0,2.40413 1.94942,4.35351 4.35352,4.35351 2.40414,0 4.35156,-1.94938 4.35156,-4.35351 v -20.3125 c 0,-2.40412 -1.94742,-4.35547 -4.35156,-4.35547 z m 20.31445,0 c -2.4041,0 -4.35352,1.95135 -4.35352,4.35547 v 20.3125 c 0,2.40413 1.94942,4.35351 4.35352,4.35351 2.4041,0 4.35156,-1.94938 4.35156,-4.35351 v -20.3125 c 0,-2.40412 -1.94746,-4.35547 -4.35156,-4.35547 z m 766.23828,5.87695 a 71.235697,71.235697 0 0 0 43.75586,35.36914 l -3.96875,95.47266 a 71.235697,71.235697 0 0 0 -18.94141,-2.63867 71.235697,71.235697 0 0 0 -61.24218,37.13672 L 749.2168,893.78711 a 71.235697,71.235697 0 0 0 9.69726,-35.85156 71.235697,71.235697 0 0 0 -6.4707,-29.65039 z M 687.6875,812.95508 c 7.2186,0 13.42098,11.37166 16.05078,27.56836 h -32.10351 c 2.6299,-16.1967 8.83393,-27.56836 16.05273,-27.56836 z m -12.8418,1.88672 c -4.4256,6.1304 -7.47278,15.36154 -9.05078,25.68164 h -19.58789 c 5.1691,-12.3152 15.68857,-21.83654 28.63867,-25.68164 z m 25.66407,0 c 12.9682,3.8451 23.46885,13.36644 28.65625,25.68164 h -19.5879 c -1.59609,-10.3201 -4.64295,-19.55124 -9.06835,-25.68164 z m -56.24415,31.48632 h 20.80274 c -0.3809,3.8089 -0.59766,7.70783 -0.59766,11.60743 0,3.8996 0.21923,7.80057 0.58203,11.60937 h -20.78711 c -0.9794,-3.7182 -1.55859,-7.58277 -1.55859,-11.60937 0,-4.0265 0.57919,-7.88921 1.55859,-11.60743 z m 26.60938,0 h 33.60742 c 0.381,3.71821 0.59766,7.58093 0.59766,11.60743 0,4.0266 -0.21666,7.89117 -0.59766,11.60937 H 670.875 c -0.3809,-3.7182 -0.59961,-7.58277 -0.59961,-11.60937 0,-4.0265 0.21871,-7.88921 0.59961,-11.60743 z m 39.42969,0 h 20.80273 c 0.9794,3.71821 1.54297,7.58093 1.54297,11.60743 0,4.0266 -0.56295,7.89117 -1.56055,11.60937 h -20.78515 c 0.3808,-3.8088 0.59765,-7.70977 0.59765,-11.60937 0,-3.8996 -0.21685,-7.79848 -0.59765,-11.60743 z m -64.09766,29.01954 h 19.58789 c 1.5961,10.3202 4.64286,19.55319 9.06836,25.68359 -12.9682,-3.8451 -23.46905,-13.36829 -28.65625,-25.68359 z m 25.42774,0 h 32.10351 c -2.6298,16.1967 -8.83218,27.57031 -16.05078,27.57031 -7.2188,0 -13.42283,-11.37361 -16.05273,-27.57031 z m 37.96289,0 h 19.58789 c -5.1872,12.3153 -15.70811,21.83849 -28.65821,25.68359 4.4255,-6.1304 7.47432,-15.36339 9.07032,-25.68359 z m -262.40625,25.40625 c 20.83984,0 37.72656,12.98798 37.72656,29.02148 0,16.03349 -16.88672,29.01953 -37.72656,29.01953 -7.43633,0 -14.34727,-1.68762 -20.1875,-4.53515 -3.95395,2.30341 -9.44957,4.53515 -16.08789,4.53515 -0.58039,0 -1.08646,-0.32697 -1.32227,-0.87109 -0.23577,-0.54414 -0.12754,-1.16097 0.27148,-1.57813 0.0544,-0.0543 4.06376,-4.40725 6.49415,-9.88476 -4.33486,-4.73384 -6.89258,-10.46437 -6.89258,-16.68555 0,-16.0335 16.88472,-29.02148 37.72461,-29.02148 z m 465.29882,19.5664 c 7.9142,0 13.85566,6.3256 17.75586,15.6211 13.7419,-1.6097 19.11695,4.0589 21.08985,7.5957 2.9707,5.3279 2.7209,13.26194 -4.5586,23.21484 7.2795,9.9529 7.5293,17.8889 4.5586,23.2168 -5.2836,9.4995 -18.43655,7.91115 -21.08985,7.59375 -3.9002,9.2954 -9.84166,15.623 -17.75586,15.623 -7.9143,0 -13.85528,-6.3276 -17.75585,-15.623 -2.65292,0.3174 -15.80635,1.90575 -21.08985,-7.59375 -2.9707,-5.3279 -2.72051,-13.2639 4.55859,-23.2168 -7.27908,-9.9529 -7.52929,-17.88694 -4.55859,-23.21484 1.9728,-3.5368 7.34791,-9.1828 21.08985,-7.5957 3.9006,-9.2955 9.84155,-15.6211 17.75585,-15.6211 z m -746.54296,2.56836 h 5.86132 c 1.99229,0 3.25006,2.11124 2.31446,3.87305 -2.74366,5.1657 -8.22865,19.2381 0.0293,34.71875 0.93893,1.76336 -0.32048,3.87695 -2.31445,3.87695 h -5.78125 c -1.02688,0 -1.98921,-0.58361 -2.42383,-1.51758 -3.90997,-8.38235 -4.42578,-15.61105 -4.42578,-19.71679 0,-7.02531 1.55944,-13.67928 4.29492,-19.68946 0.43128,-0.94881 1.40519,-1.54492 2.44532,-1.54492 z m 86.80468,0 h 0.002 5.875 c 1.04013,0 2.01205,0.59572 2.44336,1.54297 2.74045,6.01011 4.30273,12.66439 4.30273,19.69141 0,7.02701 -1.56452,13.68324 -4.30664,19.69336 -0.43131,0.94719 -1.40324,1.54101 -2.44336,1.54101 h -5.84375 c -2.0089,0 -3.25746,-2.13066 -2.30859,-3.90234 7.98589,-14.89843 2.98391,-29.02069 -0.0469,-34.70899 -0.93562,-1.75676 0.33882,-3.85742 2.32617,-3.85742 z m 237.73438,3.24024 c 13.74814,4.33488 23.45117,14.72742 23.45117,26.86132 0,6.22113 -2.55776,11.97179 -6.89258,16.6875 2.4304,5.49564 6.43976,9.83025 6.49414,9.88477 0.39902,0.43536 0.50726,1.05215 0.27149,1.57812 -0.21766,0.526 -0.74188,0.8711 -1.32227,0.8711 -6.63832,0 -12.13588,-2.23169 -16.08984,-4.53516 -5.84027,2.86579 -12.74922,4.53516 -20.18555,4.53516 -15.63441,0 -29.05626,-7.32886 -34.76953,-17.75781 1.88628,0.19947 3.78918,0.3457 5.74805,0.3457 23.99574,0 43.52929,-15.61668 43.52929,-34.82422 0,-1.23335 -0.0712,-2.44939 -0.23437,-3.64648 z m 422.0039,5.79882 c -1.7235,0 -4.03728,2.45012 -6.14648,6.75782 2.0412,0.6802 4.08288,1.45173 6.14648,2.33593 2.0638,-0.8842 4.10374,-1.65573 6.14454,-2.33593 -2.1088,-4.3077 -4.42114,-6.75782 -6.14454,-6.75782 z m -728.24414,1.57813 h 5.59571 c 1.82645,0 3.08858,1.79666 2.46484,3.51367 -0.81781,2.2527 -1.25195,4.64173 -1.25195,7.10352 0,2.46178 0.43414,4.85075 1.25195,7.10351 0.6221,1.71695 -0.63839,3.51367 -2.46484,3.51367 h -5.59571 c -1.16286,0 -2.23287,-0.74706 -2.55468,-1.86523 -0.81287,-2.81509 -1.25196,-5.74612 -1.25196,-8.75195 0,-3.00592 0.43881,-5.93712 1.25,-8.75391 0.3235,-1.1181 1.39378,-1.86328 2.55664,-1.86328 z m 28.04493,0 c 5.8608,0 10.60937,4.75305 10.60937,10.61719 0,2.22461 -0.6879,4.28517 -1.85742,5.99218 l 21.64844,51.99217 c 0.56236,1.352 -0.0758,2.9048 -1.42774,3.4688 l -4.89648,2.0429 c -1.35196,0.564 -2.90471,-0.073 -3.46875,-1.4277 l -8.16016,-19.60156 H 199.8418 l -8.16016,19.60156 c -0.56236,1.352 -2.11678,1.9917 -3.46875,1.4277 l -4.89453,-2.0429 c -1.35197,-0.564 -1.99369,-2.1168 -1.42969,-3.4688 l 21.65039,-51.99217 c -1.16949,-1.70701 -1.85937,-3.76757 -1.85937,-5.99218 0,-5.86414 4.75216,-10.61719 10.61133,-10.61719 z m 22.44921,0 h 5.59571 c 1.16287,0 2.23289,0.7455 2.55468,1.86523 0.81288,2.81516 1.25,5.74604 1.25,8.75196 0,3.00583 -0.4352,5.93686 -1.24804,8.75195 -0.32348,1.11974 -1.3921,1.86523 -2.55664,1.86523 h -5.59571 c -1.82643,0 -3.08857,-1.79672 -2.46484,-3.51367 0.81783,-2.25276 1.25195,-4.64173 1.25195,-7.10351 0,-2.46179 -0.43412,-4.85082 -1.25195,-7.10352 -0.62209,-1.71701 0.63841,-3.51367 2.46484,-3.51367 z m 655.48243,13.74805 c -3.9006,0 -6.2586,0.97503 -6.8711,2.08593 -0.7255,1.315 -0.023,4.48976 2.72071,8.75196 1.2474,-1.1789 2.56275,-2.33515 3.96875,-3.46875 0.2947,-2.4485 0.70115,-4.87303 1.22265,-7.29883 -0.3401,0 -0.72361,-0.0703 -1.04101,-0.0703 z m 44.53711,0 c -0.3175,0 -0.70483,0.0703 -1.04493,0.0703 0.5218,2.4258 0.92981,4.85033 1.22461,7.29883 1.4059,1.1336 2.72175,2.28985 3.96875,3.46875 2.744,-4.2622 3.44816,-7.43696 2.72266,-8.75196 -0.6121,-1.1109 -2.97079,-2.08593 -6.87109,-2.08593 z m -22.26954,4.98828 a 14.50992,14.50992 0 0 0 -4.48242,0.71093 14.50992,14.50992 0 0 0 4.48242,28.3086 A 14.509962,14.509962 0 0 0 927,966.75195 14.50992,14.50992 0 0 0 912.49023,952.24219 Z m -700.19921,4.45703 -8.0254,19.27344 h 16.05079 z m 700.19921,4.25 a 5.8156324,5.8156324 0 0 1 5.80469,5.80273 5.8039684,5.8039684 0 1 1 -5.80469,-5.80273 z m -26.41796,14.46484 c -2.744,4.2623 -3.44621,7.435 -2.72071,8.75 0.6805,1.2016 3.44501,2.1547 7.91211,1.9961 -0.4988,-2.3579 -0.92795,-4.78345 -1.22265,-7.27735 -1.406,-1.1336 -2.72135,-2.28985 -3.96875,-3.46875 z m 52.83593,0 c -1.247,1.1789 -2.56275,2.33515 -3.96875,3.46875 -0.2948,2.4939 -0.72541,4.91945 -1.22461,7.27735 4.4673,0.1586 7.25862,-0.7945 7.91602,-1.9961 0.7255,-1.315 0.0213,-4.4877 -2.72266,-8.75 z m -26.41797,17.07032 c -2.0636,0.88418 -4.10528,1.65573 -6.14648,2.33593 2.1092,4.3076 4.42298,6.75589 6.14648,6.75589 1.7233,0 4.03574,-2.44829 6.14454,-6.75589 -2.0408,-0.6802 -4.08074,-1.45175 -6.14454,-2.33593 z" />
      <rect
         style="opacity:0.5;fill:#000000;stroke:none;stroke-width:0.815402;-inkscape-stroke:none;filter:url(#filter90583);stop-color:#000000"
         id="rect90488"
         width="288.8804"
         height="288.8804"
         x="395.55975"
         y="395.55975"
         ry="52.7952" />
      <rect
         style="fill:#ffffff;stroke:none;stroke-width:0.798865;-inkscape-stroke:none;stop-color:#000000"
         id="rect3684"
         width="283.02173"
         height="283.02173"
         x="398.48911"
         y="398.48911"
         ry="51.724483" />
      <text
         xml:space="preserve"
         style="font-size:46.1939px;line-height:1.25;font-family:Orbitron;-inkscape-font-specification:Orbitron;letter-spacing:0px;word-spacing:0px;fill:#000000;stroke-width:0.962373"
         x="445.00244"
         y="667.34839"
         id="text54628"><tspan
           sodipodi:role="line"
           id="tspan54626"
           x="445.00244"
           y="667.34839"
           style="fill:#000000;stroke-width:0.962373">bolicoin</tspan></text>
      <g
         id="g63581"
         transform="matrix(0.20051005,0,0,0.20051005,3.9624521,304.86938)">
        <path
           id="path197"
           style="font-variation-settings:normal;vector-effect:none;fill:url(#linearGradient3280);fill-opacity:1;stroke:none;stroke-width:0.887963;stroke-linecap:butt;stroke-linejoin:miter;stroke-miterlimit:4;stroke-dasharray:none;stroke-dashoffset:0;stroke-opacity:1;-inkscape-stroke:none;stop-color:#000000"
           d="m 2453.2084,530.16803 v 55.03961 55.03962 55.03961 55.03963 55.03962 55.04162 55.03962 55.03962 55.03962 55.0396 55.0396 55.0397 55.0396 55.0416 55.0396 55.0396 55.0397 55.0396 55.0396 h 55.0397 55.0396 v -55.0396 -55.0396 -55.0397 -55.0396 -55.0396 -55.0416 -55.0396 -55.0397 -55.0396 -55.0396 -55.03962 -55.03962 -55.03962 -55.04162 -55.03962 -55.03963 -55.03961 -55.03962 -55.03961 h -55.0396 z" />
        <path
           id="path199"
           style="font-variation-settings:normal;opacity:1;vector-effect:none;fill:url(#linearGradient63034);fill-opacity:1;stroke:none;stroke-width:0.887963;stroke-linecap:butt;stroke-linejoin:miter;stroke-miterlimit:4;stroke-dasharray:none;stroke-dashoffset:0;stroke-opacity:1;-inkscape-stroke:none;stop-color:#000000;stop-opacity:1"
           inkscape:transform-center-x="-7.6469331"
           inkscape:transform-center-y="-7.4461392e-06"
           d="m 2673.3669,530.16803 v 55.03961 55.03962 55.03961 l 55.0397,55.03963 55.0396,55.03962 27.5228,27.52281 -27.5188,27.51881 v 0.002 55.03761 55.03962 0 -55.03957 -55.03962 l -55.0396,55.03962 -55.0396,55.03962 v 0 55.03958 55.0397 55.0396 l 55.0396,55.0396 55.0396,55.0396 27.5228,27.5208 -27.5208,27.5208 -55.0396,55.0397 -55.0396,55.0396 v 55.0396 55.0396 55.0396 l 55.0396,-55.0396 55.0396,-55.0396 55.0416,-55.0396 55.0376,-55.0396 v 0 -55.0377 -55.0416 -55.0396 l -55.0396,-55.0396 -55.0396,-55.0396 v 55.0396 0 -55.0396 l -27.5188,-27.5188 27.5208,-27.5209 v 0 l 55.0396,-55.03957 55.0376,-55.03962 v -0.002 -55.03762 -55.04161 -55.03963 l -55.0396,-55.03962 -55.0396,-55.03961 v 55.03961 0 -55.03972 l -55.0398,-55.03962 z" />
        <path
           id="path201"
           style="fill:url(#linearGradient215);fill-opacity:1;stroke-width:0.887963;stop-color:#000000"
           inkscape:transform-center-x="-9.3446385"
           d="m 2810.969,832.88893 -27.5208,27.51881 27.5208,27.52081 27.5188,27.51881 27.5208,27.52081 27.5188,-27.52081 -27.5208,-27.52081 z" />
        <path
           id="path203"
           style="fill:url(#linearGradient213);fill-opacity:1;stroke-width:0.887963;stop-color:#000000"
           inkscape:transform-center-x="-9.3446385"
           d="m 2810.967,1273.2079 -27.5208,27.5188 27.5208,27.5208 27.5188,27.5188 27.5208,27.5208 27.5188,-27.5208 -27.5208,-27.5208 z" />
        <path
           id="path205"
           style="fill:url(#linearGradient211);fill-opacity:1;stroke-width:0.887963;stop-color:#000000"
           inkscape:transform-center-x="-3.4999999e-06"
           d="m 2673.367,1135.6059 27.5188,27.5208 27.5208,-27.5208 27.5188,-27.5188 27.5208,-27.5208 -27.5208,-27.5188 -27.5208,27.5208 z"
           inkscape:transform-center-y="-9.344635" />
        <path
           id="path207"
           style="fill:url(#linearGradient209);fill-opacity:1;stroke-width:0.887963;stop-color:#000000"
           inkscape:transform-center-x="-9.3446385"
           d="m 2810.967,1273.2079 -27.5208,27.5188 27.5208,27.5208 27.5188,27.5188 27.5208,27.5208 27.5188,-27.5208 -27.5208,-27.5208 z" />
      </g>
    </g>
  </g>
</svg>
