<svg xmlns="http://www.w3.org/2000/svg" viewBox="0 0 500 500"><g id="freepik--Floor--inject-2"><path d="M409,259.73c-88.41-51-231.28-51-319.12,0S2.55,393.54,91,444.58s231.28,51,319.12,0S497.45,310.78,409,259.73Z" style="fill:#f5f5f5"></path></g><g id="freepik--Shadows--inject-2"><path d="M205,363.66c-22.54-13-59-13-81.36,0s-22.27,34.12.27,47.13,59,13,81.35,0S227.51,376.68,205,363.66Z" style="fill:#e0e0e0"></path><polygon points="351.51 363.15 344.87 367.01 249.08 311.93 255.73 308.06 351.51 363.15" style="fill:#e0e0e0"></polygon><polygon points="429.67 408.21 423.02 412.07 358.13 374.75 364.78 370.88 429.67 408.21" style="fill:#e0e0e0"></polygon></g><g id="freepik--Code--inject-2"><g style="opacity:0.6000000000000001"><polygon points="406.49 146.93 409.33 148.57 409.53 78.38 406.69 76.74 406.49 146.93" style="fill:#F7931E"></polygon><polygon points="406.45 159.25 409.3 160.89 409.32 154.6 406.47 152.96 406.45 159.25" style="fill:#F7931E"></polygon><polygon points="402.68 151.03 405.53 152.67 405.54 146.39 402.7 144.74 402.68 151.03" style="fill:#F7931E"></polygon><polygon points="413.82 163.5 416.66 165.14 416.68 158.85 413.83 157.21 413.82 163.5" style="fill:#F7931E"></polygon><polygon points="414.03 87.79 414.01 94.06 416.86 95.71 416.88 89.43 414.03 87.79" style="fill:#F7931E"></polygon><polygon points="410.2 140.66 413.04 142.31 413.16 102.65 410.31 101.01 410.2 140.66" style="fill:#F7931E"></polygon><polygon points="402.72 136.35 405.57 137.99 405.68 98.33 402.83 96.69 402.72 136.35" style="fill:#F7931E"></polygon><polygon points="413.95 116.08 416.8 117.73 416.83 104.77 413.99 103.13 413.95 116.08" style="fill:#F7931E"></polygon><polygon points="413.88 142.79 416.72 144.43 416.78 124.6 413.93 122.96 413.88 142.79" style="fill:#F7931E"></polygon><polygon points="234.12 125.65 234.11 131.94 236.95 133.58 236.97 127.3 234.12 125.65" style="fill:#F7931E"></polygon><polygon points="222.94 125.5 225.79 127.14 225.81 120.85 222.96 119.21 222.94 125.5" style="fill:#F7931E"></polygon><polygon points="222.98 112.61 225.82 114.25 225.87 99.7 223.02 98.06 222.98 112.61" style="fill:#F7931E"></polygon><polygon points="234.07 144.76 236.91 146.4 236.93 140.12 234.09 138.48 234.07 144.76" style="fill:#F7931E"></polygon><polygon points="226.63 168.82 229.47 170.46 229.65 108.45 226.8 106.8 226.63 168.82" style="fill:#F7931E"></polygon><polygon points="226.48 218.82 229.33 220.46 229.45 178.97 226.6 177.32 226.48 218.82" style="fill:#F7931E"></polygon><polygon points="230.3 170.94 233.15 172.58 233.23 144.27 230.38 142.63 230.3 170.94" style="fill:#F7931E"></polygon><polygon points="230.23 196.23 233.08 197.87 233.13 179.34 230.28 177.7 230.23 196.23" style="fill:#F7931E"></polygon><polygon points="222.77 187.88 225.61 189.52 225.75 142.01 222.9 140.37 222.77 187.88" style="fill:#F7931E"></polygon><polygon points="233.89 208.14 236.74 209.78 236.79 188.59 233.95 186.94 233.89 208.14" style="fill:#F7931E"></polygon><polygon points="233.99 172.45 236.84 174.1 236.87 161.91 234.03 160.27 233.99 172.45" style="fill:#F7931E"></polygon><polygon points="453.27 224.02 453.26 230.31 456.1 231.95 456.12 225.66 453.27 224.02" style="fill:#F7931E"></polygon><polygon points="441.8 326.95 444.65 328.59 444.67 322.3 441.82 320.66 441.8 326.95" style="fill:#F7931E"></polygon><polygon points="453.22 243.85 456.06 245.49 456.08 239.21 453.24 237.57 453.22 243.85" style="fill:#F7931E"></polygon><polygon points="445.64 315.67 448.48 317.31 448.78 212.82 445.94 211.18 445.64 315.67" style="fill:#F7931E"></polygon><polygon points="449.36 302.73 452.2 304.37 452.39 237.09 449.55 235.44 449.36 302.73" style="fill:#F7931E"></polygon><polygon points="442.02 250.99 444.86 252.64 444.9 240.01 442.05 238.37 442.02 250.99" style="fill:#F7931E"></polygon><polygon points="441.94 279.39 444.78 281.04 444.84 259.84 442 258.2 441.94 279.39" style="fill:#F7931E"></polygon><polygon points="441.86 305.81 444.71 307.45 444.77 286.26 441.92 284.61 441.86 305.81" style="fill:#F7931E"></polygon><polygon points="453.06 299.56 455.9 301.2 455.96 280 453.12 278.36 453.06 299.56" style="fill:#F7931E"></polygon><polygon points="453.16 264.64 456 266.29 456.04 253.59 453.19 251.95 453.16 264.64" style="fill:#F7931E"></polygon><polygon points="327.23 61.51 327.21 67.79 330.05 69.43 330.07 63.15 327.23 61.51" style="fill:#F7931E"></polygon><polygon points="315.89 120.2 318.73 121.85 318.75 115.56 315.91 113.92 315.89 120.2" style="fill:#F7931E"></polygon><polygon points="315.85 133.92 318.69 135.56 318.71 129.28 315.87 127.63 315.85 133.92" style="fill:#F7931E"></polygon><polygon points="319.7 116.11 322.54 117.75 322.71 59.85 319.86 58.21 319.7 116.11" style="fill:#F7931E"></polygon><polygon points="323.44 96.85 326.29 98.5 326.37 71.26 323.52 69.61 323.44 96.85" style="fill:#F7931E"></polygon><polygon points="323.36 125.64 326.21 127.28 326.27 105.62 323.42 103.98 323.36 125.64" style="fill:#F7931E"></polygon><polygon points="316.03 71.61 318.87 73.25 318.91 60.63 316.06 58.99 316.03 71.61" style="fill:#F7931E"></polygon><polygon points="315.95 98.84 318.79 100.49 318.83 87.86 315.98 86.22 315.95 98.84" style="fill:#F7931E"></polygon><polygon points="326.98 147.36 329.83 149.01 329.92 115.37 327.08 113.72 326.98 147.36" style="fill:#F7931E"></polygon><polygon points="327.1 106.1 329.94 107.74 330.02 80.65 327.18 79.01 327.1 106.1" style="fill:#F7931E"></polygon><g style="opacity:0.5"><polygon points="406.49 146.93 409.33 148.57 409.53 78.38 406.69 76.74 406.49 146.93" style="fill:#fff"></polygon><polygon points="406.45 159.25 409.3 160.89 409.32 154.6 406.47 152.96 406.45 159.25" style="fill:#fff"></polygon><polygon points="402.68 151.03 405.53 152.67 405.54 146.39 402.7 144.74 402.68 151.03" style="fill:#fff"></polygon><polygon points="413.82 163.5 416.66 165.14 416.68 158.85 413.83 157.21 413.82 163.5" style="fill:#fff"></polygon><polygon points="414.03 87.79 414.01 94.06 416.86 95.71 416.88 89.43 414.03 87.79" style="fill:#fff"></polygon><polygon points="410.2 140.66 413.04 142.31 413.16 102.65 410.31 101.01 410.2 140.66" style="fill:#fff"></polygon><polygon points="402.72 136.35 405.57 137.99 405.68 98.33 402.83 96.69 402.72 136.35" style="fill:#fff"></polygon><polygon points="413.95 116.08 416.8 117.73 416.83 104.77 413.99 103.13 413.95 116.08" style="fill:#fff"></polygon><polygon points="413.88 142.79 416.72 144.43 416.78 124.6 413.93 122.96 413.88 142.79" style="fill:#fff"></polygon><polygon points="234.12 125.65 234.11 131.94 236.95 133.58 236.97 127.3 234.12 125.65" style="fill:#fff"></polygon><polygon points="222.94 125.5 225.79 127.14 225.81 120.85 222.96 119.21 222.94 125.5" style="fill:#fff"></polygon><polygon points="222.98 112.61 225.82 114.25 225.87 99.7 223.02 98.06 222.98 112.61" style="fill:#fff"></polygon><polygon points="234.07 144.76 236.91 146.4 236.93 140.12 234.09 138.48 234.07 144.76" style="fill:#fff"></polygon><polygon points="226.63 168.82 229.47 170.46 229.65 108.45 226.8 106.8 226.63 168.82" style="fill:#fff"></polygon><polygon points="226.48 218.82 229.33 220.46 229.45 178.97 226.6 177.32 226.48 218.82" style="fill:#fff"></polygon><polygon points="230.3 170.94 233.15 172.58 233.23 144.27 230.38 142.63 230.3 170.94" style="fill:#fff"></polygon><polygon points="230.23 196.23 233.08 197.87 233.13 179.34 230.28 177.7 230.23 196.23" style="fill:#fff"></polygon><polygon points="222.77 187.88 225.61 189.52 225.75 142.01 222.9 140.37 222.77 187.88" style="fill:#fff"></polygon><polygon points="233.89 208.14 236.74 209.78 236.79 188.59 233.95 186.94 233.89 208.14" style="fill:#fff"></polygon><polygon points="233.99 172.45 236.84 174.1 236.87 161.91 234.03 160.27 233.99 172.45" style="fill:#fff"></polygon><polygon points="453.27 224.02 453.26 230.31 456.1 231.95 456.12 225.66 453.27 224.02" style="fill:#fff"></polygon><polygon points="441.8 326.95 444.65 328.59 444.67 322.3 441.82 320.66 441.8 326.95" style="fill:#fff"></polygon><polygon points="453.22 243.85 456.06 245.49 456.08 239.21 453.24 237.57 453.22 243.85" style="fill:#fff"></polygon><polygon points="445.64 315.67 448.48 317.31 448.78 212.82 445.94 211.18 445.64 315.67" style="fill:#fff"></polygon><polygon points="449.36 302.73 452.2 304.37 452.39 237.09 449.55 235.44 449.36 302.73" style="fill:#fff"></polygon><polygon points="442.02 250.99 444.86 252.64 444.9 240.01 442.05 238.37 442.02 250.99" style="fill:#fff"></polygon><polygon points="441.94 279.39 444.78 281.04 444.84 259.84 442 258.2 441.94 279.39" style="fill:#fff"></polygon><polygon points="441.86 305.81 444.71 307.45 444.77 286.26 441.92 284.61 441.86 305.81" style="fill:#fff"></polygon><polygon points="453.06 299.56 455.9 301.2 455.96 280 453.12 278.36 453.06 299.56" style="fill:#fff"></polygon><polygon points="453.16 264.64 456 266.29 456.04 253.59 453.19 251.95 453.16 264.64" style="fill:#fff"></polygon><polygon points="327.23 61.51 327.21 67.79 330.05 69.43 330.07 63.15 327.23 61.51" style="fill:#fff"></polygon><polygon points="315.89 120.2 318.73 121.85 318.75 115.56 315.91 113.92 315.89 120.2" style="fill:#fff"></polygon><polygon points="315.85 133.92 318.69 135.56 318.71 129.28 315.87 127.63 315.85 133.92" style="fill:#fff"></polygon><polygon points="319.7 116.11 322.54 117.75 322.71 59.85 319.86 58.21 319.7 116.11" style="fill:#fff"></polygon><polygon points="323.44 96.85 326.29 98.5 326.37 71.26 323.52 69.61 323.44 96.85" style="fill:#fff"></polygon><polygon points="323.36 125.64 326.21 127.28 326.27 105.62 323.42 103.98 323.36 125.64" style="fill:#fff"></polygon><polygon points="316.03 71.61 318.87 73.25 318.91 60.63 316.06 58.99 316.03 71.61" style="fill:#fff"></polygon><polygon points="315.95 98.84 318.79 100.49 318.83 87.86 315.98 86.22 315.95 98.84" style="fill:#fff"></polygon><polygon points="326.98 147.36 329.83 149.01 329.92 115.37 327.08 113.72 326.98 147.36" style="fill:#fff"></polygon><polygon points="327.1 106.1 329.94 107.74 330.02 80.65 327.18 79.01 327.1 106.1" style="fill:#fff"></polygon></g><polygon points="53.73 119.79 53.92 187.63 51.17 189.22 50.98 121.38 53.73 119.79" style="fill:#F7931E"></polygon><polygon points="53.94 193.47 53.95 199.53 51.21 201.12 51.19 195.06 53.94 193.47" style="fill:#F7931E"></polygon><polygon points="57.59 185.51 57.61 191.59 54.86 193.18 54.84 187.1 57.59 185.51" style="fill:#F7931E"></polygon><polygon points="46.82 197.58 46.84 203.64 44.09 205.23 44.07 199.16 46.82 197.58" style="fill:#F7931E"></polygon><polygon points="46.63 130.47 46.65 136.53 43.9 138.12 43.88 132.06 46.63 130.47" style="fill:#F7931E"></polygon><polygon points="50.24 143.24 50.34 181.57 47.6 183.16 47.49 144.83 50.24 143.24" style="fill:#F7931E"></polygon><polygon points="57.46 139.07 57.57 177.4 54.82 178.99 54.71 140.66 57.46 139.07" style="fill:#F7931E"></polygon><polygon points="46.67 145.3 46.71 157.83 43.96 159.41 43.92 146.89 46.67 145.3" style="fill:#F7931E"></polygon><polygon points="46.73 164.47 46.78 183.63 44.03 185.22 43.98 166.05 46.73 164.47" style="fill:#F7931E"></polygon><polygon points="150.49 206.88 150.51 212.95 147.76 214.53 147.74 208.47 150.49 206.88" style="fill:#F7931E"></polygon><polygon points="161.28 200.66 161.29 206.72 158.55 208.31 158.53 202.24 161.28 200.66" style="fill:#F7931E"></polygon><polygon points="161.22 180.21 161.26 194.27 158.51 195.86 158.47 181.79 161.22 180.21" style="fill:#F7931E"></polygon><polygon points="150.53 219.28 150.54 225.34 147.79 226.93 147.78 220.87 150.53 219.28" style="fill:#F7931E"></polygon><polygon points="157.58 188.65 157.75 248.58 154.99 250.18 154.82 190.24 157.58 188.65" style="fill:#F7931E"></polygon><polygon points="157.77 256.81 157.89 296.93 155.13 298.52 155.01 258.41 157.77 256.81" style="fill:#F7931E"></polygon><polygon points="154.11 223.28 154.19 250.64 151.44 252.23 151.36 224.87 154.11 223.28" style="fill:#F7931E"></polygon><polygon points="154.2 257.19 154.25 275.09 151.51 276.68 151.46 258.77 154.2 257.19" style="fill:#F7931E"></polygon><polygon points="161.34 221.09 161.47 267.03 158.72 268.62 158.59 222.68 161.34 221.09" style="fill:#F7931E"></polygon><polygon points="150.66 266.11 150.72 286.6 147.97 288.19 147.91 267.7 150.66 266.11" style="fill:#F7931E"></polygon><polygon points="150.59 240.33 150.62 252.11 147.87 253.7 147.84 241.92 150.59 240.33" style="fill:#F7931E"></polygon><polygon points="76.98 256.04 77 262.1 74.25 263.69 74.23 257.63 76.98 256.04" style="fill:#F7931E"></polygon><polygon points="88.05 349.45 88.06 355.52 85.31 357.11 85.3 351.03 88.05 349.45" style="fill:#F7931E"></polygon><polygon points="77.02 269.13 77.03 275.21 74.28 276.79 74.27 270.72 77.02 269.13" style="fill:#F7931E"></polygon><polygon points="84.07 243.62 84.36 344.63 81.61 346.22 81.32 245.21 84.07 243.62" style="fill:#F7931E"></polygon><polygon points="80.58 267.07 80.77 332.12 78 333.71 77.82 268.67 80.58 267.07" style="fill:#F7931E"></polygon><polygon points="87.82 269.9 87.86 282.11 85.11 283.7 85.07 271.49 87.82 269.9" style="fill:#F7931E"></polygon><polygon points="87.88 289.07 87.93 309.56 85.19 311.15 85.13 290.66 87.88 289.07" style="fill:#F7931E"></polygon><polygon points="87.95 314.61 88.01 335.08 85.26 336.67 85.2 316.19 87.95 314.61" style="fill:#F7931E"></polygon><polygon points="77.13 308.56 77.19 329.05 74.44 330.64 74.38 310.15 77.13 308.56" style="fill:#F7931E"></polygon><polygon points="77.06 283.02 77.09 295.3 74.34 296.88 74.31 284.61 77.06 283.02" style="fill:#F7931E"></polygon><polygon points="138.88 52.05 138.9 58.11 136.15 59.7 136.14 53.63 138.88 52.05" style="fill:#F7931E"></polygon><polygon points="149.83 102.7 149.85 108.77 147.1 110.35 147.08 104.29 149.83 102.7" style="fill:#F7931E"></polygon><polygon points="149.87 115.95 149.89 122.03 147.14 123.62 147.12 117.54 149.87 115.95" style="fill:#F7931E"></polygon><polygon points="146 48.85 146.16 104.82 143.41 106.41 143.26 50.43 146 48.85" style="fill:#F7931E"></polygon><polygon points="142.48 59.87 142.55 86.19 139.8 87.78 139.73 61.45 142.48 59.87" style="fill:#F7931E"></polygon><polygon points="142.57 93.09 142.63 114.02 139.88 115.61 139.82 94.67 142.57 93.09" style="fill:#F7931E"></polygon><polygon points="149.68 49.61 149.72 61.8 146.97 63.39 146.93 51.19 149.68 49.61" style="fill:#F7931E"></polygon><polygon points="149.76 75.92 149.79 88.13 147.04 89.71 147.01 77.51 149.76 75.92" style="fill:#F7931E"></polygon><polygon points="139.03 102.52 139.12 135.03 136.37 136.62 136.28 104.11 139.03 102.52" style="fill:#F7931E"></polygon><polygon points="138.93 68.95 139.01 95.14 136.26 96.73 136.18 70.54 138.93 68.95" style="fill:#F7931E"></polygon><g style="opacity:0.5"><polygon points="53.73 119.79 53.92 187.63 51.17 189.22 50.98 121.38 53.73 119.79" style="fill:#fff"></polygon><polygon points="53.94 193.47 53.95 199.53 51.21 201.12 51.19 195.06 53.94 193.47" style="fill:#fff"></polygon><polygon points="57.59 185.51 57.61 191.59 54.86 193.18 54.84 187.1 57.59 185.51" style="fill:#fff"></polygon><polygon points="46.82 197.58 46.84 203.64 44.09 205.23 44.07 199.16 46.82 197.58" style="fill:#fff"></polygon><polygon points="46.63 130.47 46.65 136.53 43.9 138.12 43.88 132.06 46.63 130.47" style="fill:#fff"></polygon><polygon points="50.24 143.24 50.34 181.57 47.6 183.16 47.49 144.83 50.24 143.24" style="fill:#fff"></polygon><polygon points="57.46 139.07 57.57 177.4 54.82 178.99 54.71 140.66 57.46 139.07" style="fill:#fff"></polygon><polygon points="46.67 145.3 46.71 157.83 43.96 159.41 43.92 146.89 46.67 145.3" style="fill:#fff"></polygon><polygon points="46.73 164.47 46.78 183.63 44.03 185.22 43.98 166.05 46.73 164.47" style="fill:#fff"></polygon><polygon points="150.49 206.88 150.51 212.95 147.76 214.53 147.74 208.47 150.49 206.88" style="fill:#fff"></polygon><polygon points="161.28 200.66 161.29 206.72 158.55 208.31 158.53 202.24 161.28 200.66" style="fill:#fff"></polygon><polygon points="161.22 180.21 161.26 194.27 158.51 195.86 158.47 181.79 161.22 180.21" style="fill:#fff"></polygon><polygon points="150.53 219.28 150.54 225.34 147.79 226.93 147.78 220.87 150.53 219.28" style="fill:#fff"></polygon><polygon points="157.58 188.65 157.75 248.58 154.99 250.18 154.82 190.24 157.58 188.65" style="fill:#fff"></polygon><polygon points="157.77 256.81 157.89 296.93 155.13 298.52 155.01 258.41 157.77 256.81" style="fill:#fff"></polygon><polygon points="154.11 223.28 154.19 250.64 151.44 252.23 151.36 224.87 154.11 223.28" style="fill:#fff"></polygon><polygon points="154.2 257.19 154.25 275.09 151.51 276.68 151.46 258.77 154.2 257.19" style="fill:#fff"></polygon><polygon points="161.34 221.09 161.47 267.03 158.72 268.62 158.59 222.68 161.34 221.09" style="fill:#fff"></polygon><polygon points="150.66 266.11 150.72 286.6 147.97 288.19 147.91 267.7 150.66 266.11" style="fill:#fff"></polygon><polygon points="150.59 240.33 150.62 252.11 147.87 253.7 147.84 241.92 150.59 240.33" style="fill:#fff"></polygon><polygon points="76.98 256.04 77 262.1 74.25 263.69 74.23 257.63 76.98 256.04" style="fill:#fff"></polygon><polygon points="88.05 349.45 88.06 355.52 85.31 357.11 85.3 351.03 88.05 349.45" style="fill:#fff"></polygon><polygon points="77.02 269.13 77.03 275.21 74.28 276.79 74.27 270.72 77.02 269.13" style="fill:#fff"></polygon><polygon points="84.07 243.62 84.36 344.63 81.61 346.22 81.32 245.21 84.07 243.62" style="fill:#fff"></polygon><polygon points="80.58 267.07 80.77 332.12 78 333.71 77.82 268.67 80.58 267.07" style="fill:#fff"></polygon><polygon points="87.82 269.9 87.86 282.11 85.11 283.7 85.07 271.49 87.82 269.9" style="fill:#fff"></polygon><polygon points="87.88 289.07 87.93 309.56 85.19 311.15 85.13 290.66 87.88 289.07" style="fill:#fff"></polygon><polygon points="87.95 314.61 88.01 335.08 85.26 336.67 85.2 316.19 87.95 314.61" style="fill:#fff"></polygon><polygon points="77.13 308.56 77.19 329.05 74.44 330.64 74.38 310.15 77.13 308.56" style="fill:#fff"></polygon><polygon points="77.06 283.02 77.09 295.3 74.34 296.88 74.31 284.61 77.06 283.02" style="fill:#fff"></polygon><polygon points="138.88 52.05 138.9 58.11 136.15 59.7 136.14 53.63 138.88 52.05" style="fill:#fff"></polygon><polygon points="149.83 102.7 149.85 108.77 147.1 110.35 147.08 104.29 149.83 102.7" style="fill:#fff"></polygon><polygon points="149.87 115.95 149.89 122.03 147.14 123.62 147.12 117.54 149.87 115.95" style="fill:#fff"></polygon><polygon points="146 48.85 146.16 104.82 143.41 106.41 143.26 50.43 146 48.85" style="fill:#fff"></polygon><polygon points="142.48 59.87 142.55 86.19 139.8 87.78 139.73 61.45 142.48 59.87" style="fill:#fff"></polygon><polygon points="142.57 93.09 142.63 114.02 139.88 115.61 139.82 94.67 142.57 93.09" style="fill:#fff"></polygon><polygon points="149.68 49.61 149.72 61.8 146.97 63.39 146.93 51.19 149.68 49.61" style="fill:#fff"></polygon><polygon points="149.76 75.92 149.79 88.13 147.04 89.71 147.01 77.51 149.76 75.92" style="fill:#fff"></polygon><polygon points="139.03 102.52 139.12 135.03 136.37 136.62 136.28 104.11 139.03 102.52" style="fill:#fff"></polygon><polygon points="138.93 68.95 139.01 95.14 136.26 96.73 136.18 70.54 138.93 68.95" style="fill:#fff"></polygon></g></g></g><g id="freepik--Lines--inject-2"><path d="M239.84,72.2a1.56,1.56,0,0,1,.7,1.22v1.63c0,.45-.32.63-.71.4a1.55,1.55,0,0,1-.71-1.22V72.6C239.13,72.15,239.45,72,239.84,72.2Z" style="fill:#e0e0e0"></path><path d="M239.82,78.55a1.58,1.58,0,0,1,.71,1.22v3.15c0,.46-.32.64-.71.41a1.57,1.57,0,0,1-.71-1.23V79C239.11,78.51,239.43,78.33,239.82,78.55Z" style="fill:#e0e0e0"></path><path d="M239.8,86.42a1.57,1.57,0,0,1,.7,1.23V90.8c0,.45-.31.63-.71.41a1.57,1.57,0,0,1-.7-1.23V86.84C239.09,86.38,239.41,86.2,239.8,86.42Z" style="fill:#e0e0e0"></path><path d="M239.77,94.3a1.56,1.56,0,0,1,.71,1.23v3.14c0,.46-.31.64-.71.42a1.59,1.59,0,0,1-.71-1.24V94.71C239.06,94.26,239.38,94.08,239.77,94.3Z" style="fill:#e0e0e0"></path><path d="M239.75,102.17a1.56,1.56,0,0,1,.71,1.23v3.15c0,.45-.32.64-.71.41a1.59,1.59,0,0,1-.71-1.23v-3.14C239,102.13,239.36,102,239.75,102.17Z" style="fill:#e0e0e0"></path><path d="M239.73,110.05a1.56,1.56,0,0,1,.71,1.23v3.15c0,.45-.32.64-.71.41a1.59,1.59,0,0,1-.71-1.23v-3.15C239,110,239.34,109.83,239.73,110.05Z" style="fill:#e0e0e0"></path><path d="M239.71,117.93a1.53,1.53,0,0,1,.7,1.23v3.14c0,.45-.31.64-.71.41a1.57,1.57,0,0,1-.7-1.22v-3.15C239,117.88,239.32,117.71,239.71,117.93Z" style="fill:#e0e0e0"></path><path d="M239.69,125.8a1.57,1.57,0,0,1,.7,1.23v3.15c0,.45-.31.64-.71.41a1.55,1.55,0,0,1-.7-1.23v-3.15C239,125.76,239.3,125.58,239.69,125.8Z" style="fill:#e0e0e0"></path><path d="M239.66,133.68a1.54,1.54,0,0,1,.71,1.23v3.15c0,.45-.31.63-.71.4a1.55,1.55,0,0,1-.71-1.22v-3.15C239,133.63,239.27,133.46,239.66,133.68Z" style="fill:#e0e0e0"></path><path d="M239.64,141.56a1.53,1.53,0,0,1,.71,1.22v3.15c0,.45-.32.64-.71.41a1.58,1.58,0,0,1-.71-1.22V142C238.93,141.51,239.25,141.33,239.64,141.56Z" style="fill:#e0e0e0"></path><path d="M239.62,149.44a1.52,1.52,0,0,1,.7,1.22v3.15c0,.45-.32.63-.72.4a1.57,1.57,0,0,1-.7-1.22v-3.15C238.91,149.39,239.23,149.21,239.62,149.44Z" style="fill:#e0e0e0"></path><path d="M239.6,157.31a1.56,1.56,0,0,1,.7,1.22v3.16c0,.44-.31.63-.71.4a1.53,1.53,0,0,1-.7-1.22v-3.16A.44.44,0,0,1,239.6,157.31Z" style="fill:#e0e0e0"></path><path d="M239.57,165.19a1.54,1.54,0,0,1,.71,1.22v3.15c0,.45-.31.64-.71.41a1.57,1.57,0,0,1-.71-1.23v-3.15C238.86,165.14,239.18,165,239.57,165.19Z" style="fill:#e0e0e0"></path><path d="M239.55,173.06a1.54,1.54,0,0,1,.71,1.23v3.15c0,.44-.32.63-.71.4a1.55,1.55,0,0,1-.71-1.22v-3.15C238.84,173,239.16,172.83,239.55,173.06Z" style="fill:#e0e0e0"></path><path d="M239.53,180.94a1.57,1.57,0,0,1,.71,1.22v3.16c0,.44-.32.63-.71.4a1.55,1.55,0,0,1-.71-1.22v-3.16C238.82,180.9,239.14,180.71,239.53,180.94Z" style="fill:#e0e0e0"></path><path d="M239.51,188.82a1.56,1.56,0,0,1,.7,1.22v.82l.72.41a1.57,1.57,0,0,1,.7,1.22c0,.45-.32.63-.71.41l-1.42-.82a1.59,1.59,0,0,1-.71-1.23v-1.63C238.8,188.77,239.12,188.59,239.51,188.82Z" style="fill:#e0e0e0"></path><path d="M283.72,216a1.53,1.53,0,0,1,.71,1.22c0,.45-.32.63-.71.41L280.87,216a1.56,1.56,0,0,1-.71-1.23c0-.44.32-.63.71-.4Z" style="fill:#e0e0e0"></path><path d="M276.59,211.86a1.57,1.57,0,0,1,.71,1.22c0,.45-.32.63-.71.41l-2.86-1.65a1.53,1.53,0,0,1-.7-1.22c0-.45.32-.63.71-.41Z" style="fill:#e0e0e0"></path><path d="M269.46,207.74a1.59,1.59,0,0,1,.71,1.23.44.44,0,0,1-.72.4l-2.85-1.65a1.54,1.54,0,0,1-.71-1.22c0-.45.32-.63.71-.41Z" style="fill:#e0e0e0"></path><path d="M262.32,203.62a1.56,1.56,0,0,1,.71,1.23c0,.45-.32.63-.71.4l-2.85-1.64a1.53,1.53,0,0,1-.71-1.23c0-.45.32-.63.71-.4Z" style="fill:#e0e0e0"></path><path d="M255.19,199.5a1.59,1.59,0,0,1,.71,1.23c0,.44-.32.63-.72.4l-2.85-1.65a1.55,1.55,0,0,1-.71-1.22c0-.45.33-.63.71-.4Z" style="fill:#e0e0e0"></path><path d="M248.06,195.39a1.54,1.54,0,0,1,.7,1.22c0,.45-.32.63-.71.4l-2.85-1.64a1.59,1.59,0,0,1-.71-1.23c0-.44.32-.63.71-.4Z" style="fill:#e0e0e0"></path><path d="M289.42,219.27a1.55,1.55,0,0,1,.71,1.22c0,.45-.32.63-.71.41l-1.42-.82a1.55,1.55,0,0,1-.7-1.22c0-.45.31-.64.71-.41Z" style="fill:#e0e0e0"></path><g style="opacity:0.30000000000000004"><path d="M239.84,72.2a1.56,1.56,0,0,1,.7,1.22v1.63c0,.45-.32.63-.71.4a1.55,1.55,0,0,1-.71-1.22V72.6C239.13,72.15,239.45,72,239.84,72.2Z"></path><path d="M239.82,78.55a1.58,1.58,0,0,1,.71,1.22v3.15c0,.46-.32.64-.71.41a1.57,1.57,0,0,1-.71-1.23V79C239.11,78.51,239.43,78.33,239.82,78.55Z"></path><path d="M239.8,86.42a1.57,1.57,0,0,1,.7,1.23V90.8c0,.45-.31.63-.71.41a1.57,1.57,0,0,1-.7-1.23V86.84C239.09,86.38,239.41,86.2,239.8,86.42Z"></path><path d="M239.77,94.3a1.56,1.56,0,0,1,.71,1.23v3.14c0,.46-.31.64-.71.42a1.59,1.59,0,0,1-.71-1.24V94.71C239.06,94.26,239.38,94.08,239.77,94.3Z"></path><path d="M239.75,102.17a1.56,1.56,0,0,1,.71,1.23v3.15c0,.45-.32.64-.71.41a1.59,1.59,0,0,1-.71-1.23v-3.14C239,102.13,239.36,102,239.75,102.17Z"></path><path d="M239.73,110.05a1.56,1.56,0,0,1,.71,1.23v3.15c0,.45-.32.64-.71.41a1.59,1.59,0,0,1-.71-1.23v-3.15C239,110,239.34,109.83,239.73,110.05Z"></path><path d="M239.71,117.93a1.53,1.53,0,0,1,.7,1.23v3.14c0,.45-.31.64-.71.41a1.57,1.57,0,0,1-.7-1.22v-3.15C239,117.88,239.32,117.71,239.71,117.93Z"></path><path d="M239.69,125.8a1.57,1.57,0,0,1,.7,1.23v3.15c0,.45-.31.64-.71.41a1.55,1.55,0,0,1-.7-1.23v-3.15C239,125.76,239.3,125.58,239.69,125.8Z"></path><path d="M239.66,133.68a1.54,1.54,0,0,1,.71,1.23v3.15c0,.45-.31.63-.71.4a1.55,1.55,0,0,1-.71-1.22v-3.15C239,133.63,239.27,133.46,239.66,133.68Z"></path><path d="M239.64,141.56a1.53,1.53,0,0,1,.71,1.22v3.15c0,.45-.32.64-.71.41a1.58,1.58,0,0,1-.71-1.22V142C238.93,141.51,239.25,141.33,239.64,141.56Z"></path><path d="M239.62,149.44a1.52,1.52,0,0,1,.7,1.22v3.15c0,.45-.32.63-.72.4a1.57,1.57,0,0,1-.7-1.22v-3.15C238.91,149.39,239.23,149.21,239.62,149.44Z"></path><path d="M239.6,157.31a1.56,1.56,0,0,1,.7,1.22v3.16c0,.44-.31.63-.71.4a1.53,1.53,0,0,1-.7-1.22v-3.16A.44.44,0,0,1,239.6,157.31Z"></path><path d="M239.57,165.19a1.54,1.54,0,0,1,.71,1.22v3.15c0,.45-.31.64-.71.41a1.57,1.57,0,0,1-.71-1.23v-3.15C238.86,165.14,239.18,165,239.57,165.19Z"></path><path d="M239.55,173.06a1.54,1.54,0,0,1,.71,1.23v3.15c0,.44-.32.63-.71.4a1.55,1.55,0,0,1-.71-1.22v-3.15C238.84,173,239.16,172.83,239.55,173.06Z"></path><path d="M239.53,180.94a1.57,1.57,0,0,1,.71,1.22v3.16c0,.44-.32.63-.71.4a1.55,1.55,0,0,1-.71-1.22v-3.16C238.82,180.9,239.14,180.71,239.53,180.94Z"></path><path d="M239.51,188.82a1.56,1.56,0,0,1,.7,1.22v.82l.72.41a1.57,1.57,0,0,1,.7,1.22c0,.45-.32.63-.71.41l-1.42-.82a1.59,1.59,0,0,1-.71-1.23v-1.63C238.8,188.77,239.12,188.59,239.51,188.82Z"></path><path d="M283.72,216a1.53,1.53,0,0,1,.71,1.22c0,.45-.32.63-.71.41L280.87,216a1.56,1.56,0,0,1-.71-1.23c0-.44.32-.63.71-.4Z"></path><path d="M276.59,211.86a1.57,1.57,0,0,1,.71,1.22c0,.45-.32.63-.71.41l-2.86-1.65a1.53,1.53,0,0,1-.7-1.22c0-.45.32-.63.71-.41Z"></path><path d="M269.46,207.74a1.59,1.59,0,0,1,.71,1.23.44.44,0,0,1-.72.4l-2.85-1.65a1.54,1.54,0,0,1-.71-1.22c0-.45.32-.63.71-.41Z"></path><path d="M262.32,203.62a1.56,1.56,0,0,1,.71,1.23c0,.45-.32.63-.71.4l-2.85-1.64a1.53,1.53,0,0,1-.71-1.23c0-.45.32-.63.71-.4Z"></path><path d="M255.19,199.5a1.59,1.59,0,0,1,.71,1.23c0,.44-.32.63-.72.4l-2.85-1.65a1.55,1.55,0,0,1-.71-1.22c0-.45.33-.63.71-.4Z"></path><path d="M248.06,195.39a1.54,1.54,0,0,1,.7,1.22c0,.45-.32.63-.71.4l-2.85-1.64a1.59,1.59,0,0,1-.71-1.23c0-.44.32-.63.71-.4Z"></path><path d="M289.42,219.27a1.55,1.55,0,0,1,.71,1.22c0,.45-.32.63-.71.41l-1.42-.82a1.55,1.55,0,0,1-.7-1.22c0-.45.31-.64.71-.41Z"></path></g><path d="M337.49,210.26c.4.23.72.05.72-.4v-1.63a1.57,1.57,0,0,0-.72-1.23c-.39-.23-.71,0-.71.41V209A1.54,1.54,0,0,0,337.49,210.26Z" style="fill:#e0e0e0"></path><path d="M337.56,185.54c.4.23.72.05.72-.4v-3.55a1.56,1.56,0,0,0-.71-1.24c-.39-.22-.71,0-.71.42v3.55A1.58,1.58,0,0,0,337.56,185.54Z" style="fill:#e0e0e0"></path><path d="M337.54,194.43c.4.22.72,0,.72-.41v-3.55a1.57,1.57,0,0,0-.72-1.23c-.39-.23-.71,0-.71.4v3.55A1.59,1.59,0,0,0,337.54,194.43Z" style="fill:#e0e0e0"></path><path d="M337.51,203.3c.4.23.72,0,.72-.4v-3.55a1.59,1.59,0,0,0-.71-1.23c-.39-.22-.71-.05-.71.41v3.55A1.54,1.54,0,0,0,337.51,203.3Z" style="fill:#e0e0e0"></path><path d="M339,174.22l-1.42-.82c-.39-.23-.71,0-.71.4v1.63a1.59,1.59,0,0,0,.71,1.23c.4.22.72,0,.72-.41v-.81l.71.41c.39.22.71,0,.71-.41A1.58,1.58,0,0,0,339,174.22Z" style="fill:#e0e0e0"></path><path d="M367.19,190.48l-2.82-1.63c-.39-.22-.71,0-.71.41a1.55,1.55,0,0,0,.71,1.22l2.82,1.63c.39.23.71,0,.71-.4A1.59,1.59,0,0,0,367.19,190.48Z" style="fill:#e0e0e0"></path><path d="M360.15,186.42l-2.82-1.63c-.39-.23-.71,0-.71.4a1.57,1.57,0,0,0,.7,1.23l2.83,1.63c.38.22.7,0,.71-.41A1.55,1.55,0,0,0,360.15,186.42Z" style="fill:#e0e0e0"></path><path d="M353.11,182.35l-2.82-1.63c-.39-.22-.71,0-.72.41a1.55,1.55,0,0,0,.71,1.22L353.1,184c.39.23.71,0,.71-.4A1.55,1.55,0,0,0,353.11,182.35Z" style="fill:#e0e0e0"></path><path d="M346.07,178.29l-2.83-1.63c-.39-.23-.71,0-.71.4a1.59,1.59,0,0,0,.71,1.23l2.82,1.63c.39.22.71,0,.71-.41A1.57,1.57,0,0,0,346.07,178.29Z" style="fill:#e0e0e0"></path><path d="M371.41,194.55l1.42.82c.39.23.71,0,.71-.4v-1.63a1.57,1.57,0,0,0-.71-1.23c-.4-.22-.71-.05-.71.41v.81l-.71-.41c-.4-.22-.72,0-.72.41A1.58,1.58,0,0,0,371.41,194.55Z" style="fill:#e0e0e0"></path><path d="M372.89,173.15c.39.22.71,0,.72-.41v-3.16a1.55,1.55,0,0,0-.7-1.23c-.4-.23-.71,0-.71.41v3.17A1.56,1.56,0,0,0,372.89,173.15Z" style="fill:#e0e0e0"></path><path d="M372.87,181.07c.39.23.71.05.71-.4V177.5a1.6,1.6,0,0,0-.7-1.23c-.4-.22-.71,0-.72.41v3.17A1.53,1.53,0,0,0,372.87,181.07Z" style="fill:#e0e0e0"></path><path d="M372.85,189c.39.22.71,0,.71-.41v-3.17a1.58,1.58,0,0,0-.71-1.22c-.39-.23-.71,0-.71.41v3.17A1.56,1.56,0,0,0,372.85,189Z" style="fill:#e0e0e0"></path><path d="M372.92,165.23c.39.23.71.05.71-.4V163.2a1.53,1.53,0,0,0-.7-1.22c-.4-.23-.71,0-.71.4V164A1.54,1.54,0,0,0,372.92,165.23Z" style="fill:#e0e0e0"></path><path d="M338.54,216.78l-1.42-.82c-.39-.22-.71,0-.71.41a1.58,1.58,0,0,0,.71,1.22l1.42.82c.39.23.71,0,.71-.41A1.54,1.54,0,0,0,338.54,216.78Z" style="fill:#e0e0e0"></path><path d="M366.39,232.86l-2.78-1.61c-.4-.23-.71,0-.71.41a1.55,1.55,0,0,0,.7,1.22l2.79,1.61c.39.22.71,0,.71-.41A1.55,1.55,0,0,0,366.39,232.86Z" style="fill:#e0e0e0"></path><path d="M359.43,228.84l-2.79-1.61c-.39-.23-.71,0-.71.4a1.59,1.59,0,0,0,.71,1.23l2.79,1.61c.39.22.71,0,.71-.41A1.57,1.57,0,0,0,359.43,228.84Z" style="fill:#e0e0e0"></path><path d="M352.47,224.82l-2.79-1.61c-.39-.22-.71,0-.71.41a1.58,1.58,0,0,0,.71,1.22l2.78,1.61c.39.22.71,0,.71-.41A1.57,1.57,0,0,0,352.47,224.82Z" style="fill:#e0e0e0"></path><path d="M345.51,220.8l-2.79-1.61a.44.44,0,0,0-.72.4,1.59,1.59,0,0,0,.71,1.23l2.79,1.61c.39.22.71,0,.71-.41A1.56,1.56,0,0,0,345.51,220.8Z" style="fill:#e0e0e0"></path><path d="M370.56,236.9l.71.41v.81a1.54,1.54,0,0,0,.71,1.23c.39.22.71.05.71-.41v-1.63a1.58,1.58,0,0,0-.71-1.22l-1.42-.82a.44.44,0,0,0-.72.4A1.59,1.59,0,0,0,370.56,236.9Z" style="fill:#e0e0e0"></path><path d="M372,247.62c.39.22.71,0,.71-.41V243.9a1.55,1.55,0,0,0-.71-1.22c-.39-.23-.72-.05-.72.4v3.31A1.57,1.57,0,0,0,372,247.62Z" style="fill:#e0e0e0"></path><path d="M372.65,252.17A1.52,1.52,0,0,0,372,251c-.4-.23-.72-.06-.72.4v3.3a1.59,1.59,0,0,0,.71,1.23c.39.22.71.05.71-.41v-.92l1.32.76c.39.23.71.05.71-.4a1.56,1.56,0,0,0-.7-1.23l-1.33-.76Z" style="fill:#e0e0e0"></path><path d="M372.63,260.43a1.55,1.55,0,0,0-.71-1.22c-.39-.23-.71,0-.71.4v3.31a1.56,1.56,0,0,0,.71,1.23c.39.22.71,0,.71-.41Z" style="fill:#e0e0e0"></path><path d="M372.61,268.7a1.54,1.54,0,0,0-.71-1.22c-.4-.23-.72-.06-.72.4v3.3a1.57,1.57,0,0,0,.72,1.23c.39.22.71,0,.71-.41Z" style="fill:#e0e0e0"></path><path d="M371.88,275.74c-.4-.23-.72-.05-.72.4v3.31a1.57,1.57,0,0,0,.71,1.22c.39.23.71.05.71-.4V277A1.54,1.54,0,0,0,371.88,275.74Z" style="fill:#e0e0e0"></path><path d="M371.83,292.27c-.4-.23-.72,0-.72.4V296a1.57,1.57,0,0,0,.72,1.22c.39.23.71.05.71-.4v-3.31A1.55,1.55,0,0,0,371.83,292.27Z" style="fill:#e0e0e0"></path><path d="M371.81,300.53c-.4-.22-.72,0-.72.41v.81l-.71-.41c-.39-.22-.71,0-.71.41a1.57,1.57,0,0,0,.7,1.22l1.43.82c.39.23.71,0,.71-.4v-1.63A1.56,1.56,0,0,0,371.81,300.53Z" style="fill:#e0e0e0"></path><path d="M366.2,298.93l-2.78-1.61c-.4-.23-.71,0-.71.41a1.56,1.56,0,0,0,.7,1.22l2.79,1.61c.39.22.71,0,.71-.41A1.57,1.57,0,0,0,366.2,298.93Z" style="fill:#e0e0e0"></path><path d="M359.24,294.91l-2.79-1.61c-.39-.22-.71,0-.71.41a1.58,1.58,0,0,0,.71,1.22l2.79,1.61c.39.23.71,0,.71-.4A1.59,1.59,0,0,0,359.24,294.91Z" style="fill:#e0e0e0"></path><path d="M352.28,290.89l-2.79-1.61c-.39-.22-.71,0-.71.41a1.55,1.55,0,0,0,.71,1.22l2.78,1.61c.4.23.71,0,.71-.41A1.55,1.55,0,0,0,352.28,290.89Z" style="fill:#e0e0e0"></path><path d="M345.32,286.87l-2.79-1.61c-.39-.22-.71,0-.71.41a1.56,1.56,0,0,0,.7,1.22l2.79,1.61a.44.44,0,0,0,.72-.4A1.59,1.59,0,0,0,345.32,286.87Z" style="fill:#e0e0e0"></path><path d="M338.35,282.85l-1.41-.82c-.39-.22-.71,0-.72.41a1.55,1.55,0,0,0,.71,1.22l1.42.82c.39.23.71,0,.71-.41A1.56,1.56,0,0,0,338.35,282.85Z" style="fill:#e0e0e0"></path><path d="M384.88,261.61l2.73,1.58c.39.22.71,0,.71-.41a1.55,1.55,0,0,0-.71-1.22L384.89,260c-.4-.22-.71-.05-.71.41A1.56,1.56,0,0,0,384.88,261.61Z" style="fill:#e0e0e0"></path><path d="M378.06,257.68l2.73,1.57c.39.23.71,0,.71-.41a1.57,1.57,0,0,0-.71-1.22l-2.72-1.57c-.4-.23-.71-.05-.71.4A1.57,1.57,0,0,0,378.06,257.68Z" style="fill:#e0e0e0"></path><path d="M391.7,265.55l1.42.82c.39.22.71,0,.71-.41a1.55,1.55,0,0,0-.71-1.22l-1.41-.82c-.4-.23-.72-.05-.72.4A1.59,1.59,0,0,0,391.7,265.55Z" style="fill:#e0e0e0"></path><path d="M374.14,287l-1.41-.82-.17-.06v-.89a1.57,1.57,0,0,0-.71-1.23c-.39-.22-.71-.05-.71.41v3.3a1.53,1.53,0,0,0,.71,1.22c.39.23.71.05.71-.4v-.85a1.92,1.92,0,0,0,.17.13l1.42.82c.39.22.71.05.71-.41A1.58,1.58,0,0,0,374.14,287Z" style="fill:#e0e0e0"></path><path d="M401.45,302.77l-2.73-1.58c-.4-.23-.71,0-.71.4a1.56,1.56,0,0,0,.7,1.23l2.74,1.58c.39.22.71.05.71-.41A1.55,1.55,0,0,0,401.45,302.77Z" style="fill:#e0e0e0"></path><path d="M394.62,298.82l-2.73-1.57c-.39-.23-.71,0-.71.4a1.54,1.54,0,0,0,.71,1.23l2.72,1.57c.4.23.71.05.72-.4A1.59,1.59,0,0,0,394.62,298.82Z" style="fill:#e0e0e0"></path><path d="M387.79,294.88l-2.73-1.58c-.39-.22-.71,0-.71.41a1.55,1.55,0,0,0,.71,1.22l2.73,1.58c.39.23.71.05.71-.4A1.56,1.56,0,0,0,387.79,294.88Z" style="fill:#e0e0e0"></path><path d="M381,290.94l-2.73-1.58c-.39-.22-.71,0-.72.41a1.55,1.55,0,0,0,.71,1.22l2.73,1.58c.39.23.71.05.71-.4A1.55,1.55,0,0,0,381,290.94Z" style="fill:#e0e0e0"></path><path d="M407,306l-1.42-.82c-.39-.22-.71,0-.71.4a1.57,1.57,0,0,0,.71,1.23l.71.41V308a1.55,1.55,0,0,0,.71,1.23c.4.23.71.05.71-.41v-1.63A1.54,1.54,0,0,0,407,306Z" style="fill:#e0e0e0"></path><path d="M406.94,312.61c-.39-.23-.71,0-.71.4v3.36a1.55,1.55,0,0,0,.71,1.22c.39.23.71,0,.71-.4v-3.36A1.56,1.56,0,0,0,406.94,312.61Z" style="fill:#e0e0e0"></path><path d="M406.92,321c-.39-.23-.71-.05-.71.4v3.35a1.57,1.57,0,0,0,.7,1.23c.4.23.71,0,.71-.41v-3.35A1.5,1.5,0,0,0,406.92,321Z" style="fill:#e0e0e0"></path><path d="M406.89,329.37c-.39-.22-.71,0-.71.41v1.63a1.6,1.6,0,0,0,.7,1.23c.4.23.71,0,.72-.41V330.6A1.56,1.56,0,0,0,406.89,329.37Z" style="fill:#e0e0e0"></path><g style="opacity:0.30000000000000004"><path d="M337.49,210.26c.4.23.72.05.72-.4v-1.63a1.57,1.57,0,0,0-.72-1.23c-.39-.23-.71,0-.71.41V209A1.54,1.54,0,0,0,337.49,210.26Z"></path><path d="M337.56,185.54c.4.23.72.05.72-.4v-3.55a1.56,1.56,0,0,0-.71-1.24c-.39-.22-.71,0-.71.42v3.55A1.58,1.58,0,0,0,337.56,185.54Z"></path><path d="M337.54,194.43c.4.22.72,0,.72-.41v-3.55a1.57,1.57,0,0,0-.72-1.23c-.39-.23-.71,0-.71.4v3.55A1.59,1.59,0,0,0,337.54,194.43Z"></path><path d="M337.51,203.3c.4.23.72,0,.72-.4v-3.55a1.59,1.59,0,0,0-.71-1.23c-.39-.22-.71-.05-.71.41v3.55A1.54,1.54,0,0,0,337.51,203.3Z"></path><path d="M339,174.22l-1.42-.82c-.39-.23-.71,0-.71.4v1.63a1.59,1.59,0,0,0,.71,1.23c.4.22.72,0,.72-.41v-.81l.71.41c.39.22.71,0,.71-.41A1.58,1.58,0,0,0,339,174.22Z"></path><path d="M367.19,190.48l-2.82-1.63c-.39-.22-.71,0-.71.41a1.55,1.55,0,0,0,.71,1.22l2.82,1.63c.39.23.71,0,.71-.4A1.59,1.59,0,0,0,367.19,190.48Z"></path><path d="M360.15,186.42l-2.82-1.63c-.39-.23-.71,0-.71.4a1.57,1.57,0,0,0,.7,1.23l2.83,1.63c.38.22.7,0,.71-.41A1.55,1.55,0,0,0,360.15,186.42Z"></path><path d="M353.11,182.35l-2.82-1.63c-.39-.22-.71,0-.72.41a1.55,1.55,0,0,0,.71,1.22L353.1,184c.39.23.71,0,.71-.4A1.55,1.55,0,0,0,353.11,182.35Z"></path><path d="M346.07,178.29l-2.83-1.63c-.39-.23-.71,0-.71.4a1.59,1.59,0,0,0,.71,1.23l2.82,1.63c.39.22.71,0,.71-.41A1.57,1.57,0,0,0,346.07,178.29Z"></path><path d="M371.41,194.55l1.42.82c.39.23.71,0,.71-.4v-1.63a1.57,1.57,0,0,0-.71-1.23c-.4-.22-.71-.05-.71.41v.81l-.71-.41c-.4-.22-.72,0-.72.41A1.58,1.58,0,0,0,371.41,194.55Z"></path><path d="M372.89,173.15c.39.22.71,0,.72-.41v-3.16a1.55,1.55,0,0,0-.7-1.23c-.4-.23-.71,0-.71.41v3.17A1.56,1.56,0,0,0,372.89,173.15Z"></path><path d="M372.87,181.07c.39.23.71.05.71-.4V177.5a1.6,1.6,0,0,0-.7-1.23c-.4-.22-.71,0-.72.41v3.17A1.53,1.53,0,0,0,372.87,181.07Z"></path><path d="M372.85,189c.39.22.71,0,.71-.41v-3.17a1.58,1.58,0,0,0-.71-1.22c-.39-.23-.71,0-.71.41v3.17A1.56,1.56,0,0,0,372.85,189Z"></path><path d="M372.92,165.23c.39.23.71.05.71-.4V163.2a1.53,1.53,0,0,0-.7-1.22c-.4-.23-.71,0-.71.4V164A1.54,1.54,0,0,0,372.92,165.23Z"></path><path d="M338.54,216.78l-1.42-.82c-.39-.22-.71,0-.71.41a1.58,1.58,0,0,0,.71,1.22l1.42.82c.39.23.71,0,.71-.41A1.54,1.54,0,0,0,338.54,216.78Z"></path><path d="M366.39,232.86l-2.78-1.61c-.4-.23-.71,0-.71.41a1.55,1.55,0,0,0,.7,1.22l2.79,1.61c.39.22.71,0,.71-.41A1.55,1.55,0,0,0,366.39,232.86Z"></path><path d="M359.43,228.84l-2.79-1.61c-.39-.23-.71,0-.71.4a1.59,1.59,0,0,0,.71,1.23l2.79,1.61c.39.22.71,0,.71-.41A1.57,1.57,0,0,0,359.43,228.84Z"></path><path d="M352.47,224.82l-2.79-1.61c-.39-.22-.71,0-.71.41a1.58,1.58,0,0,0,.71,1.22l2.78,1.61c.39.22.71,0,.71-.41A1.57,1.57,0,0,0,352.47,224.82Z"></path><path d="M345.51,220.8l-2.79-1.61a.44.44,0,0,0-.72.4,1.59,1.59,0,0,0,.71,1.23l2.79,1.61c.39.22.71,0,.71-.41A1.56,1.56,0,0,0,345.51,220.8Z"></path><path d="M370.56,236.9l.71.41v.81a1.54,1.54,0,0,0,.71,1.23c.39.22.71.05.71-.41v-1.63a1.58,1.58,0,0,0-.71-1.22l-1.42-.82a.44.44,0,0,0-.72.4A1.59,1.59,0,0,0,370.56,236.9Z"></path><path d="M372,247.62c.39.22.71,0,.71-.41V243.9a1.55,1.55,0,0,0-.71-1.22c-.39-.23-.72-.05-.72.4v3.31A1.57,1.57,0,0,0,372,247.62Z"></path><path d="M372.65,252.17A1.52,1.52,0,0,0,372,251c-.4-.23-.72-.06-.72.4v3.3a1.59,1.59,0,0,0,.71,1.23c.39.22.71.05.71-.41v-.92l1.32.76c.39.23.71.05.71-.4a1.56,1.56,0,0,0-.7-1.23l-1.33-.76Z"></path><path d="M372.63,260.43a1.55,1.55,0,0,0-.71-1.22c-.39-.23-.71,0-.71.4v3.31a1.56,1.56,0,0,0,.71,1.23c.39.22.71,0,.71-.41Z"></path><path d="M372.61,268.7a1.54,1.54,0,0,0-.71-1.22c-.4-.23-.72-.06-.72.4v3.3a1.57,1.57,0,0,0,.72,1.23c.39.22.71,0,.71-.41Z"></path><path d="M371.88,275.74c-.4-.23-.72-.05-.72.4v3.31a1.57,1.57,0,0,0,.71,1.22c.39.23.71.05.71-.4V277A1.54,1.54,0,0,0,371.88,275.74Z"></path><path d="M371.83,292.27c-.4-.23-.72,0-.72.4V296a1.57,1.57,0,0,0,.72,1.22c.39.23.71.05.71-.4v-3.31A1.55,1.55,0,0,0,371.83,292.27Z"></path><path d="M371.81,300.53c-.4-.22-.72,0-.72.41v.81l-.71-.41c-.39-.22-.71,0-.71.41a1.57,1.57,0,0,0,.7,1.22l1.43.82c.39.23.71,0,.71-.4v-1.63A1.56,1.56,0,0,0,371.81,300.53Z"></path><path d="M366.2,298.93l-2.78-1.61c-.4-.23-.71,0-.71.41a1.56,1.56,0,0,0,.7,1.22l2.79,1.61c.39.22.71,0,.71-.41A1.57,1.57,0,0,0,366.2,298.93Z"></path><path d="M359.24,294.91l-2.79-1.61c-.39-.22-.71,0-.71.41a1.58,1.58,0,0,0,.71,1.22l2.79,1.61c.39.23.71,0,.71-.4A1.59,1.59,0,0,0,359.24,294.91Z"></path><path d="M352.28,290.89l-2.79-1.61c-.39-.22-.71,0-.71.41a1.55,1.55,0,0,0,.71,1.22l2.78,1.61c.4.23.71,0,.71-.41A1.55,1.55,0,0,0,352.28,290.89Z"></path><path d="M345.32,286.87l-2.79-1.61c-.39-.22-.71,0-.71.41a1.56,1.56,0,0,0,.7,1.22l2.79,1.61a.44.44,0,0,0,.72-.4A1.59,1.59,0,0,0,345.32,286.87Z"></path><path d="M338.35,282.85l-1.41-.82c-.39-.22-.71,0-.72.41a1.55,1.55,0,0,0,.71,1.22l1.42.82c.39.23.71,0,.71-.41A1.56,1.56,0,0,0,338.35,282.85Z"></path><path d="M384.88,261.61l2.73,1.58c.39.22.71,0,.71-.41a1.55,1.55,0,0,0-.71-1.22L384.89,260c-.4-.22-.71-.05-.71.41A1.56,1.56,0,0,0,384.88,261.61Z"></path><path d="M378.06,257.68l2.73,1.57c.39.23.71,0,.71-.41a1.57,1.57,0,0,0-.71-1.22l-2.72-1.57c-.4-.23-.71-.05-.71.4A1.57,1.57,0,0,0,378.06,257.68Z"></path><path d="M391.7,265.55l1.42.82c.39.22.71,0,.71-.41a1.55,1.55,0,0,0-.71-1.22l-1.41-.82c-.4-.23-.72-.05-.72.4A1.59,1.59,0,0,0,391.7,265.55Z"></path><path d="M374.14,287l-1.41-.82-.17-.06v-.89a1.57,1.57,0,0,0-.71-1.23c-.39-.22-.71-.05-.71.41v3.3a1.53,1.53,0,0,0,.71,1.22c.39.23.71.05.71-.4v-.85a1.92,1.92,0,0,0,.17.13l1.42.82c.39.22.71.05.71-.41A1.58,1.58,0,0,0,374.14,287Z"></path><path d="M401.45,302.77l-2.73-1.58c-.4-.23-.71,0-.71.4a1.56,1.56,0,0,0,.7,1.23l2.74,1.58c.39.22.71.05.71-.41A1.55,1.55,0,0,0,401.45,302.77Z"></path><path d="M394.62,298.82l-2.73-1.57c-.39-.23-.71,0-.71.4a1.54,1.54,0,0,0,.71,1.23l2.72,1.57c.4.23.71.05.72-.4A1.59,1.59,0,0,0,394.62,298.82Z"></path><path d="M387.79,294.88l-2.73-1.58c-.39-.22-.71,0-.71.41a1.55,1.55,0,0,0,.71,1.22l2.73,1.58c.39.23.71.05.71-.4A1.56,1.56,0,0,0,387.79,294.88Z"></path><path d="M381,290.94l-2.73-1.58c-.39-.22-.71,0-.72.41a1.55,1.55,0,0,0,.71,1.22l2.73,1.58c.39.23.71.05.71-.4A1.55,1.55,0,0,0,381,290.94Z"></path><path d="M407,306l-1.42-.82c-.39-.22-.71,0-.71.4a1.57,1.57,0,0,0,.71,1.23l.71.41V308a1.55,1.55,0,0,0,.71,1.23c.4.23.71.05.71-.41v-1.63A1.54,1.54,0,0,0,407,306Z"></path><path d="M406.94,312.61c-.39-.23-.71,0-.71.4v3.36a1.55,1.55,0,0,0,.71,1.22c.39.23.71,0,.71-.4v-3.36A1.56,1.56,0,0,0,406.94,312.61Z"></path><path d="M406.92,321c-.39-.23-.71-.05-.71.4v3.35a1.57,1.57,0,0,0,.7,1.23c.4.23.71,0,.71-.41v-3.35A1.5,1.5,0,0,0,406.92,321Z"></path><path d="M406.89,329.37c-.39-.22-.71,0-.71.41v1.63a1.6,1.6,0,0,0,.7,1.23c.4.23.71,0,.72-.41V330.6A1.56,1.56,0,0,0,406.89,329.37Z"></path></g></g><g id="freepik--Padlock--inject-2"><path d="M439.82,245.69l-40.28-23.47c-1.89-1.09-3.59-1.17-4.81-.42h0l-4.85,2.84c1.21-.69,2.89-.58,4.73.48l40.28,23.47a14.67,14.67,0,0,1,6.66,11.53L441.24,304c0,2-.7,3.47-1.82,4.2h0l4.72-2.77.13-.08.12-.07h0c1.1-.73,1.78-2.17,1.79-4.18l.31-43.89A14.69,14.69,0,0,0,439.82,245.69Z" style="fill:#F7931E"></path><path d="M439.82,245.69l-40.28-23.47c-1.89-1.09-3.59-1.17-4.81-.42h0l-4.85,2.84c1.21-.69,2.89-.58,4.73.48l40.28,23.47a14.67,14.67,0,0,1,6.66,11.53L441.24,304c0,2-.7,3.47-1.82,4.2h0l4.72-2.77.13-.08.12-.07h0c1.1-.73,1.78-2.17,1.79-4.18l.31-43.89A14.69,14.69,0,0,0,439.82,245.69Z" style="opacity:0.4"></path><path d="M389.84,224.65h0l0,0Z" style="fill:#455a64"></path><path d="M441.24,304l.31-43.89a14.67,14.67,0,0,0-6.66-11.53l-40.28-23.47c-1.84-1.06-3.52-1.17-4.73-.48h0l0,0c-1.19.7-1.93,2.17-1.94,4.27l-.31,43.89a14.66,14.66,0,0,0,6.66,11.53l40.29,23.47c1.92,1.12,3.66,1.17,4.88.38S441.23,306,441.24,304Z" style="fill:#F7931E"></path><path d="M441.24,304l.31-43.89a14.67,14.67,0,0,0-6.66-11.53l-40.28-23.47c-1.84-1.06-3.52-1.17-4.73-.48h0l0,0c-1.19.7-1.93,2.17-1.94,4.27l-.31,43.89a14.66,14.66,0,0,0,6.66,11.53l40.29,23.47c1.92,1.12,3.66,1.17,4.88.38S441.23,306,441.24,304Z" style="opacity:0.2"></path><path d="M439.82,245.69l-40.28-23.47c-1.89-1.09-3.59-1.17-4.81-.42h0l-4.85,2.84c1.21-.69,2.89-.58,4.73.48l40.28,23.47a14.67,14.67,0,0,1,6.66,11.53L441.24,304c0,2-.7,3.47-1.82,4.2h0l4.72-2.77.13-.08.12-.07h0c1.1-.73,1.78-2.17,1.79-4.18l.31-43.89A14.69,14.69,0,0,0,439.82,245.69Z" style="fill:#fff;opacity:0.2"></path><path d="M441.24,304l.31-43.89a14.67,14.67,0,0,0-6.66-11.53l-40.28-23.47c-1.84-1.06-3.52-1.17-4.73-.48h0l0,0c-1.19.7-1.93,2.17-1.94,4.27l-.31,43.89a14.66,14.66,0,0,0,6.66,11.53l40.29,23.47c1.92,1.12,3.66,1.17,4.88.38S441.23,306,441.24,304Z" style="fill:#fff;opacity:0.30000000000000004"></path><g style="opacity:0.7000000000000001"><path d="M424.34,267.75l3.48,2-.07,24.3L401.32,278.8l.07-24.3,3.47,2,0-5.77c0-6.18,4.4-8.68,9.77-5.57s9.73,10.64,9.71,16.81Zm-3.77-2.18,0-5.77a13.13,13.13,0,0,0-5.95-10.3c-3.29-1.9-6-.37-6,3.41l0,5.78,11.93,6.88m-3.94,16.13-.8-8.08c.94,0,1.6-.72,1.6-2a6.22,6.22,0,0,0-2.84-4.91c-1.57-.91-2.85-.19-2.85,1.62a6.2,6.2,0,0,0,1.6,3.87l-.83,7.12,4.12,2.38" style="fill:#fff"></path></g></g><g id="freepik--Datas--inject-2"><path d="M427.73,140.59l-68.67-39.95c-2-1.13-3.72-1.22-5-.45h0l-5,2.94c1.26-.71,3-.6,4.9.5l68.67,40a15.21,15.21,0,0,1,6.91,12l-.32,45.53c0,2.1-.72,3.6-1.88,4.35h0l4.88-2.86.15-.09.12-.07h0c1.14-.76,1.85-2.25,1.86-4.33l.32-45.54A15.22,15.22,0,0,0,427.73,140.59Z" style="fill:#F7931E"></path><path d="M427.73,140.59l-68.67-39.95c-2-1.13-3.72-1.22-5-.45h0l-5,2.94c1.26-.71,3-.6,4.9.5l68.67,40a15.21,15.21,0,0,1,6.91,12l-.32,45.53c0,2.1-.72,3.6-1.88,4.35h0l4.88-2.86.15-.09.12-.07h0c1.14-.76,1.85-2.25,1.86-4.33l.32-45.54A15.22,15.22,0,0,0,427.73,140.59Z" style="opacity:0.4"></path><path d="M349,103.16h0l0,0Z" style="fill:#455a64"></path><path d="M429.2,201.08l.32-45.53a15.21,15.21,0,0,0-6.91-12l-68.67-40c-1.91-1.1-3.64-1.21-4.9-.5h0l0,0c-1.24.73-2,2.26-2,4.43l-.33,45.54a15.26,15.26,0,0,0,6.91,12l68.67,40c2,1.15,3.81,1.21,5.08.38S429.19,203.18,429.2,201.08Z" style="fill:#F7931E"></path><path d="M429.2,201.08l.32-45.53a15.21,15.21,0,0,0-6.91-12l-68.67-40c-1.91-1.1-3.64-1.21-4.9-.5h0l0,0c-1.24.73-2,2.26-2,4.43l-.33,45.54a15.26,15.26,0,0,0,6.91,12l68.67,40c2,1.15,3.81,1.21,5.08.38S429.19,203.18,429.2,201.08Z" style="opacity:0.2"></path><path d="M427.73,140.59l-68.67-39.95c-2-1.13-3.72-1.22-5-.45h0l-5,2.94c1.26-.71,3-.6,4.9.5l68.67,40a15.21,15.21,0,0,1,6.91,12l-.32,45.53c0,2.1-.72,3.6-1.88,4.35h0l4.88-2.86.15-.09.12-.07h0c1.14-.76,1.85-2.25,1.86-4.33l.32-45.54A15.22,15.22,0,0,0,427.73,140.59Z" style="fill:#fff;opacity:0.2"></path><path d="M429.2,201.08l.32-45.53a15.21,15.21,0,0,0-6.91-12l-68.67-40c-1.91-1.1-3.64-1.21-4.9-.5h0l0,0c-1.24.73-2,2.26-2,4.43l-.33,45.54a15.26,15.26,0,0,0,6.91,12l68.67,40c2,1.15,3.81,1.21,5.08.38S429.19,203.18,429.2,201.08Z" style="fill:#fff;opacity:0.30000000000000004"></path><path d="M356.26,160.49a10,10,0,0,1-4.26-7.35l.31-44.28,67.61,39.33a10,10,0,0,1,4.27,7.34l-.32,44.29Z" style="fill:#fff;opacity:0.2"></path><g style="opacity:0.7000000000000001"><path d="M368.11,126.31a14.32,14.32,0,0,1,6.51,11.26c0,3.13-1.69,4.85-4.07,4.6v2.05l5.84,5.07a11.7,11.7,0,0,1,3.95,8.14l-.05,9.73L368,160.07,355.71,153l.05-9.73c0-2.76,1.65-4.23,4-3.56l5.84,1.67v-2a14.38,14.38,0,0,1-4-9.26C361.58,125.9,364.51,124.23,368.11,126.31Z" style="fill:#fff"></path></g><g style="opacity:0.7000000000000001"><polygon points="417.79 157.63 417.78 159.91 388.13 142.78 388.14 140.49 417.79 157.63" style="fill:#fff"></polygon><polygon points="404.03 161.03 404.02 163.32 388.1 154.11 388.11 151.82 404.03 161.03" style="fill:#fff"></polygon><polygon points="409.78 160.57 409.77 162.85 388.11 150.33 388.12 148.04 409.78 160.57" style="fill:#fff"></polygon><polygon points="417.78 161.41 417.77 163.69 388.12 146.55 388.13 144.27 417.78 161.41" style="fill:#fff"></polygon><polygon points="405.53 146.15 405.52 148.43 388.15 138.38 388.15 136.09 405.53 146.15" style="fill:#fff"></polygon><polygon points="410.59 183.23 410.59 185.51 388.05 172.48 388.06 170.2 410.59 183.23" style="fill:#fff"></polygon><polygon points="409.75 170.77 409.74 173.06 388.08 160.53 388.09 158.25 409.75 170.77" style="fill:#fff"></polygon><polygon points="417.71 183.56 417.71 185.84 388.06 168.71 388.07 166.42 417.71 183.56" style="fill:#fff"></polygon><polygon points="417.72 179.78 417.72 182.06 388.07 164.92 388.08 162.64 417.72 179.78" style="fill:#fff"></polygon></g><path d="M427.16,335l-48-28c-1.89-1.09-3.59-1.17-4.81-.43h0l-4.85,2.84c1.21-.69,2.88-.58,4.72.48l48,28a14.71,14.71,0,0,1,6.66,11.54l-.31,43.89c0,2-.7,3.46-1.82,4.19h0l4.71-2.76.14-.08.12-.07h0a4.81,4.81,0,0,0,1.79-4.18l.31-43.89A14.67,14.67,0,0,0,427.16,335Z" style="fill:#F7931E"></path><path d="M427.16,335l-48-28c-1.89-1.09-3.59-1.17-4.81-.43h0l-4.85,2.84c1.21-.69,2.88-.58,4.72.48l48,28a14.71,14.71,0,0,1,6.66,11.54l-.31,43.89c0,2-.7,3.46-1.82,4.19h0l4.71-2.76.14-.08.12-.07h0a4.81,4.81,0,0,0,1.79-4.18l.31-43.89A14.67,14.67,0,0,0,427.16,335Z" style="opacity:0.4"></path><path d="M369.44,309.41h0l0,0Z" style="fill:#455a64"></path><path d="M428.58,393.29l.31-43.89a14.71,14.71,0,0,0-6.66-11.54l-48-28c-1.84-1.06-3.51-1.17-4.72-.48h0l0,0c-1.19.7-1.93,2.17-1.94,4.27l-.31,43.89a14.69,14.69,0,0,0,6.66,11.54l48,28c1.93,1.11,3.67,1.17,4.89.37S428.57,395.31,428.58,393.29Z" style="fill:#F7931E"></path><path d="M428.58,393.29l.31-43.89a14.71,14.71,0,0,0-6.66-11.54l-48-28c-1.84-1.06-3.51-1.17-4.72-.48h0l0,0c-1.19.7-1.93,2.17-1.94,4.27l-.31,43.89a14.69,14.69,0,0,0,6.66,11.54l48,28c1.93,1.11,3.67,1.17,4.89.37S428.57,395.31,428.58,393.29Z" style="opacity:0.2"></path><path d="M427.16,335l-48-28c-1.89-1.09-3.59-1.17-4.81-.43h0l-4.85,2.84c1.21-.69,2.88-.58,4.72.48l48,28a14.71,14.71,0,0,1,6.66,11.54l-.31,43.89c0,2-.7,3.46-1.82,4.19h0l4.71-2.76.14-.08.12-.07h0a4.81,4.81,0,0,0,1.79-4.18l.31-43.89A14.67,14.67,0,0,0,427.16,335Z" style="fill:#fff;opacity:0.2"></path><path d="M428.58,393.29l.31-43.89a14.71,14.71,0,0,0-6.66-11.54l-48-28c-1.84-1.06-3.51-1.17-4.72-.48h0l0,0c-1.19.7-1.93,2.17-1.94,4.27l-.31,43.89a14.69,14.69,0,0,0,6.66,11.54l48,28c1.93,1.11,3.67,1.17,4.89.37S428.57,395.31,428.58,393.29Z" style="fill:#fff;opacity:0.30000000000000004"></path><g style="opacity:0.7000000000000001"><polygon points="410.88 360.25 410.88 362.95 406.96 360.69 406.97 357.99 410.88 360.25" style="fill:#fff"></polygon><polygon points="421.45 350.3 421.45 353 415.52 349.58 415.53 346.88 421.45 350.3" style="fill:#fff"></polygon><polygon points="421.46 346.3 421.46 348.99 415.53 345.57 415.54 342.88 421.46 346.3" style="fill:#fff"></polygon><polygon points="377.07 324.67 377.06 327.36 373.45 325.28 373.46 322.59 377.07 324.67" style="fill:#fff"></polygon><polygon points="377.02 340.69 377.02 343.39 373.41 341.3 373.42 338.61 377.02 340.69" style="fill:#fff"></polygon><polygon points="403.18 374.94 403.18 377.63 379.31 363.82 379.31 361.13 403.18 374.94" style="fill:#fff"></polygon><polygon points="401.2 369.82 401.19 372.51 379.32 359.85 379.33 357.16 401.2 369.82" style="fill:#fff"></polygon><polygon points="401.21 365.84 401.2 368.54 379.33 355.88 379.34 353.18 401.21 365.84" style="fill:#fff"></polygon><polygon points="419.67 384.46 419.66 387.15 406.1 379.32 406.11 376.63 419.67 384.46" style="fill:#fff"></polygon><polygon points="377.02 351.85 377.02 354.55 373.41 352.46 373.42 349.77 377.02 351.85" style="fill:#fff"></polygon><polygon points="404.57 356.61 404.57 359.3 379.33 344.72 379.34 342.03 404.57 356.61" style="fill:#fff"></polygon><polygon points="402.59 351.45 402.58 354.14 379.34 340.72 379.35 338.02 402.59 351.45" style="fill:#fff"></polygon><polygon points="402.6 347.44 402.59 350.14 379.35 336.71 379.36 334.01 402.6 347.44" style="fill:#fff"></polygon><polygon points="410.92 348.23 410.91 350.93 379.36 332.7 379.37 330.01 410.92 348.23" style="fill:#fff"></polygon><polygon points="410.93 344.23 410.92 346.92 379.38 328.7 379.38 326 410.93 344.23" style="fill:#fff"></polygon><polygon points="410.94 340.22 410.93 342.92 379.39 324.69 379.39 322 410.94 340.22" style="fill:#fff"></polygon></g></g><g id="freepik--Fingerprint--inject-2"><path d="M347.28,207.36,267.5,161.3c-1.95-1.13-3.72-1.22-5-.45h0l-5,2.94c1.26-.71,3-.6,4.91.5l79.78,46.06a15.23,15.23,0,0,1,6.91,12l-.32,114.24c0,2.1-.73,3.59-1.89,4.35h0l4.89-2.86.14-.09.13-.07h0c1.15-.77,1.86-2.25,1.86-4.34l.33-114.24A15.21,15.21,0,0,0,347.28,207.36Z" style="fill:#F7931E"></path><path d="M347.28,207.36,267.5,161.3c-1.95-1.13-3.72-1.22-5-.45h0l-5,2.94c1.26-.71,3-.6,4.91.5l79.78,46.06a15.23,15.23,0,0,1,6.91,12l-.32,114.24c0,2.1-.73,3.59-1.89,4.35h0l4.89-2.86.14-.09.13-.07h0c1.15-.77,1.86-2.25,1.86-4.34l.33-114.24A15.21,15.21,0,0,0,347.28,207.36Z" style="opacity:0.4"></path><path d="M257.44,163.82h0l0,0Z" style="fill:#455a64"></path><path d="M348.76,336.56l.32-114.24a15.23,15.23,0,0,0-6.91-12l-79.78-46.06c-1.91-1.1-3.65-1.21-4.91-.5h0l0,0c-1.23.73-2,2.26-2,4.43l-.32,114.24a15.23,15.23,0,0,0,6.91,12l79.78,46.06c2,1.16,3.8,1.22,5.07.39S348.75,338.66,348.76,336.56Z" style="fill:#F7931E"></path><path d="M348.76,336.56l.32-114.24a15.23,15.23,0,0,0-6.91-12l-79.78-46.06c-1.91-1.1-3.65-1.21-4.91-.5h0l0,0c-1.23.73-2,2.26-2,4.43l-.32,114.24a15.23,15.23,0,0,0,6.91,12l79.78,46.06c2,1.16,3.8,1.22,5.07.39S348.75,338.66,348.76,336.56Z" style="opacity:0.2"></path><path d="M347.28,207.36,267.5,161.3c-1.95-1.13-3.72-1.22-5-.45h0l-5,2.94c1.26-.71,3-.6,4.91.5l79.78,46.06a15.23,15.23,0,0,1,6.91,12l-.32,114.24c0,2.1-.73,3.59-1.89,4.35h0l4.89-2.86.14-.09.13-.07h0c1.15-.77,1.86-2.25,1.86-4.34l.33-114.24A15.21,15.21,0,0,0,347.28,207.36Z" style="fill:#fff;opacity:0.2"></path><path d="M348.76,336.56l.32-114.24a15.23,15.23,0,0,0-6.91-12l-79.78-46.06c-1.91-1.1-3.65-1.21-4.91-.5h0l0,0c-1.23.73-2,2.26-2,4.43l-.32,114.24a15.23,15.23,0,0,0,6.91,12l79.78,46.06c2,1.16,3.8,1.22,5.07.39S348.75,338.66,348.76,336.56Z" style="fill:#fff;opacity:0.1"></path><g style="opacity:0.7000000000000001"><path d="M299.18,252.27a6.3,6.3,0,0,1,2.25,2.35,6.15,6.15,0,0,1,.5,5.05c-1.27,4.06-4.11,6.72-7.78,7.31a1,1,0,0,1-.61-.15,2.38,2.38,0,0,1-1-1.14c-.33-.8-.18-1.52.35-1.61,3.22-.51,5.71-2.85,6.83-6.41a3,3,0,0,0,0-2.21,1.73,1.73,0,0,0-.61-.59,1.51,1.51,0,0,0-.55-.19,2.28,2.28,0,0,0-1.57.57,14.92,14.92,0,0,0-5.62,9.21c-.12.53-.58.68-1.1.38l-.26-.18a2.38,2.38,0,0,1-.84-2.05c1-4.46,3.13-7.94,6.14-10.07a3.4,3.4,0,0,1,2.43-.76A3.84,3.84,0,0,1,299.18,252.27Z" style="fill:#fff"></path><path d="M306.53,292.66a2.49,2.49,0,0,1,1.13,1.85c0,.74-.41,1.1-1,.8l-3.44-1.67-.09-.05a2.52,2.52,0,0,1-1.13-1.85c0-.74.42-1.1,1-.8l3.45,1.67Z" style="fill:#fff"></path><path d="M303.38,223.29a41.92,41.92,0,0,1,14.5,15,85,85,0,0,1,5.26,11.67c1.88,4.81,3.65,9.36,6.47,13.34.5.71.61,1.59.24,2a.73.73,0,0,1-.92,0,2.15,2.15,0,0,1-.66-.63c-3.2-4.52-5.17-9.59-7.09-14.49a79.94,79.94,0,0,0-4.9-10.93,37.13,37.13,0,0,0-12.9-13.3l-.66-.37c-4.75-2.55-9.71-3.29-14-2.07-3.77,1.07-7.13,3.62-10,7.57a.69.69,0,0,1-1,.08,2,2,0,0,1-.57-.5,1.89,1.89,0,0,1-.4-2c3-4.16,6.58-6.85,10.6-8,4.64-1.32,10.07-.51,15.26,2.29Z" style="fill:#fff"></path><path d="M307,289.91a28.27,28.27,0,0,1,4.92,3.63,2.28,2.28,0,0,1,.78,2c-.15.49-.6.6-1.1.31a1.9,1.9,0,0,1-.31-.23,25.79,25.79,0,0,0-4.31-3.18,14,14,0,0,0-8.25-2.18.94.94,0,0,1-.58-.15,2.45,2.45,0,0,1-1-1.19c-.32-.8-.14-1.5.4-1.56A16,16,0,0,1,307,289.91Z" style="fill:#fff"></path><path d="M308.65,287.05a50.55,50.55,0,0,1,8,5.78,2.33,2.33,0,0,1,.8,2.06c-.13.5-.59.63-1.09.34A2.64,2.64,0,0,1,316,295a46.55,46.55,0,0,0-7.4-5.37c-5.13-3-10.25-4.39-14.73-4a1,1,0,0,1-.56-.16,2.42,2.42,0,0,1-1-1.21c-.31-.8-.12-1.49.42-1.54C297.62,282.33,303.13,283.87,308.65,287.05Z" style="fill:#fff"></path><path d="M314.91,286.94a41.6,41.6,0,0,1,5,3.42,2.41,2.41,0,0,1,.9,2c-.1.57-.58.73-1.12.42l-.2-.14a39.21,39.21,0,0,0-4.6-3.15,27.82,27.82,0,0,0-5.71-2.54,1.19,1.19,0,0,1-.26-.11,2.51,2.51,0,0,1-1.1-1.64c-.14-.78.24-1.26.85-1.08A31,31,0,0,1,314.91,286.94Z" style="fill:#fff"></path><path d="M317.09,283.48a33.35,33.35,0,0,1,5.69,4.23,2.29,2.29,0,0,1,.75,2.05c-.14.48-.6.59-1.09.31a1.62,1.62,0,0,1-.31-.24,28.75,28.75,0,0,0-5-3.69c-3.66-2.12-7.35-3-10.34-2.35a1,1,0,0,1-.65-.14,2.43,2.43,0,0,1-.92-1.1c-.36-.79-.23-1.53.29-1.64C308.92,280.18,313,281.12,317.09,283.48Z" style="fill:#fff"></path><path d="M300.73,248.62a12,12,0,0,1,4.6,4.84,11,11,0,0,1,1.27,6.45,9.3,9.3,0,0,1-1.7,4.1c-4.24,6.15-11.35,8.77-19.51,7.17A1.07,1.07,0,0,1,285,271a2.53,2.53,0,0,1-1.07-1.51c-.19-.79.13-1.34.73-1.22,7.63,1.49,14.28-1,18.24-6.72a7.64,7.64,0,0,0,1.43-3.34,7.13,7.13,0,0,0-.74-4.08,7.49,7.49,0,0,0-2.87-2.95A6.23,6.23,0,0,0,292.4,253a26.7,26.7,0,0,0-3.37,6l-.42.91c-1.16,2.48-2.46,5-4.49,6.69a.77.77,0,0,1-.88,0,2.28,2.28,0,0,1-.71-.71c-.48-.73-.55-1.59-.15-1.92,1.84-1.5,3.06-3.91,4.15-6.24l.42-.9a27.72,27.72,0,0,1,3.56-6.26,7.59,7.59,0,0,1,7.2-3A8.92,8.92,0,0,1,300.73,248.62Z" style="fill:#fff"></path><path d="M317.69,279.62a26.44,26.44,0,0,1,6.8,5.81,2,2,0,0,1,.47,2c-.2.32-.6.35-1,.12a2.21,2.21,0,0,1-.53-.46,22.34,22.34,0,0,0-5.75-4.91,10.79,10.79,0,0,0-6.61-1.7,1,1,0,0,1-.59-.14,2.42,2.42,0,0,1-1-1.17c-.33-.8-.16-1.51.37-1.58A12.66,12.66,0,0,1,317.69,279.62Z" style="fill:#fff"></path><path d="M315.78,270.44a8.52,8.52,0,0,1,2,1.69,2,2,0,0,1,.55,2.05c-.19.36-.6.41-1,.16a2.25,2.25,0,0,1-.47-.39,4.68,4.68,0,0,0-1.11-.92l-.24-.13-.12-.06a2.5,2.5,0,0,1-1.11-1.82c-.06-.75.39-1.12,1-.83Z" style="fill:#fff"></path><path d="M318.22,275.73a25.3,25.3,0,0,1,7.69,7.28c.51.72.62,1.59.25,2a.74.74,0,0,1-.92,0,2.16,2.16,0,0,1-.66-.63,21,21,0,0,0-6.4-6,10.9,10.9,0,0,0-3.76-1.41,1,1,0,0,1-.39-.15,2.48,2.48,0,0,1-1.06-1.46c-.22-.8.09-1.37.67-1.28A13.26,13.26,0,0,1,318.22,275.73Z" style="fill:#fff"></path><path d="M300.91,243.14a18.76,18.76,0,0,1,5.43,4.86,23.62,23.62,0,0,1,4.75,14.24,14.34,14.34,0,0,1-3.88,9.52c-4.68,5-11.93,6.37-19.89,3.76a1,1,0,0,1-.24-.11,2.5,2.5,0,0,1-1.1-1.66c-.14-.78.25-1.24.87-1.05,7.41,2.43,14.16,1.16,18.51-3.5a12.63,12.63,0,0,0,3.47-8.36,18.78,18.78,0,0,0-3.71-11.35,14.64,14.64,0,0,0-4.22-3.76,9.5,9.5,0,0,0-3.67-1.28,7.54,7.54,0,0,0-6.46,2.68,26.81,26.81,0,0,0-4.08,6.93l-.19.41a34,34,0,0,1-3.94,7,.71.71,0,0,1-1,.06,2.16,2.16,0,0,1-.6-.55,1.82,1.82,0,0,1-.35-2,32.79,32.79,0,0,0,3.76-6.76l.19-.4a28,28,0,0,1,4.31-7.28,8.63,8.63,0,0,1,7.47-3A11.61,11.61,0,0,1,300.91,243.14Z" style="fill:#fff"></path><path d="M316.63,263.86a2.48,2.48,0,0,1,1,1.39,32.69,32.69,0,0,0,8.83,14.09,2.28,2.28,0,0,1,.76,2.06c-.14.48-.59.59-1.08.31a2.13,2.13,0,0,1-.32-.23,38.12,38.12,0,0,1-10.27-16.41c-.24-.8,0-1.41.6-1.36A1,1,0,0,1,316.63,263.86Z" style="fill:#fff"></path><path d="M301.41,238.75a24.36,24.36,0,0,1,6.61,5.74,32.18,32.18,0,0,1,7,18.35,19.23,19.23,0,0,1-4.23,13.24c-5,5.94-12.95,7.64-21.88,4.64a1,1,0,0,1-.23-.11,2.5,2.5,0,0,1-1.11-1.67c-.13-.78.27-1.24.88-1,8.35,2.8,15.8,1.21,20.45-4.34a17.29,17.29,0,0,0,3.87-11.92,27.79,27.79,0,0,0-5.88-15.55,20.11,20.11,0,0,0-5.49-4.73,12.58,12.58,0,0,0-6.5-1.88c-3.43.11-6.44,2.09-8.72,5.74-2.08,3.34-3.37,7.65-4.61,11.82-.15.48-.6.59-1.09.31a1.67,1.67,0,0,1-.32-.24,2.26,2.26,0,0,1-.76-2.05c1.28-4.27,2.6-8.7,4.78-12.2,2.49-4,5.84-6.17,9.67-6.28A14.44,14.44,0,0,1,301.41,238.75Z" style="fill:#fff"></path><path d="M302.3,233.69a27.51,27.51,0,0,1,8.63,8.13c3.23,4.67,5,9.89,6.7,14.93.36,1.06.72,2.14,1.1,3.2,1.77,5,4.78,11.64,9,14.63a2.43,2.43,0,0,1,1,2c-.06.62-.55.84-1.12.51l-.13-.09c-4.2-3-7.83-8.69-10.78-17-.38-1.09-.75-2.2-1.12-3.27-1.58-4.69-3.23-9.55-6-13.59a23.22,23.22,0,0,0-7.31-6.84,14.91,14.91,0,0,0-5.24-1.91c-3.82-.53-7.37.87-10.28,4-2.66,2.9-4.55,6.91-6.37,10.78-.19.39-.6.45-1.05.19a1.89,1.89,0,0,1-.43-.35,2.12,2.12,0,0,1-.6-2c1.87-4,3.8-8.07,6.58-11.12,3.18-3.46,7.1-5,11.35-4.39A17,17,0,0,1,302.3,233.69Z" style="fill:#fff"></path><path d="M302.19,227.71a31.41,31.41,0,0,1,9.4,8.63c3.61,4.95,5.83,10.62,8,16.1l.6,1.55c2.25,5.7,4.86,11.53,8.71,15.56a2.16,2.16,0,0,1,.62,2.05c-.18.4-.61.47-1.05.21a2.13,2.13,0,0,1-.43-.34c-4.48-4.69-7.35-11.08-9.8-17.29-.2-.51-.4-1-.61-1.55-2-5.17-4.1-10.51-7.3-14.89a27,27,0,0,0-8.11-7.43,18,18,0,0,0-5-2,12.79,12.79,0,0,0-11.28,2.7c-3.3,2.71-5.57,6.85-7.18,10.15-.19.38-.61.43-1,.18a1.88,1.88,0,0,1-.45-.37,2.09,2.09,0,0,1-.59-2.05c1.68-3.42,4-7.71,7.51-10.56a14,14,0,0,1,12.37-2.92A20.31,20.31,0,0,1,302.19,227.71Z" style="fill:#fff"></path><path d="M304.1,216.78a35.18,35.18,0,0,1,3.5,2.31,49.81,49.81,0,0,1,15.54,20.63c.77,2,1.41,3.95,2,5.87a41.68,41.68,0,0,0,4.2,10.09c.47.74.53,1.59.12,1.91a.76.76,0,0,1-.86,0,2.32,2.32,0,0,1-.74-.73,46.59,46.59,0,0,1-4.78-11.34c-.59-1.84-1.2-3.74-1.91-5.54a44.51,44.51,0,0,0-13.94-18.46,32.16,32.16,0,0,0-3.17-2.1c-4.57-2.63-9.32-3.78-13.45-3.18-4.72.7-8.71,3.58-11.54,8.32-.2.34-.6.37-1,.13a2,2,0,0,1-.51-.44,2,2,0,0,1-.49-2c3-5.06,7.28-8.13,12.35-8.87C293.92,212.64,299.1,213.9,304.1,216.78Z" style="fill:#fff"></path><path d="M302,210a43.81,43.81,0,0,1,8.25,6.31c5.5,5.25,10.72,12.32,15.52,21,.43.77.4,1.58-.06,1.81a.82.82,0,0,1-.77-.1,2.23,2.23,0,0,1-.82-.89c-4.54-8.21-9.45-14.87-14.58-19.77a40.55,40.55,0,0,0-7.55-5.78,18.08,18.08,0,0,0-9.42-2.84c-3.27.14-5.93,1.66-8.91,3.93a.76.76,0,0,1-.85,0,2.3,2.3,0,0,1-.74-.75c-.47-.74-.52-1.59-.12-1.9,2.72-2.06,5.76-4,9.56-4.14C294.6,206.72,298.21,207.83,302,210Z" style="fill:#fff"></path></g><g style="opacity:0.30000000000000004"><path d="M336.75,309.06a4,4,0,0,1,1.84,3.19l0,15.76-15.34-8.86a4.06,4.06,0,0,1-1.85-3.2c0-1.17.84-1.64,1.86-1.05l11.64,6.72,0-11.51C334.9,308.94,335.73,308.47,336.75,309.06Z" style="fill:#fff"></path><path d="M266.21,268.33a4.07,4.07,0,0,1,1.84,3.19L268,283l11.64,6.72a4.06,4.06,0,0,1,1.85,3.19c0,1.18-.84,1.65-1.86,1.06l-15.34-8.86,0-15.76C264.36,268.21,265.19,267.74,266.21,268.33Z" style="fill:#fff"></path><path d="M338.86,220.14l-.05,15.75c0,1.18-.83,1.65-1.86,1.06a4.1,4.1,0,0,1-1.84-3.19l0-11.51-11.65-6.72a4,4,0,0,1-1.84-3.19c0-1.18.83-1.65,1.85-1.06Z" style="fill:#fff"></path><path d="M280,186.13a4.08,4.08,0,0,1,1.84,3.2c0,1.17-.83,1.64-1.86,1l-11.64-6.72,0,11.5c0,1.18-.84,1.65-1.86,1.06a4.07,4.07,0,0,1-1.84-3.19l0-15.76Z" style="fill:#fff"></path></g></g><g id="freepik--fingerprint-machine--inject-2"><path d="M106.69,199.7h0Z" style="fill:#455a64"></path><polygon points="143.94 165.34 144.15 214.03 105.84 236.15 105.63 187.46 143.94 165.34" style="fill:#455a64"></polygon><g style="opacity:0.1"><polygon points="143.94 165.34 144.15 214.03 105.84 236.15 105.63 187.46 143.94 165.34"></polygon></g><polygon points="87.63 177.03 105.63 187.46 105.84 236.15 87.84 225.72 87.63 177.03" style="fill:#455a64"></polygon><polygon points="87.63 177.03 105.63 187.46 105.84 236.15 87.84 225.72 87.63 177.03" style="opacity:0.30000000000000004"></polygon><polygon points="105.63 187.46 143.94 165.34 133.78 135.4 95.47 157.52 105.63 187.46" style="fill:#455a64"></polygon><polygon points="129.76 143.5 101.53 159.8 107.96 178.77 136.19 162.47 129.76 143.5" style="fill:#F7931E"></polygon><polygon points="129.76 143.5 101.53 159.8 107.96 178.77 136.19 162.47 129.76 143.5" style="opacity:0.2"></polygon><polygon points="129.76 143.5 101.53 159.8 107.96 178.77 136.19 162.47 129.76 143.5" style="fill:#fff;opacity:0.2"></polygon><polygon points="136.19 162.47 136.19 162.47 107.96 178.77 108.4 180.08 137.88 163.06 137.88 163.06 136.19 162.47" style="fill:#455a64"></polygon><polygon points="131 142.78 129.76 143.5 136.19 162.47 137.88 163.06 131 142.78" style="fill:#455a64"></polygon><polygon points="136.19 162.47 136.19 162.47 107.96 178.77 108.4 180.08 137.88 163.06 137.88 163.06 136.19 162.47" style="opacity:0.1"></polygon><polygon points="131 142.78 129.76 143.5 136.19 162.47 137.88 163.06 131 142.78" style="opacity:0.4"></polygon><polygon points="95.47 157.52 87.63 152.94 87.63 177.03 105.63 187.46 95.47 157.52" style="fill:#455a64"></polygon><polygon points="95.47 157.52 87.63 152.94 87.63 177.03 105.63 187.46 95.47 157.52" style="opacity:0.30000000000000004"></polygon><polygon points="133.78 135.4 125.88 130.97 87.63 152.94 95.47 157.52 133.78 135.4" style="fill:#455a64"></polygon><polygon points="133.78 135.4 125.88 130.97 87.63 152.94 95.47 157.52 133.78 135.4" style="fill:#fff;opacity:0.1"></polygon><polygon points="126.94 188.54 126.94 188.54 126.94 188.54 126.94 188.54" style="fill:#455a64"></polygon><path d="M126.75,187.15a1.37,1.37,0,0,1,.63-1.08l2.17-1.26a.45.45,0,0,1,.41-.05h0l-.82-.48h0a.42.42,0,0,0-.45,0l-2.17,1.25a1.37,1.37,0,0,0-.63,1.08v1a.44.44,0,0,0,.18.4h0l.87.5a.41.41,0,0,1-.19-.4Z" style="fill:#37474f"></path><path d="M130.17,185.17a.41.41,0,0,0-.21-.41.45.45,0,0,0-.41.05l-2.17,1.26a1.37,1.37,0,0,0-.63,1.08v1a.41.41,0,0,0,.19.4h0a.45.45,0,0,0,.44,0l2.17-1.25a1.37,1.37,0,0,0,.63-1.08Z" style="fill:#455a64"></path><polygon points="132.57 185.28 132.57 185.28 132.57 185.28 132.57 185.28" style="fill:#455a64"></polygon><path d="M132.38,183.89a1.37,1.37,0,0,1,.63-1.09l2.17-1.25a.45.45,0,0,1,.41-.05h0l-.83-.47h0a.45.45,0,0,0-.46,0l-2.17,1.26a1.37,1.37,0,0,0-.63,1.08v1a.45.45,0,0,0,.18.4h0l.87.5a.44.44,0,0,1-.19-.4Z" style="fill:#37474f"></path><path d="M135.81,181.91a.4.4,0,0,0-.22-.41.45.45,0,0,0-.41.05L133,182.8a1.37,1.37,0,0,0-.63,1.09v1a.44.44,0,0,0,.19.4h0a.47.47,0,0,0,.45-.05l2.17-1.25a1.4,1.4,0,0,0,.62-1.08Z" style="fill:#455a64"></path><polygon points="138.2 182.01 138.2 182.01 138.2 182.01 138.2 182.01" style="fill:#455a64"></polygon><path d="M138,180.62a1.37,1.37,0,0,1,.63-1.08l2.17-1.25a.44.44,0,0,1,.42-.06h0l-.83-.48h0a.41.41,0,0,0-.46,0L137.77,179a1.37,1.37,0,0,0-.63,1.08v1a.42.42,0,0,0,.18.39h0l.87.49a.43.43,0,0,1-.18-.4Z" style="fill:#37474f"></path><path d="M141.44,178.64a.43.43,0,0,0-.21-.41.44.44,0,0,0-.42.06l-2.17,1.25a1.37,1.37,0,0,0-.63,1.08v1a.43.43,0,0,0,.18.4h0a.44.44,0,0,0,.45,0l2.17-1.26a1.37,1.37,0,0,0,.62-1.08Z" style="fill:#455a64"></path><polygon points="126.94 194.23 126.94 194.23 126.94 194.23 126.94 194.23" style="fill:#455a64"></polygon><path d="M126.75,192.84a1.37,1.37,0,0,1,.63-1.09l2.17-1.25a.45.45,0,0,1,.41-.05h0l-.82-.47h0a.44.44,0,0,0-.45,0l-2.17,1.26a1.37,1.37,0,0,0-.63,1.08v1a.45.45,0,0,0,.18.4h0l.87.5a.44.44,0,0,1-.19-.4Z" style="fill:#37474f"></path><path d="M130.17,190.86a.4.4,0,0,0-.21-.41.45.45,0,0,0-.41.05l-2.17,1.25a1.37,1.37,0,0,0-.63,1.09v1a.44.44,0,0,0,.19.4h0a.45.45,0,0,0,.44,0l2.17-1.25a1.38,1.38,0,0,0,.63-1.08Z" style="fill:#455a64"></path><polygon points="132.57 190.97 132.57 190.97 132.57 190.97 132.57 190.97" style="fill:#455a64"></polygon><path d="M132.38,189.57a1.37,1.37,0,0,1,.63-1.08l2.17-1.25a.45.45,0,0,1,.41-.06h0l-.83-.48h0a.43.43,0,0,0-.46,0L132.14,188a1.37,1.37,0,0,0-.63,1.09v1a.42.42,0,0,0,.18.39h0l.87.49a.41.41,0,0,1-.19-.4Z" style="fill:#37474f"></path><path d="M135.81,187.59a.42.42,0,0,0-.22-.41.45.45,0,0,0-.41.06L133,188.49a1.37,1.37,0,0,0-.63,1.08v1a.41.41,0,0,0,.19.4h0a.47.47,0,0,0,.45-.05l2.17-1.25a1.4,1.4,0,0,0,.62-1.08Z" style="fill:#455a64"></path><polygon points="138.2 187.7 138.2 187.7 138.2 187.7 138.2 187.7" style="fill:#455a64"></polygon><path d="M138,186.31a1.37,1.37,0,0,1,.63-1.08l2.17-1.26a.47.47,0,0,1,.42-.05h0l-.83-.47h0a.44.44,0,0,0-.46,0l-2.17,1.25a1.37,1.37,0,0,0-.63,1.08v1a.44.44,0,0,0,.18.4h0l.87.5a.43.43,0,0,1-.18-.4Z" style="fill:#37474f"></path><path d="M141.44,184.33a.43.43,0,0,0-.21-.41.47.47,0,0,0-.42.05l-2.17,1.26a1.37,1.37,0,0,0-.63,1.08v1a.43.43,0,0,0,.18.4h0a.47.47,0,0,0,.45,0l2.17-1.25a1.38,1.38,0,0,0,.62-1.08Z" style="fill:#455a64"></path><polygon points="126.94 199.92 126.94 199.92 126.94 199.92 126.94 199.92" style="fill:#455a64"></polygon><path d="M126.75,198.52a1.37,1.37,0,0,1,.63-1.08l2.17-1.25a.45.45,0,0,1,.41-.05h0l-.82-.47h0a.41.41,0,0,0-.45,0l-2.17,1.25a1.4,1.4,0,0,0-.63,1.09v1a.42.42,0,0,0,.18.39h0l.87.5a.44.44,0,0,1-.19-.41Z" style="fill:#37474f"></path><path d="M130.17,196.55c0-.22-.08-.36-.21-.41a.45.45,0,0,0-.41.05l-2.17,1.25a1.37,1.37,0,0,0-.63,1.08v1a.44.44,0,0,0,.19.41h0a.45.45,0,0,0,.44,0l2.17-1.25a1.38,1.38,0,0,0,.63-1.08Z" style="fill:#455a64"></path><polygon points="132.57 196.65 132.57 196.65 132.57 196.65 132.57 196.65" style="fill:#455a64"></polygon><path d="M132.38,195.26a1.37,1.37,0,0,1,.63-1.08l2.17-1.26a.45.45,0,0,1,.41,0h0l-.83-.48h0a.41.41,0,0,0-.46,0l-2.17,1.25a1.37,1.37,0,0,0-.63,1.08v1a.44.44,0,0,0,.18.4h0l.87.49a.41.41,0,0,1-.19-.4Z" style="fill:#37474f"></path><path d="M135.81,193.28a.42.42,0,0,0-.22-.41.45.45,0,0,0-.41,0L133,194.18a1.37,1.37,0,0,0-.63,1.08v1a.41.41,0,0,0,.19.4h0a.44.44,0,0,0,.45,0l2.17-1.26a1.38,1.38,0,0,0,.62-1.08Z" style="fill:#455a64"></path><polygon points="138.2 193.39 138.2 193.39 138.2 193.39 138.2 193.39" style="fill:#455a64"></polygon><path d="M138,192a1.37,1.37,0,0,1,.63-1.09l2.17-1.25a.47.47,0,0,1,.42,0h0l-.83-.47h0a.45.45,0,0,0-.46,0l-2.17,1.26a1.37,1.37,0,0,0-.63,1.08v1a.45.45,0,0,0,.18.4h0l.87.5a.45.45,0,0,1-.18-.4Z" style="fill:#37474f"></path><path d="M141.44,190a.42.42,0,0,0-.21-.41.47.47,0,0,0-.42,0l-2.17,1.25A1.37,1.37,0,0,0,138,192v1a.45.45,0,0,0,.18.4h0a.47.47,0,0,0,.45,0l2.17-1.25a1.4,1.4,0,0,0,.62-1.08Z" style="fill:#455a64"></path><polygon points="126.94 205.6 126.94 205.6 126.94 205.6 126.94 205.6" style="fill:#455a64"></polygon><path d="M126.75,204.21a1.37,1.37,0,0,1,.63-1.08l2.17-1.26a.45.45,0,0,1,.41-.05h0l-.82-.48h0a.4.4,0,0,0-.45,0l-2.17,1.25a1.37,1.37,0,0,0-.63,1.08v1a.43.43,0,0,0,.18.39h0l.87.49a.41.41,0,0,1-.19-.4Z" style="fill:#37474f"></path><path d="M130.17,202.23a.41.41,0,0,0-.21-.41.45.45,0,0,0-.41.05l-2.17,1.26a1.37,1.37,0,0,0-.63,1.08v1a.41.41,0,0,0,.19.4h0a.42.42,0,0,0,.44,0l2.17-1.26a1.35,1.35,0,0,0,.63-1.08Z" style="fill:#455a64"></path><polygon points="132.57 202.34 132.57 202.34 132.57 202.34 132.57 202.34" style="fill:#455a64"></polygon><path d="M132.38,201a1.4,1.4,0,0,1,.63-1.09l2.17-1.25a.45.45,0,0,1,.41-.05h0l-.83-.47h0a.45.45,0,0,0-.46,0l-2.17,1.26a1.37,1.37,0,0,0-.63,1.08v1a.44.44,0,0,0,.18.4h0l.87.5a.42.42,0,0,1-.19-.4Z" style="fill:#37474f"></path><path d="M135.81,199a.41.41,0,0,0-.22-.41.45.45,0,0,0-.41.05L133,199.86a1.4,1.4,0,0,0-.63,1.09v1a.42.42,0,0,0,.19.4h0a.47.47,0,0,0,.45-.05l2.17-1.25a1.4,1.4,0,0,0,.62-1.08Z" style="fill:#455a64"></path><polygon points="138.2 199.08 138.2 199.08 138.2 199.08 138.2 199.08" style="fill:#455a64"></polygon><path d="M138,197.68a1.37,1.37,0,0,1,.63-1.08l2.17-1.25a.44.44,0,0,1,.42,0h0l-.83-.48h0a.43.43,0,0,0-.46,0l-2.17,1.25a1.4,1.4,0,0,0-.63,1.09v1a.42.42,0,0,0,.18.39h0l.87.5a.46.46,0,0,1-.18-.41Z" style="fill:#37474f"></path><path d="M141.44,195.7a.4.4,0,0,0-.21-.4.44.44,0,0,0-.42,0l-2.17,1.25a1.37,1.37,0,0,0-.63,1.08v1a.46.46,0,0,0,.18.41h0a.47.47,0,0,0,.45-.05l2.17-1.25a1.4,1.4,0,0,0,.62-1.08Z" style="fill:#455a64"></path><g style="opacity:0.2"><path d="M130,184.76h0l-.82-.48h0a.42.42,0,0,0-.45,0l-2.17,1.25a1.37,1.37,0,0,0-.63,1.08v1a.44.44,0,0,0,.18.4h0l.87.5h0a.45.45,0,0,0,.44,0l2.17-1.25a1.37,1.37,0,0,0,.63-1.08v-1A.41.41,0,0,0,130,184.76Z" style="fill:#fff"></path><path d="M135.59,181.5h0l-.83-.47h0a.45.45,0,0,0-.46,0l-2.17,1.26a1.37,1.37,0,0,0-.63,1.08v1a.45.45,0,0,0,.18.4h0l.87.5h0a.47.47,0,0,0,.45-.05l2.17-1.25a1.4,1.4,0,0,0,.62-1.08v-1A.4.4,0,0,0,135.59,181.5Z" style="fill:#fff"></path><path d="M137.33,181.51h0l.87.49h0a.44.44,0,0,0,.45,0l2.17-1.26a1.37,1.37,0,0,0,.62-1.08v-1a.43.43,0,0,0-.21-.41h0l-.83-.48h0a.41.41,0,0,0-.46,0L137.77,179a1.37,1.37,0,0,0-.63,1.08v1A.42.42,0,0,0,137.33,181.51Z" style="fill:#fff"></path><path d="M130,190.45h0l-.82-.47h0a.44.44,0,0,0-.45,0l-2.17,1.26a1.37,1.37,0,0,0-.63,1.08v1a.45.45,0,0,0,.18.4h0l.87.5h0a.45.45,0,0,0,.44,0l2.17-1.25a1.38,1.38,0,0,0,.63-1.08v-1A.4.4,0,0,0,130,190.45Z" style="fill:#fff"></path><path d="M135.59,187.18h0l-.83-.48h0a.43.43,0,0,0-.46,0L132.14,188a1.37,1.37,0,0,0-.63,1.09v1a.42.42,0,0,0,.18.39h0l.87.49h0a.47.47,0,0,0,.45-.05l2.17-1.25a1.4,1.4,0,0,0,.62-1.08v-1A.42.42,0,0,0,135.59,187.18Z" style="fill:#fff"></path><path d="M141.23,183.92h0l-.83-.47h0a.44.44,0,0,0-.46,0l-2.17,1.25a1.37,1.37,0,0,0-.63,1.08v1a.44.44,0,0,0,.18.4h0l.87.5h0a.47.47,0,0,0,.45,0l2.17-1.25a1.38,1.38,0,0,0,.62-1.08v-1A.43.43,0,0,0,141.23,183.92Z" style="fill:#fff"></path><path d="M130,196.14h0l-.82-.47h0a.41.41,0,0,0-.45,0l-2.17,1.25a1.4,1.4,0,0,0-.63,1.09v1a.42.42,0,0,0,.18.39h0l.87.5h0a.45.45,0,0,0,.44,0l2.17-1.25a1.38,1.38,0,0,0,.63-1.08v-1C130.17,196.33,130.09,196.19,130,196.14Z" style="fill:#fff"></path><path d="M135.59,192.87h0l-.83-.48h0a.41.41,0,0,0-.46,0l-2.17,1.25a1.37,1.37,0,0,0-.63,1.08v1a.44.44,0,0,0,.18.4h0l.87.49h0a.44.44,0,0,0,.45,0l2.17-1.26a1.38,1.38,0,0,0,.62-1.08v-1A.42.42,0,0,0,135.59,192.87Z" style="fill:#fff"></path><path d="M141.23,189.61h0l-.83-.47h0a.45.45,0,0,0-.46,0l-2.17,1.26a1.37,1.37,0,0,0-.63,1.08v1a.45.45,0,0,0,.18.4h0l.87.5h0a.47.47,0,0,0,.45,0l2.17-1.25a1.4,1.4,0,0,0,.62-1.08v-1A.42.42,0,0,0,141.23,189.61Z" style="fill:#fff"></path><path d="M130,201.82h0l-.82-.48h0a.4.4,0,0,0-.45,0l-2.17,1.25a1.37,1.37,0,0,0-.63,1.08v1a.43.43,0,0,0,.18.39h0l.87.49h0a.42.42,0,0,0,.44,0l2.17-1.26a1.37,1.37,0,0,0,.63-1.08v-1A.41.41,0,0,0,130,201.82Z" style="fill:#fff"></path><path d="M135.59,198.56h0l-.83-.47h0a.45.45,0,0,0-.46,0l-2.17,1.26a1.37,1.37,0,0,0-.63,1.08v1a.44.44,0,0,0,.18.4h0l.87.5h0a.47.47,0,0,0,.45-.05l2.17-1.25a1.4,1.4,0,0,0,.62-1.08v-1A.41.41,0,0,0,135.59,198.56Z" style="fill:#fff"></path><path d="M141.23,195.3h0l-.83-.48h0a.43.43,0,0,0-.46,0l-2.17,1.25a1.4,1.4,0,0,0-.63,1.09v1a.42.42,0,0,0,.18.39h0l.87.5h0a.47.47,0,0,0,.45-.05l2.17-1.25a1.4,1.4,0,0,0,.62-1.08v-1A.4.4,0,0,0,141.23,195.3Z" style="fill:#fff"></path></g><polygon points="117.06 197.31 116.34 196.9 117.93 197.8 118.65 198.22 117.06 197.31" style="fill:#455a64"></polygon><polygon points="117.06 197.31 114.26 198.93 112.68 201.67 118.65 198.22 117.06 197.31" style="fill:#455a64"></polygon><polygon points="117.06 197.31 116.34 196.9 113.54 198.51 114.26 198.93 117.06 197.31" style="fill:#263238"></polygon><polygon points="113.54 198.51 111.96 201.25 112.68 201.67 114.26 198.93 113.54 198.51" style="fill:#37474f"></polygon><polygon points="116.58 193.24 116.59 196.45 117.31 196.87 117.3 193.66 116.58 193.24" style="fill:#263238"></polygon><polygon points="118.89 190.91 117.3 193.66 117.31 196.87 118.91 197.78 118.89 190.91" style="fill:#455a64"></polygon><polygon points="118.89 190.91 118.17 190.5 116.58 193.24 117.3 193.66 118.89 190.91" style="fill:#37474f"></polygon><polygon points="116.94 193.99 116.22 193.57 113.64 195.06 114.36 195.48 116.94 193.99" style="fill:#37474f"></polygon><polygon points="116.94 193.99 114.36 195.48 114.36 198.45 116.95 196.96 116.94 193.99" style="fill:#455a64"></polygon><polygon points="113.64 195.06 113.65 198.03 114.36 198.45 114.36 195.48 113.64 195.06" style="fill:#263238"></polygon><polygon points="117.91 190.35 111.94 193.8 112.66 194.22 118.63 190.77 117.91 190.35" style="fill:#37474f"></polygon><polygon points="112.66 194.22 114.25 195.13 117.05 193.51 118.63 190.77 112.66 194.22" style="fill:#455a64"></polygon><polygon points="111.68 194.24 111.7 201.1 112.42 201.52 112.4 194.66 111.68 194.24" style="fill:#37474f"></polygon><polygon points="113.99 195.56 112.4 194.66 112.42 201.52 114 198.78 113.99 195.56" style="fill:#455a64"></polygon><polygon points="112.4 194.66 111.68 194.24 113.28 195.15 113.99 195.56 112.4 194.66" style="fill:#455a64"></polygon><path d="M116.7,197.1,117,197v-.29l.36.21,1.59.91v-6.87l-.72-.41h0l-.25-.15-6,3.45.72.42,1.23.7-.25.14v.3l-.36-.21-1.6-.91.72.42-.72-.42,0,6.86.72.42h0l.26.15,6-3.45-.72-.42Zm-2.7,1.14h0Zm2.59-4.46Zm.1,3.32h0l.37.21Z" style="fill:#fff;opacity:0.2"></path><polygon points="107.15 235.39 107.15 206.48 123.46 197.1 123.46 225.97 107.15 235.39" style="fill:#455a64"></polygon><polygon points="107.15 235.39 107.15 206.48 123.46 197.1 123.46 225.97 107.15 235.39" style="fill:#fff;opacity:0.1"></polygon><polygon points="122.3 199.12 108.29 207.19 108.29 224.1 122.3 216.03 122.3 199.12" style="fill:#455a64"></polygon><polygon points="122.3 199.12 108.29 207.19 108.29 224.1 122.3 216.03 122.3 199.12" style="opacity:0.4"></polygon><polygon points="108.29 207.19 108.29 208.56 113.57 205.52 119.52 215.32 108.99 221.39 108.29 220.25 108.29 224.1 122.3 216.03 114.68 203.5 108.29 207.19" style="fill:#37474f"></polygon><polygon points="108.29 207.19 108.29 208.56 113.57 205.52 119.52 215.32 108.99 221.39 108.29 220.25 108.29 224.1 122.3 216.03 114.68 203.5 108.29 207.19" style="opacity:0.4"></polygon><polygon points="108.99 221.39 119.52 215.32 113.57 205.52 108.29 208.56 108.29 220.25 108.99 221.39" style="fill:#F7931E"></polygon><polygon points="108.99 221.39 119.52 215.32 113.57 205.52 108.29 208.56 108.29 220.25 108.99 221.39" style="opacity:0.2"></polygon><polygon points="108.99 221.39 119.52 215.32 113.57 205.52 108.29 208.56 108.29 220.25 108.99 221.39" style="fill:#fff;opacity:0.2"></polygon><path d="M131.75,209.8l-1.12-.67,0,0h0a1.54,1.54,0,0,0-1.48.17,4.72,4.72,0,0,0-2.14,3.71,1.48,1.48,0,0,0,.65,1.39l1.12.68,0,0h0a1.51,1.51,0,0,0,1.48-.17,4.73,4.73,0,0,0,2.15-3.71A1.53,1.53,0,0,0,131.75,209.8Z" style="fill:#455a64"></path><path d="M128.1,213.67a4.71,4.71,0,0,1,2.14-3.71,1.54,1.54,0,0,1,1.51-.16l-1.12-.67,0,0h0a1.54,1.54,0,0,0-1.48.17,4.72,4.72,0,0,0-2.14,3.71,1.48,1.48,0,0,0,.65,1.39l1.12.68A1.5,1.5,0,0,1,128.1,213.67Z" style="opacity:0.30000000000000004"></path><path d="M128.1,213.67a4.71,4.71,0,0,1,2.14-3.71,1.54,1.54,0,0,1,1.51-.16l-1.12-.67,0,0h0a1.54,1.54,0,0,0-1.48.17,4.72,4.72,0,0,0-2.14,3.71,1.48,1.48,0,0,0,.65,1.39l1.12.68A1.5,1.5,0,0,1,128.1,213.67Z" style="fill:#fff;opacity:0.2"></path><path d="M131.75,209.8a1.54,1.54,0,0,0-1.51.16,4.71,4.71,0,0,0-2.14,3.71,1.5,1.5,0,0,0,.61,1.37l0,0h0a1.51,1.51,0,0,0,1.48-.17,4.73,4.73,0,0,0,2.15-3.71A1.53,1.53,0,0,0,131.75,209.8Z" style="fill:#fff;opacity:0.15"></path><path d="M140.94,204.48l-1.11-.67-.06,0h0a1.56,1.56,0,0,0-1.49.17,4.75,4.75,0,0,0-2.14,3.71,1.53,1.53,0,0,0,.65,1.39l1.13.68,0,0h0a1.56,1.56,0,0,0,1.49-.17,4.69,4.69,0,0,0,2.14-3.72A1.48,1.48,0,0,0,140.94,204.48Z" style="fill:#455a64"></path><path d="M137.29,208.35a4.75,4.75,0,0,1,2.14-3.71,1.54,1.54,0,0,1,1.51-.16l-1.11-.67-.06,0h0a1.56,1.56,0,0,0-1.49.17,4.75,4.75,0,0,0-2.14,3.71,1.53,1.53,0,0,0,.65,1.39l1.13.68A1.51,1.51,0,0,1,137.29,208.35Z" style="opacity:0.30000000000000004"></path><path d="M137.29,208.35a4.75,4.75,0,0,1,2.14-3.71,1.54,1.54,0,0,1,1.51-.16l-1.11-.67-.06,0h0a1.56,1.56,0,0,0-1.49.17,4.75,4.75,0,0,0-2.14,3.71,1.53,1.53,0,0,0,.65,1.39l1.13.68A1.51,1.51,0,0,1,137.29,208.35Z" style="fill:#fff;opacity:0.2"></path><path d="M140.94,204.48a1.54,1.54,0,0,0-1.51.16,4.75,4.75,0,0,0-2.14,3.71,1.51,1.51,0,0,0,.62,1.37l0,0h0a1.56,1.56,0,0,0,1.49-.17,4.69,4.69,0,0,0,2.14-3.72A1.48,1.48,0,0,0,140.94,204.48Z" style="fill:#fff;opacity:0.15"></path><polygon points="107.63 188.61 141.95 168.79 142.05 173.49 107.73 193.3 107.63 188.61" style="fill:#fff;opacity:0.2"></polygon><path d="M97.15,177.12l-9.5-5.48-6.5,3.79,9.5,5.48a5,5,0,0,1,2.5,4.33v31.12a2,2,0,0,1-1,1.72l6.35-3.71h0a2,2,0,0,0,1.14-1.79V181.45A5,5,0,0,0,97.15,177.12Z" style="fill:#455a64"></path><path d="M93.15,216.36V185.24a5,5,0,0,0-2.5-4.33l-9.5-5.48V212.9l9,5.2a2,2,0,0,0,1.94,0h0l0,0A2,2,0,0,0,93.15,216.36Z" style="fill:#455a64"></path><path d="M93.15,216.36V185.24a5,5,0,0,0-2.5-4.33l-9.5-5.48V212.9l9,5.2a2,2,0,0,0,1.94,0h0l0,0A2,2,0,0,0,93.15,216.36Z" style="opacity:0.30000000000000004"></path><path d="M113.77,164.3a.14.14,0,0,1,.19,0,1.77,1.77,0,0,0,1.68.68c.09,0,.17.07.18.19a.23.23,0,0,1-.1.23h0a2,2,0,0,1-2-.79.25.25,0,0,1,0-.31Z" style="fill:#fff"></path><path d="M114,165.45a.64.64,0,0,1,.3-.08c.1,0,.17.1.17.22a.24.24,0,0,1-.1.2l-.08,0a.33.33,0,0,0-.16.05l0,0h0c-.08.05-.17,0-.22-.09a.27.27,0,0,1,.07-.3Z" style="fill:#fff"></path><path d="M111.28,165.46a.38.38,0,0,1,.37,0c.18.09.28.33.31.69a4.59,4.59,0,0,1-.47,2.44.29.29,0,0,1-.07.08.14.14,0,0,1-.17,0,.27.27,0,0,1,0-.3,4.07,4.07,0,0,0,.41-2.14c0-.19-.05-.31-.11-.34s-.06,0-.09,0a.13.13,0,0,0-.07.06,1.06,1.06,0,0,0-.14.35,6.11,6.11,0,0,0-.14,2.37.25.25,0,0,1-.1.24l0,0c-.09,0-.18-.05-.2-.17a6.84,6.84,0,0,1,.15-2.59,1.55,1.55,0,0,1,.23-.53A.59.59,0,0,1,111.28,165.46Z" style="fill:#fff"></path><polygon points="125.69 157.14 126.04 158.21 120.09 161.65 119.74 160.59 125.69 157.14" style="fill:#fff"></polygon><polygon points="131.58 157.41 131.93 158.47 121.1 164.73 120.75 163.67 131.58 157.41" style="fill:#fff"></polygon><polygon points="129.9 152.32 130.25 153.38 119.43 159.64 119.08 158.58 129.9 152.32" style="fill:#fff"></polygon><polygon points="129.24 150.3 129.59 151.37 118.76 157.63 118.41 156.56 129.24 150.3" style="fill:#fff"></polygon><polygon points="122.83 151.62 123.19 152.68 118.1 155.61 117.75 154.55 122.83 151.62" style="fill:#fff"></polygon><polygon points="126.09 162.98 126.44 164.05 121.76 166.75 121.41 165.68 126.09 162.98" style="fill:#fff"></polygon><path d="M114.77,168.14a3.4,3.4,0,0,1,.71-.31c.1,0,.19,0,.21.16a.27.27,0,0,1-.1.25h0a2.8,2.8,0,0,0-.66.3,3.38,3.38,0,0,0-.75.57l0,0a.14.14,0,0,1-.2-.06.25.25,0,0,1,0-.31A4.08,4.08,0,0,1,114.77,168.14Z" style="fill:#fff"></path><path d="M114.55,165.86a1.58,1.58,0,0,1,1.21-.18.23.23,0,0,1,.13.26.26.26,0,0,1-.1.16.14.14,0,0,1-.11,0,1.28,1.28,0,0,0-1,.16,1.69,1.69,0,0,0-.48.41l0,0a.15.15,0,0,1-.19,0,.27.27,0,0,1,0-.31A2,2,0,0,1,114.55,165.86Z" style="fill:#fff"></path><path d="M114.15,170.44c.08-.05.17,0,.22.09a.26.26,0,0,1-.08.3l-.46.33h0c-.08.05-.17,0-.22-.09a.26.26,0,0,1,.08-.3l.46-.32Z" style="fill:#fff"></path><path d="M114.69,166.55a1.77,1.77,0,0,1,1-.25c.09,0,.16.11.15.23a.23.23,0,0,1-.1.19.11.11,0,0,1-.08,0,1.56,1.56,0,0,0-.88.22,2.13,2.13,0,0,0-.8.85.19.19,0,0,1-.07.08.15.15,0,0,1-.17,0,.27.27,0,0,1,0-.3A2.52,2.52,0,0,1,114.69,166.55Z" style="fill:#fff"></path><path d="M114.83,167.24a2.51,2.51,0,0,1,.83-.3c.09,0,.18.06.19.18a.23.23,0,0,1-.11.23l0,0a2.48,2.48,0,0,0-.73.27,3.27,3.27,0,0,0-1.25,1.39s0,.07-.07.08a.14.14,0,0,1-.16,0,.25.25,0,0,1,0-.3A3.55,3.55,0,0,1,114.83,167.24Z" style="fill:#fff"></path><path d="M114.05,169.94a2.53,2.53,0,0,1,.72-.27c.1,0,.18.07.19.19a.23.23,0,0,1-.1.23l0,0a2.29,2.29,0,0,0-.63.23,2.77,2.77,0,0,0-1,1.06l-.07.07a.14.14,0,0,1-.17,0,.25.25,0,0,1,0-.3A3.2,3.2,0,0,1,114.05,169.94Z" style="fill:#fff"></path><path d="M114.09,169.22a4,4,0,0,1,1.16-.46c.1,0,.18.06.19.18a.22.22,0,0,1-.1.24l0,0a3.78,3.78,0,0,0-1.08.42,5,5,0,0,0-1.8,1.87.23.23,0,0,1-.07.07.15.15,0,0,1-.17,0,.27.27,0,0,1,0-.31A5.37,5.37,0,0,1,114.09,169.22Z" style="fill:#fff"></path><path d="M111.27,164.63a.71.71,0,0,1,.74,0,1.14,1.14,0,0,1,.47.78,2.86,2.86,0,0,1,0,.92,7.9,7.9,0,0,1-1.75,4.4l0,0a.15.15,0,0,1-.2,0,.27.27,0,0,1,0-.31,7.45,7.45,0,0,0,1.64-4.11,2.78,2.78,0,0,0,0-.76.75.75,0,0,0-.29-.5.43.43,0,0,0-.46,0,1,1,0,0,0-.29.25,3.1,3.1,0,0,0-.53,1.43,12.13,12.13,0,0,0-.06,1.48v.22a8.47,8.47,0,0,1-.14,1.79.24.24,0,0,1-.1.14.14.14,0,0,1-.11,0,.24.24,0,0,1-.12-.27,7.15,7.15,0,0,0,.13-1.66v-.21a11.86,11.86,0,0,1,.07-1.57,3.38,3.38,0,0,1,.63-1.67A1.59,1.59,0,0,1,111.27,164.63Z" style="fill:#fff"></path><path d="M111,163.76a1.24,1.24,0,0,1,.84-.17,1.86,1.86,0,0,1,1.25,1.39,4.94,4.94,0,0,1,.06,2.12,7,7,0,0,1-2,3.94l0,0c-.07.05-.15,0-.2-.07a.24.24,0,0,1,0-.3,6.52,6.52,0,0,0,1.83-3.67,4.25,4.25,0,0,0,0-1.87,1.49,1.49,0,0,0-1-1.12,1,1,0,0,0-.65.13,1.68,1.68,0,0,0-.47.42,3.36,3.36,0,0,0-.56,1.5,11.09,11.09,0,0,0-.09,1.76v.09a14.63,14.63,0,0,1-.07,1.75.23.23,0,0,1-.1.17.1.1,0,0,1-.09,0,.21.21,0,0,1-.14-.25,13.32,13.32,0,0,0,.06-1.67v-.1a11.17,11.17,0,0,1,.1-1.85,3.85,3.85,0,0,1,.65-1.72A2,2,0,0,1,111,163.76Z" style="fill:#fff"></path><path d="M110.83,163a1.65,1.65,0,0,1,1-.23,2.3,2.3,0,0,1,1.7,1.64,5.84,5.84,0,0,1,.21,2.75,7.35,7.35,0,0,1-2.14,4.41l0,0a.13.13,0,0,1-.2-.07.26.26,0,0,1,0-.31,6.88,6.88,0,0,0,2-4.11,5.33,5.33,0,0,0-.19-2.49,2,2,0,0,0-1.43-1.4,1.29,1.29,0,0,0-.84.19,2.38,2.38,0,0,0-.8.81,5.1,5.1,0,0,0-.66,2.35,17.29,17.29,0,0,0,.11,2.6.26.26,0,0,1-.11.23l0,0c-.1,0-.18-.07-.19-.19a18.31,18.31,0,0,1-.11-2.68,5.7,5.7,0,0,1,.73-2.6A2.79,2.79,0,0,1,110.83,163Z" style="fill:#fff"></path><path d="M110.67,162.07a1.7,1.7,0,0,1,1.36-.2,3.65,3.65,0,0,1,1.49,1.16c.09.11.19.21.28.31.45.48,1.11,1,1.73.73.09,0,.18,0,.21.15a.25.25,0,0,1-.1.26h0c-.6.25-1.29,0-2-.8-.09-.11-.19-.21-.29-.32a3.5,3.5,0,0,0-1.35-1.08,1.48,1.48,0,0,0-1.14.19,2.16,2.16,0,0,0-.67.59,5.17,5.17,0,0,0-.91,2.35,18,18,0,0,0-.14,2.74.22.22,0,0,1-.1.2.08.08,0,0,1-.07,0c-.09,0-.17-.09-.17-.21a17.84,17.84,0,0,1,.15-2.82,5.72,5.72,0,0,1,1-2.6A2.72,2.72,0,0,1,110.67,162.07Z" style="fill:#fff"></path><path d="M110.35,161.17a2,2,0,0,1,1.47-.26,4,4,0,0,1,1.69,1.14l.14.13a2.65,2.65,0,0,0,1.74.93c.1,0,.17.09.17.21a.22.22,0,0,1-.1.21l-.06,0a2.9,2.9,0,0,1-2-1l-.15-.14a3.88,3.88,0,0,0-1.55-1.06,1.74,1.74,0,0,0-1.26.23,2.66,2.66,0,0,0-.65.53,5.12,5.12,0,0,0-1.08,2.32,13.54,13.54,0,0,0-.27,2.77.25.25,0,0,1-.1.21h-.07c-.09,0-.17-.09-.16-.21a13.54,13.54,0,0,1,.27-2.9,5.68,5.68,0,0,1,1.19-2.53A3.06,3.06,0,0,1,110.35,161.17Z" style="fill:#fff"></path><path d="M110.26,160.28a2.45,2.45,0,0,1,2.34-.13,5,5,0,0,1,1.17.91,3.61,3.61,0,0,0,1.38,1,.22.22,0,0,1,.13.26.23.23,0,0,1-.1.16.17.17,0,0,1-.1,0,3.84,3.84,0,0,1-1.52-1,4.8,4.8,0,0,0-1.09-.85,2.18,2.18,0,0,0-2.08.12l-.09.06a4.62,4.62,0,0,0-1.63,2,9.24,9.24,0,0,0-.69,2.85.23.23,0,0,1-.11.18.11.11,0,0,1-.08,0,.2.2,0,0,1-.15-.24,9.69,9.69,0,0,1,.74-3,5,5,0,0,1,1.78-2.23Z" style="fill:#fff"></path><path d="M110,159.16a3.71,3.71,0,0,1,.5-.23,2.65,2.65,0,0,1,2.74.55,5.48,5.48,0,0,1,.52.56,2.66,2.66,0,0,0,1,.85.23.23,0,0,1,.11.27.19.19,0,0,1-.1.14.13.13,0,0,1-.12,0,3.06,3.06,0,0,1-1.1-.94,6.15,6.15,0,0,0-.49-.53,2.37,2.37,0,0,0-2.45-.49,3.82,3.82,0,0,0-.46.21,4.48,4.48,0,0,0-1.62,1.78,7.89,7.89,0,0,0-.83,3.23.21.21,0,0,1-.1.19l-.08,0a.22.22,0,0,1-.16-.23,8.44,8.44,0,0,1,.89-3.45A4.87,4.87,0,0,1,110,159.16Z" style="fill:#fff"></path><path d="M109.42,158.48a3.17,3.17,0,0,1,1.22-.42,4.5,4.5,0,0,1,2.76.61.24.24,0,0,1,.09.29.19.19,0,0,1-.09.12.15.15,0,0,1-.13,0,4.24,4.24,0,0,0-2.6-.59,3.13,3.13,0,0,0-1.11.39,3.3,3.3,0,0,0-1.17,1.15,7.28,7.28,0,0,0-.77,2.11.19.19,0,0,1-.1.13.11.11,0,0,1-.11,0,.22.22,0,0,1-.11-.27,8.06,8.06,0,0,1,.82-2.25A3.7,3.7,0,0,1,109.42,158.48Z" style="fill:#fff"></path></g><g id="freepik--Character--inject-2"><path d="M126.59,229.2a65.48,65.48,0,0,1-13.5.72,2.41,2.41,0,0,1-2.31-2,36.87,36.87,0,0,1-.44-8.77,1.8,1.8,0,0,1,.82-1.37l2-1.31a1.21,1.21,0,0,1,1.36,0l.85.6a1.23,1.23,0,0,1,.5,1.24c0,.11,0,.22,0,.33l2.27.24a13.31,13.31,0,0,1-2.61-3.78,3.42,3.42,0,0,1-.19-3.22,1.49,1.49,0,0,1,2-.61c.71.42.73,1.33.94,2.09.5,1.86,2.29,3,4,4s3.52,1.93,4.32,3.69C127.57,223.39,126.59,226.62,126.59,229.2Z" style="fill:#ffa8a7"></path><path d="M115.81,218.65l-2.58-.1A1.64,1.64,0,0,1,115.81,218.65Z" style="fill:#f28f8f"></path><path d="M171.27,161.69c-1.09,2-2.18,4.07-3.26,6.11l2.9,2C171.08,167.15,171.1,164.3,171.27,161.69Z" style="fill:#f28f8f"></path><path d="M198.61,185.53c6.81-5.45,12.46,4.77,16.58,16.16,2.5,6.9,5.07,13.65,6.71,17.88a8.62,8.62,0,0,1-1.16,8.26L208.6,244l-5.42-11.72,6.72-10.19-6.84-12.51Z" style="fill:#455a64"></path><path d="M154.39,397.55a4.93,4.93,0,0,0,3.54,1A41.53,41.53,0,0,0,169.18,397a23,23,0,0,0,5.92-2.47,16.16,16.16,0,0,0,5.21-5.32,42.39,42.39,0,0,1-.86-7.19c-3.1,0-6.33,0-9.43,0V387a48.38,48.38,0,0,1-15.57,6.85,2.53,2.53,0,0,0-.7,1A2.63,2.63,0,0,0,154.39,397.55Z" style="fill:#ffa8a7"></path><path d="M181,392.25c-.29-1-.52-2-.73-3.08a16.16,16.16,0,0,1-5.21,5.32,23,23,0,0,1-5.92,2.47,41.53,41.53,0,0,1-11.25,1.58,4.93,4.93,0,0,1-3.54-1,2.63,2.63,0,0,1-.64-2.65,2.53,2.53,0,0,1,.7-1l-1.27.3a12.5,12.5,0,0,0-4.29,1.39,3.67,3.67,0,0,0-1.82,3.82c.37,1.32,1.68,2.14,2.94,2.7a21.68,21.68,0,0,0,15.35.8c3.11-1,6.1-2.75,9.37-2.66,1.86.05,3.91.67,5.47-.34a4.19,4.19,0,0,0,1.66-3.59A15.7,15.7,0,0,0,181,392.25Z" style="fill:#455a64"></path><path d="M192.77,361.83a3.57,3.57,0,0,0-3.13,2.95c-.1,1.49,1.05,2.73,2.12,3.77l4.08,4a9.6,9.6,0,0,0,3.9,2.68,5.36,5.36,0,0,0,4.57-1,6.51,6.51,0,0,0,1.82-2.21c-.14-.92-.25-1.85-.42-2.77a7.36,7.36,0,0,0-1.24-3.3c-1.29-1.61-3.4-1.83-5.32-2-1.56-.15-2.47-1.06-3.64-1.94A7.47,7.47,0,0,0,192.77,361.83Z" style="fill:#ffa8a7"></path><path d="M206.13,372a6.51,6.51,0,0,1-1.82,2.21,5.36,5.36,0,0,1-4.57,1,9.6,9.6,0,0,1-3.9-2.68l-4.08-4c-1.07-1-2.22-2.28-2.12-3.77a3.57,3.57,0,0,1,3.13-2.95,7.47,7.47,0,0,1,2.74.17l-.41-.3a18,18,0,0,0-3.34-1.87,5.91,5.91,0,0,0-4-.54,4.35,4.35,0,0,0-2.78,4,7.62,7.62,0,0,0,1.75,4.79,34.37,34.37,0,0,0,3.62,3.72,43.83,43.83,0,0,1,4.65,5.27,28.47,28.47,0,0,0,3.3,4,6.68,6.68,0,0,0,4.68,2,4,4,0,0,0,3.47-2.21,6.1,6.1,0,0,0,.32-2.72C206.64,376.1,206.41,374.06,206.13,372Z" style="fill:#455a64"></path><path d="M163.83,251.88c-2.87,36.22-.72,73.94-.72,73.94s5,40.47,5.74,57.47c4.08,4,11.92,0,11.92,0,2.24-29.58,8.16-41,1.7-59.39l4.62-42.44,1.84,34.07,7,53.09c4.24,3.08,9.74,0,9.74,0,2.27-26,7.59-37.86,0-59,9.08-42.13,6.07-58.14,4.88-62.39Z" style="fill:#455a64"></path><path d="M163.83,251.88c-2.87,36.22-.72,73.94-.72,73.94s5,40.47,5.74,57.47c4.08,4,11.92,0,11.92,0,2.24-29.58,8.16-41,1.7-59.39l4.62-42.44,1.84,34.07,7,53.09c4.24,3.08,9.74,0,9.74,0,2.27-26,7.59-37.86,0-59,9.08-42.13,6.07-58.14,4.88-62.39Z" style="opacity:0.4"></path><path d="M163.83,251.88c-2.87,36.22-.72,73.94-.72,73.94s5,40.47,5.74,57.47c4.08,4,11.92,0,11.92,0,2.24-29.58,8.16-41,1.7-59.39l4.62-42.44,1.84,34.07,7,53.09c4.24,3.08,9.74,0,9.74,0,2.27-26,7.59-37.86,0-59,9.08-42.13,6.07-58.14,4.88-62.39Z" style="fill:#fff;opacity:0.1"></path><path d="M198.61,185.53c6.81-5.45,12.46,4.77,16.58,16.16,2.5,6.9,5.07,13.65,6.71,17.88a8.62,8.62,0,0,1-1.16,8.26L208.6,244l-5.42-11.72,6.72-10.19-6.84-12.51Z" style="fill:#fff;opacity:0.2"></path><path d="M176,189c6.1-1.89,23.83-5.76,28.33-1.71,3.92,3.54,6.47,15.75,1.18,31.43a18.57,18.57,0,0,0,.63,13.67,81.94,81.94,0,0,1,5.36,15.41c-14.26,14.52-39.35,12.28-48.86,6.09a231.48,231.48,0,0,1,3-34.68Z" style="fill:#455a64"></path><path d="M176,189c6.1-1.89,23.83-5.76,28.33-1.71,3.92,3.54,6.47,15.75,1.18,31.43a18.57,18.57,0,0,0,.63,13.67,81.94,81.94,0,0,1,5.36,15.41c-14.26,14.52-39.35,12.28-48.86,6.09a231.48,231.48,0,0,1,3-34.68Z" style="fill:#fff;opacity:0.4"></path><path d="M176,189c6.1-1.89,23.83-5.76,28.33-1.71,3.92,3.54,6.47,15.75,1.18,31.43a18.57,18.57,0,0,0,.63,13.67,81.94,81.94,0,0,1,5.36,15.41c-14.26,14.52-39.35,12.28-48.86,6.09a231.48,231.48,0,0,1,3-34.68Z" style="fill:#fff;opacity:0.1"></path><path d="M171.76,156.87a10.2,10.2,0,0,1-5-9.58,12.34,12.34,0,0,1,6.22-9.37,14.56,14.56,0,0,1,11.33-1c3.28,1,6.2,3.13,9.57,3.81,2.94.59,6.09.08,8.86,1.22,3.47,1.43,5.48,5.12,6.37,8.76a24.61,24.61,0,0,1-1.3,15.45c-2.08,4.84-7.51,10.61-12.08,13.21-4.66,5.57-13,1.93-16.49-2.79S171.76,156.87,171.76,156.87Z" style="fill:#37474f"></path><path d="M173.88,152.81a23.34,23.34,0,0,0-3.68,10.54,69.51,69.51,0,0,0-.16,11.27,7.17,7.17,0,0,0,1,4.17,5.73,5.73,0,0,0,4.63,1.82c1.72,0,3.28,0,5.15-.06l.37,7.78c6.14,3.41,13,1,14.83-1.39l-.31-7.62c-9.55,1.79-14.7-1.48-15.6-7.39a6.66,6.66,0,0,0,5.51-1.44,6.32,6.32,0,0,0,1.82-5.23,4.16,4.16,0,0,0-1-2.31,3.74,3.74,0,0,0-3.9-.82,6,6,0,0,0-3.09,2.74,15.31,15.31,0,0,0-1.43,3.95,3.57,3.57,0,0,1-1.15-3.87c.26-.7.77-1.37.66-2.11s-1-1.36-1.38-2.11a2.87,2.87,0,0,1-.14-2.1,8.4,8.4,0,0,1,.92-1.94A18.9,18.9,0,0,0,173.88,152.81Z" style="fill:#ffa8a7"></path><path d="M210.65,175.06A34.43,34.43,0,0,1,203,162.7a22.61,22.61,0,0,1-.17-14.38,14.66,14.66,0,0,1,4.58-6.74,9.88,9.88,0,0,1,7.74-2.09c4.3.79,7.38,4.93,8.16,9.23s-.32,8.72-1.71,12.86c-1.75,5.17-5.74,11.54-5.05,18.85A37.26,37.26,0,0,1,210.65,175.06Z" style="fill:#37474f"></path><path d="M176,189c-11.23-4.9-11.64,6.77-17.8,18.15a155,155,0,0,0-7.07,16.69c-11-1.64-17.9-4.39-24.4-5.06a24.77,24.77,0,0,0-2.66,12.75l28.27,6.79a10,10,0,0,0,11.38-5.45C171.56,216.27,180.29,199.57,176,189Z" style="fill:#455a64"></path><path d="M176,189c-11.23-4.9-11.64,6.77-17.8,18.15a155,155,0,0,0-7.07,16.69c-11-1.64-17.9-4.39-24.4-5.06a24.77,24.77,0,0,0-2.66,12.75l28.27,6.79a10,10,0,0,0,11.38-5.45C171.56,216.27,180.29,199.57,176,189Z" style="fill:#fff;opacity:0.2"></path><path d="M202.69,263.76a21.75,21.75,0,0,1-14.25,5.32l-1.35,12.38,1.23,22.75,2.49-32.89C195.65,270.83,199.93,267.78,202.69,263.76Z" style="opacity:0.30000000000000004"></path></g><g id="freepik--speech-bubble--inject-2"><path d="M112.64,78.84l-31.36,18A6.12,6.12,0,0,0,79,99.15a6,6,0,0,0-.79,3V125a6,6,0,0,0,9.24,5l5.45-3.12.49.8a.5.5,0,0,0,.08.07h0l.06,0h0c.9.6,2.48,1.44,2.83,1.63v0a.33.33,0,0,0,.42-.2l2-5.69h0l20-11.44a6.12,6.12,0,0,0,3.09-5.31V83.82C121.89,79.4,115.39,77.27,112.64,78.84Z" style="fill:#F7931E"></path><path d="M86.73,100.55Z" style="fill:none"></path><path d="M93.39,127.62a.5.5,0,0,0,.08.07h0l.06,0h0c.9.6,2.48,1.44,2.83,1.63v0a.32.32,0,0,1-.19-.14l-2-3.14.39-.22h0l-1.71,1Z" style="fill:#fff;opacity:0.2"></path><path d="M85.09,102.6a6.25,6.25,0,0,1,1.64-2h0a5.4,5.4,0,0,1,.74-.51l31.36-18a2,2,0,0,1,3.06,1.77c0-4.42-6.5-6.55-9.25-5l-31.36,18A6.12,6.12,0,0,0,79,99.15Z" style="fill:#fff;opacity:0.4"></path><path d="M84.4,128.17V105.35a5.84,5.84,0,0,1,0-.73,6.19,6.19,0,0,1,.64-2L79,99.15a6,6,0,0,0-.79,3V125a6,6,0,0,0,9.24,5A2,2,0,0,1,84.4,128.17Z" style="fill:#fff;opacity:0.2"></path><path d="M112.88,89.63a1.71,1.71,0,0,1,1.71-.18c.94.54,1,2.3,0,3.93l-13.15,22.78a5,5,0,0,1-1.71,1.8,1.71,1.71,0,0,1-1.71.17l-5.66-3.22c-.94-.54-1-2.3,0-3.93a4.89,4.89,0,0,1,1.71-1.8,1.71,1.71,0,0,1,1.71-.17l3.94,2.24,11.45-19.82A4.81,4.81,0,0,1,112.88,89.63Z" style="fill:#fff"></path></g></svg>
